<mxfile modified="2024-05-05T09:39:03.031Z" host="app.diagrams.net" agent="Mozilla/5.0 (X11; Ubuntu; Linux x86_64; rv:125.0) Gecko/20100101 Firefox/125.0" etag="z724sbfBt-S2T6F7Nwpa" version="24.3.1" type="github">
  <diagram id="WI9T0HZ2pTsCkuznbFz-" name="Page-1">
    <mxGraphModel dx="2868" dy="1476" grid="1" gridSize="10" guides="1" tooltips="1" connect="1" arrows="1" fold="1" page="1" pageScale="1" pageWidth="2336" pageHeight="1654" math="0" shadow="0">
      <root>
        <mxCell id="0" />
        <mxCell id="1" parent="0" />
        <mxCell id="6GieOjlcSy-mnPTfJjKJ-4" style="edgeStyle=orthogonalEdgeStyle;rounded=0;orthogonalLoop=1;jettySize=auto;html=1;" edge="1" parent="1" source="RLjyjs_sm2IHfBNOWAbh-19" target="RLjyjs_sm2IHfBNOWAbh-23">
          <mxGeometry relative="1" as="geometry" />
        </mxCell>
        <mxCell id="RLjyjs_sm2IHfBNOWAbh-19" value="Geography&lt;br&gt;Data" style="aspect=fixed;html=1;perimeter=none;align=center;shadow=0;dashed=0;image;fontSize=12;image=img/lib/mscae/BlobBlock.svg;labelBackgroundColor=#ffffff;fillColor=#4D9900;spacingTop=7;" parent="1" vertex="1">
          <mxGeometry x="180.0000000000001" y="79.99999999999989" width="50" height="42.5" as="geometry" />
        </mxCell>
        <mxCell id="RLjyjs_sm2IHfBNOWAbh-23" value="SQL Data&lt;br&gt;Warehouse" style="aspect=fixed;html=1;perimeter=none;align=center;shadow=0;dashed=0;image;fontSize=12;image=img/lib/mscae/SQL_Database_generic.svg;labelBackgroundColor=#ffffff;fillColor=#4D9900;spacingTop=6;" parent="1" vertex="1">
          <mxGeometry x="479.9999999999998" y="140" width="37.5" height="50" as="geometry" />
        </mxCell>
        <mxCell id="6GieOjlcSy-mnPTfJjKJ-1" value="" style="shape=image;verticalLabelPosition=bottom;labelBackgroundColor=#ffffff;verticalAlign=top;aspect=fixed;imageAspect=0;image=data:image/svg+xml,PHN2ZyB4bWxuczpkYz0iaHR0cDovL3B1cmwub3JnL2RjL2VsZW1lbnRzLzEuMS8iIHhtbG5zOmNjPSJodHRwOi8vY3JlYXRpdmVjb21tb25zLm9yZy9ucyMiIHhtbG5zOnJkZj0iaHR0cDovL3d3dy53My5vcmcvMTk5OS8wMi8yMi1yZGYtc3ludGF4LW5zIyIgeG1sbnM6c3ZnPSJodHRwOi8vd3d3LnczLm9yZy8yMDAwL3N2ZyIgeG1sbnM9Imh0dHA6Ly93d3cudzMub3JnLzIwMDAvc3ZnIiB4bWxuczpzb2RpcG9kaT0iaHR0cDovL3NvZGlwb2RpLnNvdXJjZWZvcmdlLm5ldC9EVEQvc29kaXBvZGktMC5kdGQiIHhtbG5zOmlua3NjYXBlPSJodHRwOi8vd3d3Lmlua3NjYXBlLm9yZy9uYW1lc3BhY2VzL2lua3NjYXBlIiB2ZXJzaW9uPSIxLjEiIGlkPSJzdmc3OTg2MSIgaW5rc2NhcGU6dmVyc2lvbj0iMC45Mi4zICgyNDA1NTQ2LCAyMDE4LTAzLTExKSIgc29kaXBvZGk6ZG9jbmFtZT0iZG9jdW1lbnRkYi5zdmciIHg9IjBweCIgeT0iMHB4IiB2aWV3Qm94PSIwIDAgNzUuNTIgOTkuOSIgeG1sOnNwYWNlPSJwcmVzZXJ2ZSIgd2lkdGg9Ijc1LjUxOTk5NyIgaGVpZ2h0PSI5OS45MDAwMDIiPjxtZXRhZGF0YSBpZD0ibWV0YWRhdGExNTQ3Ij48cmRmOlJERj48Y2M6V29yayByZGY6YWJvdXQ9IiI+PGRjOmZvcm1hdD5pbWFnZS9zdmcreG1sPC9kYzpmb3JtYXQ+PGRjOnR5cGUgcmRmOnJlc291cmNlPSJodHRwOi8vcHVybC5vcmcvZGMvZGNtaXR5cGUvU3RpbGxJbWFnZSIvPjxkYzp0aXRsZS8+PC9jYzpXb3JrPjwvcmRmOlJERj48L21ldGFkYXRhPjxkZWZzIGlkPSJkZWZzMTU0NSI+JiN4YTsJJiN4YTsmI3hhOwkmI3hhOyYjeGE7CSYjeGE7JiN4YTsJJiN4YTsmI3hhOwkmI3hhOyYjeGE7CSYjeGE7CSYjeGE7CSYjeGE7JiN4YTsJJiN4YTsJJiN4YTsJJiN4YTsmI3hhOwkJJiN4YTsJJiN4YTsJCSYjeGE7CSYjeGE7CQkmI3hhOwkmI3hhOwkJJiN4YTsJJiN4YTsJCSYjeGE7CSYjeGE7CQkmI3hhOwkmI3hhOwkJJiN4YTsJJiN4YTsJCQkmI3hhOwkJJiN4YTsJCQkmI3hhOwkJPC9kZWZzPiYjeGE7PGZpbHRlciBpZD0iZmlsdGVyXzIiPiYjeGE7CTxmZUdhdXNzaWFuQmx1ciBpZD0iZmVHYXVzc2lhbkJsdXI3OTc5MSIgc3RkRGV2aWF0aW9uPSIyIi8+JiN4YTs8L2ZpbHRlcj4mI3hhOzxzb2RpcG9kaTpuYW1lZHZpZXcgYm9yZGVyY29sb3I9IiM2NjY2NjYiIGJvcmRlcm9wYWNpdHk9IjEiIGZpdC1tYXJnaW4tYm90dG9tPSIwIiBmaXQtbWFyZ2luLWxlZnQ9IjAiIGZpdC1tYXJnaW4tcmlnaHQ9IjAiIGZpdC1tYXJnaW4tdG9wPSIwIiBncmlkdG9sZXJhbmNlPSIxMCIgZ3VpZGV0b2xlcmFuY2U9IjEwIiBpZD0ibmFtZWR2aWV3Nzk4NjMiIGlua3NjYXBlOmN1cnJlbnQtbGF5ZXI9InN2Zzc5ODYxIiBpbmtzY2FwZTpjeD0iLTgyLjQ4ODg2MyIgaW5rc2NhcGU6Y3k9IjUxLjY0ODExNyIgaW5rc2NhcGU6cGFnZW9wYWNpdHk9IjAiIGlua3NjYXBlOnBhZ2VzaGFkb3c9IjIiIGlua3NjYXBlOndpbmRvdy1oZWlnaHQ9IjEwMTciIGlua3NjYXBlOndpbmRvdy1tYXhpbWl6ZWQ9IjEiIGlua3NjYXBlOndpbmRvdy13aWR0aD0iMTkyMCIgaW5rc2NhcGU6d2luZG93LXg9Ii04IiBpbmtzY2FwZTp3aW5kb3cteT0iLTgiIGlua3NjYXBlOnpvb209IjMuNjk2NzkwNyIgb2JqZWN0dG9sZXJhbmNlPSIxMCIgcGFnZWNvbG9yPSIjZmZmZmZmIiBzaG93Z3JpZD0iZmFsc2UiPiYjeGE7CTwvc29kaXBvZGk6bmFtZWR2aWV3PiYjeGE7JiN4YTs8cGF0aCBpZD0icGF0aDc5ODA0IiBpbmtzY2FwZTpjb25uZWN0b3ItY3VydmF0dXJlPSIwIiBzdHlsZT0iZmlsbDojMzk5OWM2IiBkPSJNIDAsMTMuNTkgViA4Ni4xMSBDIDAsOTMuNyAxNi43OCw5OS43IDM3Ljc2LDk5LjcgViAxMy41OSBaIi8+JiN4YTsmI3hhOzxwYXRoIGlkPSJwYXRoNzk4MTIiIGlua3NjYXBlOmNvbm5lY3Rvci1jdXJ2YXR1cmU9IjAiIHN0eWxlPSJmaWxsOiM1OWI0ZDkiIGQ9Im0gMzcuMTYsOTkuOSBoIDAuNiBjIDIwLjc4LDAgMzcuNzYsLTYuMiAzNy43NiwtMTMuNTkgViAxMy41OCBIIDM3LjE2IFoiLz4mI3hhOyYjeGE7PHBhdGggaWQ9InBhdGg3OTgyMCIgaW5rc2NhcGU6Y29ubmVjdG9yLWN1cnZhdHVyZT0iMCIgc3R5bGU9ImZpbGw6I2ZmZmZmZiIgZD0ibSA3NS41MiwxMy41OCBjIDAsNy41OSAtMTYuNzgsMTMuNTkgLTM3Ljc2LDEzLjU5IEMgMTYuNzgsMjcuMTcgMCwyMS4xNyAwLDEzLjU4IDAsNi4xOSAxNi45OCwwIDM3Ljc2LDAgNTguNTQsMCA3NS41Miw2LjE5IDc1LjUyLDEzLjU4IFoiLz4mI3hhOyYjeGE7PHBhdGggaWQ9InBhdGg3OTgyOCIgaW5rc2NhcGU6Y29ubmVjdG9yLWN1cnZhdHVyZT0iMCIgc3R5bGU9ImZpbGw6IzdmYmEwMCIgZD0ibSA2Ny43MywxMi43OSBjIDAsNC45OSAtMTMuMzksOC45OSAtMjkuOTcsOC45OSAtMTYuNTgsMCAtMjkuOTcsLTQgLTI5Ljk3LC04Ljk5IDAsLTUgMTMuMzksLTguOTkgMjkuOTcsLTguOTkgMTYuNTgsMCAyOS45NywzLjk5IDI5Ljk3LDguOTkgeiIvPiYjeGE7JiN4YTs8cGF0aCBpZD0icGF0aDc5ODM2IiBpbmtzY2FwZTpjb25uZWN0b3ItY3VydmF0dXJlPSIwIiBzdHlsZT0iZmlsbDojYjhkNDMyIiBkPSJtIDYxLjUzLDE4LjM4IGMgNCwtMS42IDYuMiwtMy40IDYuMiwtNS42IDAsLTQuOTkgLTEzLjM5LC04Ljk5IC0yOS45NywtOC45OSAtMTYuNTgsMCAtMjkuOTcsNCAtMjkuOTcsOC45OSAwLDIgMi40LDQgNi4xOSw1LjYgNS40LC0yLjIgMTMuOTksLTMuNiAyMy43OCwtMy42IDkuNTksMCAxOC4xOCwxLjQgMjMuNzcsMy42IHoiLz4mI3hhOzxwYXRoIGQ9Im0gMjYuOTY4MjMsODMuNTExOSBjIC0yLjk5LDAgLTUuMzksLTAuNCAtNi45OSwtMSAtMS44LC0wLjYgLTMsLTEuNiAtMy43OSwtMi44IC0wLjgsLTEuNCAtMS4yLC0zLjQgLTEuMiwtNS45OSB2IC00LjQgYyAwLC0yLjggLTEuMiwtNC4zOSAtMy42LC00LjM5IHYgLTUuNCBjIDIuNCwwIDMuNiwtMS40IDMuNiwtNC4zOSB2IC00IGMgMCwtMi44IDAuNCwtNC45OSAxLjIsLTYuMTkgMC43OSwtMS40IDEuOTksLTIuMiAzLjU5LC0zIDEuOCwtMC42IDQsLTEgNi45OSwtMSB2IDUuNCBjIC0xLjM5LDAgLTIuMTksMC4yIC0yLjk5LDAuNzkgLTAuNiwwLjYgLTEsMS42IC0xLDMgdiAzLjQgYyAwLDIuMiAtMC4yLDMuOTkgLTAuOCw1LjM5IC0wLjYsMS40IC0xLjYsMi40IC0zLDMgMS40LDAuNiAyLjQsMS42IDMsMy4yIDAuNiwxLjM5IDEsMy4zOSAxLDUuNTkgdiAzIGMgMCwxLjQgMC4yLDIuMzkgMC44LDIuOTkgMC42LDAuNiAxLjYsMSAyLjk5LDEgdiA1LjggeiIgc3R5bGU9ImZpbGw6I2ZmZmZmZiIgaW5rc2NhcGU6Y29ubmVjdG9yLWN1cnZhdHVyZT0iMCIgaWQ9InBhdGg3OTg0NiIvPiYjeGE7PHBhdGggZD0ibSA2MC45MzMwMyw2NC45MzE5IGMgLTIuMzksMCAtMy41OSwxLjM5IC0zLjU5LDQuMzkgdiA0IGMgMCwyLjc5IC0wLjQsNC45OSAtMS4yLDYuMTkgLTAuOCwxLjQgLTIsMi4yIC0zLjYsMyAtMS44LDAuNiAtMy45OSwxIC02Ljk5LDEgdiAtNS40IGMgMS40LDAgMi40LC0wLjIgMywtMC44IDAuNiwtMC42IDEsLTEuNTkgMSwtMi45OSB2IC0zLjQgYyAwLC0yLjIgMC4yLC00IDAuOCwtNS4zOSAwLjU5LC0xLjQgMS41OSwtMi40IDIuOTksLTMgLTEuNCwtMC42IC0yLjQsLTEuOCAtMi45OSwtMy4yIC0wLjYsLTEuNCAtMSwtMy4zOSAtMSwtNS41OSB2IC0zIGMgMCwtMS40IC0wLjIsLTIuNCAtMC44LC0zIC0wLjYsLTAuNiAtMS42LC0xIC0zLC0xIHYgLTUuMzkgYyAzLDAgNS4zOSwwLjQgNi45OSwxIDEuOCwwLjYgMywxLjYgMy44LDIuOCAwLjgsMS40IDEuMiwzLjM5IDEuMiw1Ljk5IHYgNC40IGMgMCwyLjc5IDEuMiw0LjM5IDMuNTksNC4zOSB2IDUgeiIgc3R5bGU9ImZpbGw6I2ZmZmZmZiIgaW5rc2NhcGU6Y29ubmVjdG9yLWN1cnZhdHVyZT0iMCIgaWQ9InBhdGg3OTg1NCIvPiYjeGE7PC9zdmc+;" vertex="1" parent="1">
          <mxGeometry x="1530" y="1238" width="76" height="100" as="geometry" />
        </mxCell>
        <mxCell id="6GieOjlcSy-mnPTfJjKJ-2" value="" style="shape=image;verticalLabelPosition=bottom;labelBackgroundColor=#ffffff;verticalAlign=top;aspect=fixed;imageAspect=0;image=data:image/svg+xml,PHN2ZyB4bWxuczpjYz0iaHR0cDovL2NyZWF0aXZlY29tbW9ucy5vcmcvbnMjIiB4bWxuczpkYz0iaHR0cDovL3B1cmwub3JnL2RjL2VsZW1lbnRzLzEuMS8iIHhtbG5zOmlua3NjYXBlPSJodHRwOi8vd3d3Lmlua3NjYXBlLm9yZy9uYW1lc3BhY2VzL2lua3NjYXBlIiB4bWxuczpyZGY9Imh0dHA6Ly93d3cudzMub3JnLzE5OTkvMDIvMjItcmRmLXN5bnRheC1ucyMiIHhtbG5zOnNvZGlwb2RpPSJodHRwOi8vc29kaXBvZGkuc291cmNlZm9yZ2UubmV0L0RURC9zb2RpcG9kaS0wLmR0ZCIgeG1sbnM6c3ZnPSJodHRwOi8vd3d3LnczLm9yZy8yMDAwL3N2ZyIgeG1sbnM9Imh0dHA6Ly93d3cudzMub3JnLzIwMDAvc3ZnIiB4bWxuczp4bGluaz0iaHR0cDovL3d3dy53My5vcmcvMTk5OS94bGluayIgdmVyc2lvbj0iMS4xIiBpZD0ic3ZnOTA0OTciIGlua3NjYXBlOnZlcnNpb249IjAuOTIuMyAoMjQwNTU0NiwgMjAxOC0wMy0xMSkiIHNvZGlwb2RpOmRvY25hbWU9InBvcnRhbF8xLnN2ZyIgeD0iMHB4IiB5PSIwcHgiIHZpZXdCb3g9IjAgMCA0OCAzNy41IiBzdHlsZT0iZW5hYmxlLWJhY2tncm91bmQ6bmV3IDAgMCA0OCAzNy41OyIgeG1sOnNwYWNlPSJwcmVzZXJ2ZSI+JiN4YTs8c29kaXBvZGk6bmFtZWR2aWV3IGJvcmRlcmNvbG9yPSIjNjY2NjY2IiBib3JkZXJvcGFjaXR5PSIxIiBmaXQtbWFyZ2luLWJvdHRvbT0iMCIgZml0LW1hcmdpbi1sZWZ0PSIwIiBmaXQtbWFyZ2luLXJpZ2h0PSIwIiBmaXQtbWFyZ2luLXRvcD0iMCIgZ3JpZHRvbGVyYW5jZT0iMTAiIGd1aWRldG9sZXJhbmNlPSIxMCIgaWQ9Im5hbWVkdmlldzkwNDk5IiBpbmtzY2FwZTpjdXJyZW50LWxheWVyPSJzdmc5MDQ5NyIgaW5rc2NhcGU6Y3g9IjM3LjI2NDgzIiBpbmtzY2FwZTpjeT0iMjQuNzY1MDc2IiBpbmtzY2FwZTpwYWdlb3BhY2l0eT0iMCIgaW5rc2NhcGU6cGFnZXNoYWRvdz0iMiIgaW5rc2NhcGU6d2luZG93LWhlaWdodD0iMTAxNyIgaW5rc2NhcGU6d2luZG93LW1heGltaXplZD0iMSIgaW5rc2NhcGU6d2luZG93LXdpZHRoPSIxOTIwIiBpbmtzY2FwZTp3aW5kb3cteD0iLTgiIGlua3NjYXBlOndpbmRvdy15PSItOCIgaW5rc2NhcGU6em9vbT0iMTEuNzg5NjM5IiBvYmplY3R0b2xlcmFuY2U9IjEwIiBwYWdlY29sb3I9IiNmZmZmZmYiIHNob3dncmlkPSJmYWxzZSI+JiN4YTsJPC9zb2RpcG9kaTpuYW1lZHZpZXc+JiN4YTs8ZyBpZD0iZzkwNDk1IiB0cmFuc2Zvcm09InRyYW5zbGF0ZSgtMC43NSwtMC43NDc1KSI+JiN4YTsJPHRpdGxlIGlkPSJ0aXRsZTkwNDU3Ij5QYWdlLTE8L3RpdGxlPiYjeGE7CTxnIGlkPSJncm91cDQyNDAtMSIgdHJhbnNmb3JtPSJ0cmFuc2xhdGUoMC43NSwtMC43NSkiPiYjeGE7CQk8dGl0bGUgaWQ9InRpdGxlOTA0NTkiPlBvcnRhbCAjMTwvdGl0bGU+JiN4YTsJCTxnIGlkPSJncm91cDQyNDEtMiI+JiN4YTsJCQk8dGl0bGUgaWQ9InRpdGxlOTA0NjEiPmcxMDQ3ODwvdGl0bGU+JiN4YTsJCQk8ZyBpZD0ic2hhcGU0MjQyLTMiIHRyYW5zZm9ybT0idHJhbnNsYXRlKDAsLTIxLjU2MjUpIj4mI3hhOwkJCQk8dGl0bGUgaWQ9InRpdGxlOTA0NjMiPnJlY3QxMDQ1NDwvdGl0bGU+JiN4YTsJCQkJPHBhdGggaWQ9InBhdGg5MDQ2NSIgaW5rc2NhcGU6Y29ubmVjdG9yLWN1cnZhdHVyZT0iMCIgc3R5bGU9ImZpbGw6IzkzOTU5ODsiIGQ9Ik0wLDM4LjI1QzAsMzguNjYsMC4zNCwzOSwwLjc1LDM5aDQ2LjUgICAgICBjMC40MSwwLDAuNzUtMC4zNCwwLjc1LTAuNzVWMjMuODFjMC0wLjQxLTAuMzQtMC43NS0wLjc1LTAuNzVIMC43NUMwLjM0LDIzLjA2LDAsMjMuNCwwLDIzLjgxVjM4LjI1eiIvPiYjeGE7CQkJPC9nPiYjeGE7CQkJPGcgaWQ9InNoYXBlNDI0My01Ij4mI3hhOwkJCQk8dGl0bGUgaWQ9InRpdGxlOTA0NjgiPnJlY3QxMDQ1NjwvdGl0bGU+JiN4YTsJCQkJPHJlY3QgaWQ9InJlY3Q5MDQ3MCIgeT0iMTAuNSIgc3R5bGU9ImZpbGw6IzM2OENCMjsiIHdpZHRoPSI0OCIgaGVpZ2h0PSIyOC41Ii8+JiN4YTsJCQk8L2c+JiN4YTsJCQk8ZyBpZD0ic2hhcGU0MjQ0LTciIHRyYW5zZm9ybT0idHJhbnNsYXRlKDAsLTAuMDIyNDk5MikiPiYjeGE7CQkJCTx0aXRsZSBpZD0idGl0bGU5MDQ3MyI+cmVjdDEwNDU4PC90aXRsZT4mI3hhOwkJCQk8cmVjdCBpZD0icmVjdDkwNDc1IiB5PSI5Ljc3IiBzdHlsZT0iZmlsbDojNDE0MDQyOyIgd2lkdGg9IjkuNzUiIGhlaWdodD0iMjkuMjMiLz4mI3hhOwkJCTwvZz4mI3hhOwkJCTxnIGlkPSJzaGFwZTQyNDUtOSIgdHJhbnNmb3JtPSJ0cmFuc2xhdGUoMjMuOTE3NSwtMjQpIj4mI3hhOwkJCQk8dGl0bGUgaWQ9InRpdGxlOTA0NzgiPnBhdGgxMDQ2MDwvdGl0bGU+JiN4YTsJCQkJPHBhdGggaWQ9InBhdGg5MDQ4MCIgaW5rc2NhcGU6Y29ubmVjdG9yLWN1cnZhdHVyZT0iMCIgc3R5bGU9ImZpbGw6I0E3QTlBQzsiIGQ9Ik0yNC4wOCwyNi4yNVYzNy41YzAsMC44My0wLjY3LDEuNS0xLjUsMS41ICAgICAgSDEzLjVMMCwyNS41aDIzLjMzQzIzLjc0LDI1LjUsMjQuMDgsMjUuODQsMjQuMDgsMjYuMjV6Ii8+JiN4YTsJCQk8L2c+JiN4YTsJCQk8ZyBpZD0ic2hhcGU0MjQ2LTExIiB0cmFuc2Zvcm09InRyYW5zbGF0ZSgzMi45MSwtMTMuNDE3NSkiPiYjeGE7CQkJCTx0aXRsZSBpZD0idGl0bGU5MDQ4MyI+cG9seWdvbjEwNDYyPC90aXRsZT4mI3hhOwkJCQk8cGF0aCBpZD0icGF0aDkwNDg1IiBpbmtzY2FwZTpjb25uZWN0b3ItY3VydmF0dXJlPSIwIiBzdHlsZT0iZmlsbDojM0M5OUJBOyIgZD0iTTAsMjMuOTJoMTUuMDlWMzlMMCwyMy45MnoiLz4mI3hhOwkJCTwvZz4mI3hhOwkJCTxnIGlkPSJzaGFwZTQyNDctMTMiIHRyYW5zZm9ybT0idHJhbnNsYXRlKDAsLTI4LjUpIj4mI3hhOwkJCQk8dGl0bGUgaWQ9InRpdGxlOTA0ODgiPnJlY3QxMDQ2NDwvdGl0bGU+JiN4YTsJCQkJPHJlY3QgaWQ9InJlY3Q5MDQ5MCIgeT0iMzQuNSIgc3R5bGU9ImZpbGw6IzQxNDA0MjsiIHdpZHRoPSI0OCIgaGVpZ2h0PSI0LjUiLz4mI3hhOwkJCTwvZz4mI3hhOwkJPC9nPiYjeGE7CTwvZz4mI3hhOzwvZz4mI3hhOzwvc3ZnPg==;" vertex="1" parent="1">
          <mxGeometry x="182" y="190" width="48" height="38" as="geometry" />
        </mxCell>
        <mxCell id="6GieOjlcSy-mnPTfJjKJ-6" style="edgeStyle=orthogonalEdgeStyle;rounded=0;orthogonalLoop=1;jettySize=auto;html=1;exitX=1;exitY=0.5;exitDx=0;exitDy=0;" edge="1" parent="1" source="6GieOjlcSy-mnPTfJjKJ-3">
          <mxGeometry relative="1" as="geometry">
            <mxPoint x="500" y="200" as="targetPoint" />
          </mxGeometry>
        </mxCell>
        <mxCell id="6GieOjlcSy-mnPTfJjKJ-3" value="" style="shape=image;verticalLabelPosition=bottom;labelBackgroundColor=#ffffff;verticalAlign=top;aspect=fixed;imageAspect=0;image=data:image/svg+xml,PHN2ZyB4bWxuczpjYz0iaHR0cDovL2NyZWF0aXZlY29tbW9ucy5vcmcvbnMjIiB4bWxuczpkYz0iaHR0cDovL3B1cmwub3JnL2RjL2VsZW1lbnRzLzEuMS8iIHhtbG5zOmlua3NjYXBlPSJodHRwOi8vd3d3Lmlua3NjYXBlLm9yZy9uYW1lc3BhY2VzL2lua3NjYXBlIiB4bWxuczpyZGY9Imh0dHA6Ly93d3cudzMub3JnLzE5OTkvMDIvMjItcmRmLXN5bnRheC1ucyMiIHhtbG5zOnNvZGlwb2RpPSJodHRwOi8vc29kaXBvZGkuc291cmNlZm9yZ2UubmV0L0RURC9zb2RpcG9kaS0wLmR0ZCIgeG1sbnM6c3ZnPSJodHRwOi8vd3d3LnczLm9yZy8yMDAwL3N2ZyIgeG1sbnM9Imh0dHA6Ly93d3cudzMub3JnLzIwMDAvc3ZnIiB4bWxuczp4bGluaz0iaHR0cDovL3d3dy53My5vcmcvMTk5OS94bGluayIgdmVyc2lvbj0iMS4xIiBpZD0ic3ZnOTA0OTciIGlua3NjYXBlOnZlcnNpb249IjAuOTIuMyAoMjQwNTU0NiwgMjAxOC0wMy0xMSkiIHNvZGlwb2RpOmRvY25hbWU9InBvcnRhbF8xLnN2ZyIgeD0iMHB4IiB5PSIwcHgiIHZpZXdCb3g9IjAgMCA0OCAzNy41IiBzdHlsZT0iZW5hYmxlLWJhY2tncm91bmQ6bmV3IDAgMCA0OCAzNy41OyIgeG1sOnNwYWNlPSJwcmVzZXJ2ZSI+JiN4YTs8c29kaXBvZGk6bmFtZWR2aWV3IGJvcmRlcmNvbG9yPSIjNjY2NjY2IiBib3JkZXJvcGFjaXR5PSIxIiBmaXQtbWFyZ2luLWJvdHRvbT0iMCIgZml0LW1hcmdpbi1sZWZ0PSIwIiBmaXQtbWFyZ2luLXJpZ2h0PSIwIiBmaXQtbWFyZ2luLXRvcD0iMCIgZ3JpZHRvbGVyYW5jZT0iMTAiIGd1aWRldG9sZXJhbmNlPSIxMCIgaWQ9Im5hbWVkdmlldzkwNDk5IiBpbmtzY2FwZTpjdXJyZW50LWxheWVyPSJzdmc5MDQ5NyIgaW5rc2NhcGU6Y3g9IjM3LjI2NDgzIiBpbmtzY2FwZTpjeT0iMjQuNzY1MDc2IiBpbmtzY2FwZTpwYWdlb3BhY2l0eT0iMCIgaW5rc2NhcGU6cGFnZXNoYWRvdz0iMiIgaW5rc2NhcGU6d2luZG93LWhlaWdodD0iMTAxNyIgaW5rc2NhcGU6d2luZG93LW1heGltaXplZD0iMSIgaW5rc2NhcGU6d2luZG93LXdpZHRoPSIxOTIwIiBpbmtzY2FwZTp3aW5kb3cteD0iLTgiIGlua3NjYXBlOndpbmRvdy15PSItOCIgaW5rc2NhcGU6em9vbT0iMTEuNzg5NjM5IiBvYmplY3R0b2xlcmFuY2U9IjEwIiBwYWdlY29sb3I9IiNmZmZmZmYiIHNob3dncmlkPSJmYWxzZSI+JiN4YTsJPC9zb2RpcG9kaTpuYW1lZHZpZXc+JiN4YTs8ZyBpZD0iZzkwNDk1IiB0cmFuc2Zvcm09InRyYW5zbGF0ZSgtMC43NSwtMC43NDc1KSI+JiN4YTsJPHRpdGxlIGlkPSJ0aXRsZTkwNDU3Ij5QYWdlLTE8L3RpdGxlPiYjeGE7CTxnIGlkPSJncm91cDQyNDAtMSIgdHJhbnNmb3JtPSJ0cmFuc2xhdGUoMC43NSwtMC43NSkiPiYjeGE7CQk8dGl0bGUgaWQ9InRpdGxlOTA0NTkiPlBvcnRhbCAjMTwvdGl0bGU+JiN4YTsJCTxnIGlkPSJncm91cDQyNDEtMiI+JiN4YTsJCQk8dGl0bGUgaWQ9InRpdGxlOTA0NjEiPmcxMDQ3ODwvdGl0bGU+JiN4YTsJCQk8ZyBpZD0ic2hhcGU0MjQyLTMiIHRyYW5zZm9ybT0idHJhbnNsYXRlKDAsLTIxLjU2MjUpIj4mI3hhOwkJCQk8dGl0bGUgaWQ9InRpdGxlOTA0NjMiPnJlY3QxMDQ1NDwvdGl0bGU+JiN4YTsJCQkJPHBhdGggaWQ9InBhdGg5MDQ2NSIgaW5rc2NhcGU6Y29ubmVjdG9yLWN1cnZhdHVyZT0iMCIgc3R5bGU9ImZpbGw6IzkzOTU5ODsiIGQ9Ik0wLDM4LjI1QzAsMzguNjYsMC4zNCwzOSwwLjc1LDM5aDQ2LjUgICAgICBjMC40MSwwLDAuNzUtMC4zNCwwLjc1LTAuNzVWMjMuODFjMC0wLjQxLTAuMzQtMC43NS0wLjc1LTAuNzVIMC43NUMwLjM0LDIzLjA2LDAsMjMuNCwwLDIzLjgxVjM4LjI1eiIvPiYjeGE7CQkJPC9nPiYjeGE7CQkJPGcgaWQ9InNoYXBlNDI0My01Ij4mI3hhOwkJCQk8dGl0bGUgaWQ9InRpdGxlOTA0NjgiPnJlY3QxMDQ1NjwvdGl0bGU+JiN4YTsJCQkJPHJlY3QgaWQ9InJlY3Q5MDQ3MCIgeT0iMTAuNSIgc3R5bGU9ImZpbGw6IzM2OENCMjsiIHdpZHRoPSI0OCIgaGVpZ2h0PSIyOC41Ii8+JiN4YTsJCQk8L2c+JiN4YTsJCQk8ZyBpZD0ic2hhcGU0MjQ0LTciIHRyYW5zZm9ybT0idHJhbnNsYXRlKDAsLTAuMDIyNDk5MikiPiYjeGE7CQkJCTx0aXRsZSBpZD0idGl0bGU5MDQ3MyI+cmVjdDEwNDU4PC90aXRsZT4mI3hhOwkJCQk8cmVjdCBpZD0icmVjdDkwNDc1IiB5PSI5Ljc3IiBzdHlsZT0iZmlsbDojNDE0MDQyOyIgd2lkdGg9IjkuNzUiIGhlaWdodD0iMjkuMjMiLz4mI3hhOwkJCTwvZz4mI3hhOwkJCTxnIGlkPSJzaGFwZTQyNDUtOSIgdHJhbnNmb3JtPSJ0cmFuc2xhdGUoMjMuOTE3NSwtMjQpIj4mI3hhOwkJCQk8dGl0bGUgaWQ9InRpdGxlOTA0NzgiPnBhdGgxMDQ2MDwvdGl0bGU+JiN4YTsJCQkJPHBhdGggaWQ9InBhdGg5MDQ4MCIgaW5rc2NhcGU6Y29ubmVjdG9yLWN1cnZhdHVyZT0iMCIgc3R5bGU9ImZpbGw6I0E3QTlBQzsiIGQ9Ik0yNC4wOCwyNi4yNVYzNy41YzAsMC44My0wLjY3LDEuNS0xLjUsMS41ICAgICAgSDEzLjVMMCwyNS41aDIzLjMzQzIzLjc0LDI1LjUsMjQuMDgsMjUuODQsMjQuMDgsMjYuMjV6Ii8+JiN4YTsJCQk8L2c+JiN4YTsJCQk8ZyBpZD0ic2hhcGU0MjQ2LTExIiB0cmFuc2Zvcm09InRyYW5zbGF0ZSgzMi45MSwtMTMuNDE3NSkiPiYjeGE7CQkJCTx0aXRsZSBpZD0idGl0bGU5MDQ4MyI+cG9seWdvbjEwNDYyPC90aXRsZT4mI3hhOwkJCQk8cGF0aCBpZD0icGF0aDkwNDg1IiBpbmtzY2FwZTpjb25uZWN0b3ItY3VydmF0dXJlPSIwIiBzdHlsZT0iZmlsbDojM0M5OUJBOyIgZD0iTTAsMjMuOTJoMTUuMDlWMzlMMCwyMy45MnoiLz4mI3hhOwkJCTwvZz4mI3hhOwkJCTxnIGlkPSJzaGFwZTQyNDctMTMiIHRyYW5zZm9ybT0idHJhbnNsYXRlKDAsLTI4LjUpIj4mI3hhOwkJCQk8dGl0bGUgaWQ9InRpdGxlOTA0ODgiPnJlY3QxMDQ2NDwvdGl0bGU+JiN4YTsJCQkJPHJlY3QgaWQ9InJlY3Q5MDQ5MCIgeT0iMzQuNSIgc3R5bGU9ImZpbGw6IzQxNDA0MjsiIHdpZHRoPSI0OCIgaGVpZ2h0PSI0LjUiLz4mI3hhOwkJCTwvZz4mI3hhOwkJPC9nPiYjeGE7CTwvZz4mI3hhOzwvZz4mI3hhOzwvc3ZnPg==;" vertex="1" parent="1">
          <mxGeometry x="181" y="270" width="48" height="38" as="geometry" />
        </mxCell>
        <mxCell id="6GieOjlcSy-mnPTfJjKJ-5" style="edgeStyle=orthogonalEdgeStyle;rounded=0;orthogonalLoop=1;jettySize=auto;html=1;exitX=1;exitY=0.5;exitDx=0;exitDy=0;entryX=-0.107;entryY=0.5;entryDx=0;entryDy=0;entryPerimeter=0;" edge="1" parent="1" source="6GieOjlcSy-mnPTfJjKJ-2" target="RLjyjs_sm2IHfBNOWAbh-23">
          <mxGeometry relative="1" as="geometry" />
        </mxCell>
        <mxCell id="6GieOjlcSy-mnPTfJjKJ-8" value="Master Domain List" style="text;html=1;align=center;verticalAlign=middle;resizable=0;points=[];autosize=1;strokeColor=none;fillColor=none;" vertex="1" parent="1">
          <mxGeometry x="510" y="110" width="130" height="30" as="geometry" />
        </mxCell>
        <mxCell id="6GieOjlcSy-mnPTfJjKJ-9" value="&lt;div&gt;Web Master&lt;/div&gt;" style="text;html=1;align=center;verticalAlign=middle;resizable=0;points=[];autosize=1;strokeColor=none;fillColor=none;" vertex="1" parent="1">
          <mxGeometry x="65" y="198" width="90" height="30" as="geometry" />
        </mxCell>
        <mxCell id="6GieOjlcSy-mnPTfJjKJ-10" value="Domain Hosting Providers" style="text;html=1;align=center;verticalAlign=middle;resizable=0;points=[];autosize=1;strokeColor=none;fillColor=none;" vertex="1" parent="1">
          <mxGeometry x="20" y="278" width="160" height="30" as="geometry" />
        </mxCell>
        <mxCell id="6GieOjlcSy-mnPTfJjKJ-11" value="" style="shape=image;verticalLabelPosition=bottom;labelBackgroundColor=#ffffff;verticalAlign=top;aspect=fixed;imageAspect=0;image=data:image/svg+xml,PHN2ZyB4bWxuczpjYz0iaHR0cDovL2NyZWF0aXZlY29tbW9ucy5vcmcvbnMjIiB4bWxuczpkYz0iaHR0cDovL3B1cmwub3JnL2RjL2VsZW1lbnRzLzEuMS8iIHhtbG5zOmlua3NjYXBlPSJodHRwOi8vd3d3Lmlua3NjYXBlLm9yZy9uYW1lc3BhY2VzL2lua3NjYXBlIiB4bWxuczpyZGY9Imh0dHA6Ly93d3cudzMub3JnLzE5OTkvMDIvMjItcmRmLXN5bnRheC1ucyMiIHhtbG5zOnNvZGlwb2RpPSJodHRwOi8vc29kaXBvZGkuc291cmNlZm9yZ2UubmV0L0RURC9zb2RpcG9kaS0wLmR0ZCIgeG1sbnM6c3ZnPSJodHRwOi8vd3d3LnczLm9yZy8yMDAwL3N2ZyIgeG1sbnM9Imh0dHA6Ly93d3cudzMub3JnLzIwMDAvc3ZnIiB4bWxuczp4bGluaz0iaHR0cDovL3d3dy53My5vcmcvMTk5OS94bGluayIgdmVyc2lvbj0iMS4xIiBpZD0ic3ZnNjAzNjAiIGlua3NjYXBlOnZlcnNpb249IjAuOTIuMyAoMjQwNTU0NiwgMjAxOC0wMy0xMSkiIHNvZGlwb2RpOmRvY25hbWU9ImF6dXJlX3BvcnRhbF9jbG91ZF9zZXJ2aWNlX2NsYXNzaWMuc3ZnIiB4PSIwcHgiIHk9IjBweCIgdmlld0JveD0iMCAwIDM2LjM0IDI5LjE4IiBzdHlsZT0iZW5hYmxlLWJhY2tncm91bmQ6bmV3IDAgMCAzNi4zNCAyOS4xODsiIHhtbDpzcGFjZT0icHJlc2VydmUiPiYjeGE7PHNvZGlwb2RpOm5hbWVkdmlldyBib3JkZXJjb2xvcj0iIzY2NjY2NiIgYm9yZGVyb3BhY2l0eT0iMSIgZml0LW1hcmdpbi1ib3R0b209IjAiIGZpdC1tYXJnaW4tbGVmdD0iMCIgZml0LW1hcmdpbi1yaWdodD0iMCIgZml0LW1hcmdpbi10b3A9IjAiIGdyaWR0b2xlcmFuY2U9IjEwIiBndWlkZXRvbGVyYW5jZT0iMTAiIGlkPSJuYW1lZHZpZXc2MDM2MiIgaW5rc2NhcGU6Y3VycmVudC1sYXllcj0ic3ZnNjAzNjAiIGlua3NjYXBlOmN4PSIzNC45MzUzMzQiIGlua3NjYXBlOmN5PSIxOC45MjAxNDMiIGlua3NjYXBlOnBhZ2VvcGFjaXR5PSIwIiBpbmtzY2FwZTpwYWdlc2hhZG93PSIyIiBpbmtzY2FwZTp3aW5kb3ctaGVpZ2h0PSIxMDE3IiBpbmtzY2FwZTp3aW5kb3ctbWF4aW1pemVkPSIxIiBpbmtzY2FwZTp3aW5kb3ctd2lkdGg9IjE5MjAiIGlua3NjYXBlOndpbmRvdy14PSItOCIgaW5rc2NhcGU6d2luZG93LXk9Ii04IiBpbmtzY2FwZTp6b29tPSIxMy45MTA3OTkiIG9iamVjdHRvbGVyYW5jZT0iMTAiIHBhZ2Vjb2xvcj0iI2ZmZmZmZiIgc2hvd2dyaWQ9ImZhbHNlIj4mI3hhOwk8L3NvZGlwb2RpOm5hbWVkdmlldz4mI3hhOzxnIGlkPSJnNjAzNTgiIHRyYW5zZm9ybT0idHJhbnNsYXRlKC0xOS4wMzU1MDksLTAuNzQ5OTk4MTQpIj4mI3hhOwk8dGl0bGUgaWQ9InRpdGxlNjAzMTQiPlBhZ2UtMTwvdGl0bGU+JiN4YTsJPGcgaWQ9Imdyb3VwNDMyMy0xIiB0cmFuc2Zvcm09InRyYW5zbGF0ZSgxOS4wMzU0LC0zNi4xNzU2KSI+JiN4YTsJCTx0aXRsZSBpZD0idGl0bGU2MDMxNiI+QXp1cmUgUG9ydGFsIC0gQ2xvdWQgc2VydmljZSAoY2xhc3NpYyk8L3RpdGxlPiYjeGE7CQk8ZyBpZD0ic2hhcGU0MzI0LTIiPiYjeGE7CQkJPHRpdGxlIGlkPSJ0aXRsZTYwMzE4Ij5TaGVldC40MzI0PC90aXRsZT4mI3hhOwkJCTxyZWN0IGlkPSJyZWN0NjAzMjAiIHg9IjAiIHk9IjM2LjkzIiBzdHlsZT0iZGlzcGxheTpub25lO2ZpbGw6IzU5NTk1OTsiIHdpZHRoPSIzNi4zNCIgaGVpZ2h0PSIyOS4xOCIvPiYjeGE7CQkJPHJlY3QgaWQ9InJlY3Q2MDMyMiIgeD0iMCIgeT0iMzYuOTMiIHN0eWxlPSJmaWxsOm5vbmU7IiB3aWR0aD0iMzYuMzQiIGhlaWdodD0iMjkuMTgiLz4mI3hhOwkJPC9nPiYjeGE7CQk8ZyBpZD0iZ3JvdXA0MzI1LTUiIHRyYW5zZm9ybT0idHJhbnNsYXRlKDQuMjcyNTYsLTMuNjE4OTMpIj4mI3hhOwkJCTx0aXRsZSBpZD0idGl0bGU2MDMyNSI+U2hlZXQuNDMyNTwvdGl0bGU+JiN4YTsJCQk8ZyBpZD0ic2hhcGU0MzI2LTYiIHRyYW5zZm9ybT0idHJhbnNsYXRlKDAsMS4xNjY2MykiPiYjeGE7CQkJCTx0aXRsZSBpZD0idGl0bGU2MDMyNyI+U2hlZXQuNDMyNjwvdGl0bGU+JiN4YTsJCQkJJiN4YTsJCQkJCTxwYXRoIGlkPSJwYXRoNjAzMjkiIGlua3NjYXBlOmNvbm5lY3Rvci1jdXJ2YXR1cmU9IjAiIHN0eWxlPSJmaWxsOiNGRkZGRkY7c3Ryb2tlOiNGRkZGRkY7c3Ryb2tlLXdpZHRoOjEuNTtzdHJva2UtbWl0ZXJsaW1pdDozOyIgZD0iICAgICAgTTI1LjQzLDUwLjU1bC0wLjU0LTAuMTdsMC4xNC0wLjU1YzAuMTQtMC41NSwwLjIyLTEuMSwwLjIyLTEuNjdjMC0zLjYxLTIuOTUtNi41NS02LjU3LTYuNTVjLTIuNjYsMC01LjA0LDEuNTctNi4wNiw0LjAyICAgICAgbC0wLjM5LDAuOWwtMC42MS0wLjc0Yy0wLjg3LTEuMDItMi4xLTEuNTgtMy40Mi0xLjU4Yy0yLjQ2LDAtNC40NywyLTQuNDcsNC40N2MwLDAuNDEsMC4wNiwwLjgyLDAuMTYsMS4yM2wwLjE2LDAuNTMgICAgICBsLTAuNTIsMC4xOUMxLjMyLDUxLjQ0LDAsNTMuMjMsMCw1NS40M2MwLDIuODgsMi4zNyw1LjEzLDUuMzgsNS4xM2gxLjM0Yy0wLjA0LDAtMC4wNywwLjUtMC4wNywwLjc0YzAsMi42NSwyLjE3LDQuODEsNC44LDQuODEgICAgICBjMS45MywwLDMuNjctMS4xNSw0LjQyLTIuOTNsMC4yOC0wLjY2bDAuNDYsMC41NGMwLjYzLDAuNzQsMS41NCwxLjE2LDIuNDgsMS4xNmMxLjgxLDAsMy4yOC0xLjQ5LDMuMjgtMy4yOSAgICAgIGMwLTAuMTMtMC4wMS0wLjM3LTAuMDMtMC4zN2gxLjQ3YzMuMDIsMCw1LjM3LTIuMjUsNS4zNy01LjEzQzI5LjE4LDUzLjE0LDI3Ljc1LDUxLjI4LDI1LjQzLDUwLjU1eiIvPiYjeGE7CQkJPC9nPiYjeGE7CQk8L2c+JiN4YTsJCTxnIGlkPSJncm91cDQzMjctOCIgdHJhbnNmb3JtPSJ0cmFuc2xhdGUoMjIuMzIxMywtMTYuMDUxOCkiPiYjeGE7CQkJPHRpdGxlIGlkPSJ0aXRsZTYwMzMzIj5TaGVldC40MzI3PC90aXRsZT4mI3hhOwkJCTxnIGlkPSJzaGFwZTQzMjgtOSI+JiN4YTsJCQkJPHRpdGxlIGlkPSJ0aXRsZTYwMzM1Ij5TaGVldC40MzI4PC90aXRsZT4mI3hhOwkJCQkmI3hhOwkJCQkJPGNpcmNsZSBpZD0iZWxsaXBzZTYwMzM3IiBzdHlsZT0iZmlsbDojQjhENDMyO3N0cm9rZTojNTlCNEQ5O3N0cm9rZS13aWR0aDowLjc1O3N0cm9rZS1taXRlcmxpbWl0OjM7IiBjeD0iMS42NSIgY3k9IjY0LjQ1IiByPSIxLjY1Ii8+JiN4YTsJCQk8L2c+JiN4YTsJCTwvZz4mI3hhOwkJPGcgaWQ9Imdyb3VwNDMyOS0xMSIgdHJhbnNmb3JtPSJ0cmFuc2xhdGUoMTMuNzA2MiwtMTAuNDQ3MSkiPiYjeGE7CQkJPHRpdGxlIGlkPSJ0aXRsZTYwMzQxIj5TaGVldC40MzI5PC90aXRsZT4mI3hhOwkJCTxnIGlkPSJzaGFwZTQzMzAtMTIiPiYjeGE7CQkJCTx0aXRsZSBpZD0idGl0bGU2MDM0MyI+U2hlZXQuNDMzMDwvdGl0bGU+JiN4YTsJCQkJJiN4YTsJCQkJCTxwYXRoIGlkPSJwYXRoNjAzNDUiIGlua3NjYXBlOmNvbm5lY3Rvci1jdXJ2YXR1cmU9IjAiIHN0eWxlPSJmaWxsOiNCOEQ0MzI7c3Ryb2tlOiM1OUI0RDk7c3Ryb2tlLXdpZHRoOjAuNzU7c3Ryb2tlLW1pdGVybGltaXQ6MzsiIGQ9IiAgICAgIE0xLjY2LDYyLjhDMC43NCw2Mi44LDAsNjMuNTQsMCw2NC40NmMwLDAuOTEsMC43NCwxLjY1LDEuNjYsMS42NWMwLjkxLDAsMS42NC0wLjczLDEuNjQtMS42NVMyLjU4LDYyLjgsMS42Niw2Mi44eiIvPiYjeGE7CQkJPC9nPiYjeGE7CQk8L2c+JiN4YTsJCTxnIGlkPSJncm91cDQzMzEtMTQiIHRyYW5zZm9ybT0idHJhbnNsYXRlKDIuMDA4MjcsLTAuMzYwMTk2KSI+JiN4YTsJCQk8dGl0bGUgaWQ9InRpdGxlNjAzNDkiPlNoZWV0LjQzMzE8L3RpdGxlPiYjeGE7CQkJPGcgaWQ9InNoYXBlNDMzMi0xNSI+JiN4YTsJCQkJPHRpdGxlIGlkPSJ0aXRsZTYwMzUxIj5TaGVldC40MzMyPC90aXRsZT4mI3hhOwkJCQk8cGF0aCBpZD0icGF0aDYwMzUzIiBpbmtzY2FwZTpjb25uZWN0b3ItY3VydmF0dXJlPSIwIiBzdHlsZT0iZmlsbDojNTlCNEQ5OyIgZD0iTTI3LjM0LDQ5LjMzbC0xLjUxLDAuNTFsLTAuMzksMC44MWwwLjU4LDEuMTkgICAgICBsMC4wNywwLjE3bC0wLjg0LDAuODJsLTEuMzctMC42NGwtMC44MiwwLjM0bC0wLjQyLDEuMjRsLTAuMDUsMC4xN0gyMS40bC0wLjUxLTEuNDNsLTAuOC0wLjMybC0xLjE4LDAuNmwtMC4xNywwLjA3bC0wLjgzLTAuODEgICAgICBsMC42NC0xLjM5bC0wLjM0LTAuODFsLTEuMDYtMC40MmwwLjA0LTAuMDVWNDguMmwxLjIyLTAuNTJsMC4yNC0wLjgxbC0wLjY2LTEuMThsLTAuMS0wLjE2bDAuODMtMC44NGwxLjM2LDAuNjZsMC44MS0wLjMzICAgICAgbDAuNDEtMS4xN2wwLjA2LTAuMDdoMS4xN2wwLjUyLDEuMzNsMC44MSwwLjI4bDEuMTktMC42M2wwLjE1LTAuMDhsMC44MywwLjgzbC0wLjYzLDEuMzZsMC4zMiwwLjgxbDEuMzUsMC40MWwwLjI3LDAuMDZWNDkuMzN6ICAgICAgIE04LjE2LDUzLjhsMS40My0wLjUxbDAuMzQtMC44MWwtMC42LTEuMTlsLTAuMDgtMC4xNmwwLjgzLTAuODNsMS4zOCwwLjY1bDAuODEtMC4zNGwwLjQxLTEuMTRsMC4wNi0wLjA1aDEuMTlsMC41LDEuMzEgICAgICBsMC44MSwwLjI4bDEuMTktMC42M2wwLjE2LTAuMWwwLjgzLDAuODNsLTAuNjUsMS4zNmwwLjM0LDAuODJsMS4xNSwwLjRsMC4wNSwwLjA3djEuMThsLTEuMywwLjUxbC0wLjI5LDAuODFsMC42NCwxLjE5ICAgICAgbDAuMDksMC4xNWwtMC44MywwLjg0bC0xLjM4LTAuNjVsLTAuOCwwLjM0bC0wLjQxLDEuMjdsLTAuMDcsMC4xOEgxMi44bC0wLjUzLTEuNDRsLTAuODEtMC4zNWwtMS4xOCwwLjZsLTAuMTYsMC4wOGwtMC44My0wLjg0ICAgICAgbDAuNjQtMS4zNkw5LjYsNTUuNDZsLTEuMjctMC40MmwtMC4xNy0wLjA2VjUzLjh6IE0yOS45MSw0Ny44MWwtMC42My0wLjIxbDAuMTctMC42NGMwLjE2LTAuNjUsMC4yNS0xLjMsMC4yNS0xLjk2ICAgICAgYzAtNC4yNi0zLjQ3LTcuNzEtNy43My03LjcxYy0zLjEzLDAtNS45MywxLjg1LTcuMTMsNC43M2wtMC40NSwxLjA1bC0wLjcyLTAuODdjLTEuMDItMS4xOS0yLjQ3LTEuODUtNC4wMi0xLjg1ICAgICAgYy0yLjksMC01LjI2LDIuMzUtNS4yNiw1LjI2YzAsMC40OCwwLjA3LDAuOTYsMC4xOSwxLjQ0bDAuMTgsMC42MmwtMC42LDAuMjNDMS41Niw0OC44NiwwLDUwLjk1LDAsNTMuNTUgICAgICBjMCwzLjM5LDIuNzksNi4wMyw2LjMzLDYuMDNoMS41OGMtMC4wNSwwLTAuMDgsMC41OS0wLjA4LDAuODhjMCwzLjExLDIuNTQsNS42NSw1LjY0LDUuNjVjMi4yNywwLDQuMzItMS4zNiw1LjItMy40NUwxOSw2MS44OSAgICAgIGwwLjU0LDAuNjNjMC43NCwwLjg3LDEuODEsMS4zNywyLjkyLDEuMzdjMi4xMiwwLDMuODUtMS43NSwzLjg1LTMuODdjMC0wLjE2LTAuMDEtMC40NC0wLjAzLTAuNDRoMS43MyAgICAgIGMzLjU1LDAsNi4zMi0yLjY0LDYuMzItNi4wM0MzNC4zMyw1MC44NSwzMi42NCw0OC42NiwyOS45MSw0Ny44MXoiLz4mI3hhOwkJCTwvZz4mI3hhOwkJPC9nPiYjeGE7CTwvZz4mI3hhOzwvZz4mI3hhOzwvc3ZnPg==;" vertex="1" parent="1">
          <mxGeometry x="640" y="150.5" width="61.45" height="49.5" as="geometry" />
        </mxCell>
        <mxCell id="6GieOjlcSy-mnPTfJjKJ-58" value="" style="edgeStyle=orthogonalEdgeStyle;rounded=0;orthogonalLoop=1;jettySize=auto;html=1;" edge="1" parent="1" source="6GieOjlcSy-mnPTfJjKJ-12" target="6GieOjlcSy-mnPTfJjKJ-41">
          <mxGeometry relative="1" as="geometry" />
        </mxCell>
        <mxCell id="6GieOjlcSy-mnPTfJjKJ-12" value="Domain Fetcher" style="text;html=1;align=center;verticalAlign=middle;resizable=0;points=[];autosize=1;strokeColor=none;fillColor=none;" vertex="1" parent="1">
          <mxGeometry x="615.72" y="210" width="110" height="30" as="geometry" />
        </mxCell>
        <mxCell id="6GieOjlcSy-mnPTfJjKJ-13" value="" style="edgeStyle=none;orthogonalLoop=1;jettySize=auto;html=1;rounded=0;" edge="1" parent="1" target="6GieOjlcSy-mnPTfJjKJ-11">
          <mxGeometry width="100" relative="1" as="geometry">
            <mxPoint x="520" y="170" as="sourcePoint" />
            <mxPoint x="590" y="180" as="targetPoint" />
            <Array as="points" />
          </mxGeometry>
        </mxCell>
        <mxCell id="6GieOjlcSy-mnPTfJjKJ-14" value="" style="shape=image;verticalLabelPosition=bottom;labelBackgroundColor=#ffffff;verticalAlign=top;aspect=fixed;imageAspect=0;image=data:image/svg+xml,PHN2ZyB4bWxuczpjYz0iaHR0cDovL2NyZWF0aXZlY29tbW9ucy5vcmcvbnMjIiB4bWxuczpkYz0iaHR0cDovL3B1cmwub3JnL2RjL2VsZW1lbnRzLzEuMS8iIHhtbG5zOmlua3NjYXBlPSJodHRwOi8vd3d3Lmlua3NjYXBlLm9yZy9uYW1lc3BhY2VzL2lua3NjYXBlIiB4bWxuczpyZGY9Imh0dHA6Ly93d3cudzMub3JnLzE5OTkvMDIvMjItcmRmLXN5bnRheC1ucyMiIHhtbG5zOnNvZGlwb2RpPSJodHRwOi8vc29kaXBvZGkuc291cmNlZm9yZ2UubmV0L0RURC9zb2RpcG9kaS0wLmR0ZCIgeG1sbnM6c3ZnPSJodHRwOi8vd3d3LnczLm9yZy8yMDAwL3N2ZyIgeG1sbnM9Imh0dHA6Ly93d3cudzMub3JnLzIwMDAvc3ZnIiB4bWxuczp4bGluaz0iaHR0cDovL3d3dy53My5vcmcvMTk5OS94bGluayIgdmVyc2lvbj0iMS4xIiBpZD0ic3ZnMTAxNjY1IiBpbmtzY2FwZTp2ZXJzaW9uPSIwLjkyLjMgKDI0MDU1NDYsIDIwMTgtMDMtMTEpIiBzb2RpcG9kaTpkb2NuYW1lPSJ2aXJ0dWFsX3dhbi5zdmciIHg9IjBweCIgeT0iMHB4IiB2aWV3Qm94PSIwIDAgMzUuODUgMzUuODYiIHN0eWxlPSJlbmFibGUtYmFja2dyb3VuZDpuZXcgMCAwIDM1Ljg1IDM1Ljg2OyIgeG1sOnNwYWNlPSJwcmVzZXJ2ZSI+JiN4YTs8c29kaXBvZGk6bmFtZWR2aWV3IGJvcmRlcmNvbG9yPSIjNjY2NjY2IiBib3JkZXJvcGFjaXR5PSIxIiBmaXQtbWFyZ2luLWJvdHRvbT0iMCIgZml0LW1hcmdpbi1sZWZ0PSIwIiBmaXQtbWFyZ2luLXJpZ2h0PSIwIiBmaXQtbWFyZ2luLXRvcD0iMCIgZ3JpZHRvbGVyYW5jZT0iMTAiIGd1aWRldG9sZXJhbmNlPSIxMCIgaWQ9Im5hbWVkdmlldzEwMTY2NyIgaW5rc2NhcGU6Y3VycmVudC1sYXllcj0ic3ZnMTAxNjY1IiBpbmtzY2FwZTpjeD0iNC44OTUzNjM0IiBpbmtzY2FwZTpjeT0iMTcuMTcwMDE4IiBpbmtzY2FwZTpwYWdlb3BhY2l0eT0iMCIgaW5rc2NhcGU6cGFnZXNoYWRvdz0iMiIgaW5rc2NhcGU6d2luZG93LWhlaWdodD0iMTAxNyIgaW5rc2NhcGU6d2luZG93LW1heGltaXplZD0iMSIgaW5rc2NhcGU6d2luZG93LXdpZHRoPSIxOTIwIiBpbmtzY2FwZTp3aW5kb3cteD0iLTgiIGlua3NjYXBlOndpbmRvdy15PSItOCIgaW5rc2NhcGU6em9vbT0iOC43MDQ4MTkxIiBvYmplY3R0b2xlcmFuY2U9IjEwIiBwYWdlY29sb3I9IiNmZmZmZmYiIHNob3dncmlkPSJmYWxzZSI+JiN4YTsJPC9zb2RpcG9kaTpuYW1lZHZpZXc+JiN4YTs8ZyBpZD0iZzEwMTY2MyIgdHJhbnNmb3JtPSJ0cmFuc2xhdGUoLTAuNzUsLTAuNzQ1KSI+JiN4YTsJPHRpdGxlIGlkPSJ0aXRsZTEwMTYwMiI+UGFnZS0xPC90aXRsZT4mI3hhOwk8ZyBpZD0iZ3JvdXA1OTM3LTEiIHRyYW5zZm9ybT0idHJhbnNsYXRlKDAuNzUsLTAuNzUpIj4mI3hhOwkJPHRpdGxlIGlkPSJ0aXRsZTEwMTYwNCI+VmlydHVhbCBXQU48L3RpdGxlPiYjeGE7CQk8ZyBpZD0ic2hhcGU1OTM4LTIiIHRyYW5zZm9ybT0idHJhbnNsYXRlKDAsLTEzLjQyNSkiPiYjeGE7CQkJPHRpdGxlIGlkPSJ0aXRsZTEwMTYwNiI+U2hlZXQuNTkzODwvdGl0bGU+JiN4YTsJCQk8cGF0aCBpZD0icGF0aDEwMTYwOCIgaW5rc2NhcGU6Y29ubmVjdG9yLWN1cnZhdHVyZT0iMCIgc3R5bGU9ImZpbGw6IzU5QjREOTsiIGQ9Ik0yOC44OCwyMy43Yy0wLjAxLDAtMC4wMiwwLTAuMDMsMCAgICAgYy0wLjI2LTQuODktNC4zNy04Ljc4LTkuNDMtOC43OGMtMy43LDAtNi44OSwyLjA4LTguNDUsNS4xMWMtMC42NC0wLjE1LTEuMzItMC4yMy0yLjAxLTAuMjNDNC4wMSwxOS44LDAsMjMuNzMsMCwyOC41NyAgICAgYzAsNC44NSw0LjAxLDguNzgsOC45Niw4Ljc4aDE5LjkyYzMuODUsMCw2Ljk3LTMuMDYsNi45Ny02LjgzQzM1Ljg1LDI2Ljc2LDMyLjczLDIzLjcsMjguODgsMjMuN3oiLz4mI3hhOwkJPC9nPiYjeGE7CQk8ZyBpZD0ic2hhcGU1OTM5LTQiIHRyYW5zZm9ybT0idHJhbnNsYXRlKDAsLTEzLjQyNSkiPiYjeGE7CQkJPHRpdGxlIGlkPSJ0aXRsZTEwMTYxMSI+U2hlZXQuNTkzOTwvdGl0bGU+JiN4YTsJCQk8cGF0aCBpZD0icGF0aDEwMTYxMyIgaW5rc2NhcGU6Y29ubmVjdG9yLWN1cnZhdHVyZT0iMCIgc3R5bGU9ImZpbGw6I0ZGRkZGRjtmaWxsLW9wYWNpdHk6MC4yOyIgZD0iTTI4Ljg4LDIzLjcgICAgIGMtMC4wMSwwLTAuMDIsMC0wLjAzLDBjLTAuMjYtNC44OS00LjM3LTguNzgtOS40My04Ljc4Yy0zLjcsMC02Ljg5LDIuMDgtOC40NSw1LjExYy0wLjY0LTAuMTUtMS4zMi0wLjIzLTIuMDEtMC4yMyAgICAgQzQuMDEsMTkuOCwwLDIzLjczLDAsMjguNTdjMCw0Ljg1LDQuMDEsOC43OCw4Ljk2LDguNzhoMTkuOTJjMy44NSwwLDYuOTctMy4wNiw2Ljk3LTYuODNDMzUuODUsMjYuNzYsMzIuNzMsMjMuNywyOC44OCwyMy43eiIvPiYjeGE7CQk8L2c+JiN4YTsJCTxnIGlkPSJncm91cDU5NDAtNiIgdHJhbnNmb3JtPSJ0cmFuc2xhdGUoNikiPiYjeGE7CQkJPHRpdGxlIGlkPSJ0aXRsZTEwMTYxNiI+U2hlZXQuNTk0MDwvdGl0bGU+JiN4YTsJCQk8ZyBpZD0iZ3JvdXA1OTQxLTciPiYjeGE7CQkJCTx0aXRsZSBpZD0idGl0bGUxMDE2MTgiPlNoZWV0LjU5NDE8L3RpdGxlPiYjeGE7CQkJCTxnIGlkPSJzaGFwZTU5NDItOCIgdHJhbnNmb3JtPSJ0cmFuc2xhdGUoMC41NjI1LC0wLjU2MjUpIj4mI3hhOwkJCQkJPHRpdGxlIGlkPSJ0aXRsZTEwMTYyMCI+U2hlZXQuNTk0MjwvdGl0bGU+JiN4YTsJCQkJCTxwYXRoIGlkPSJwYXRoMTAxNjIyIiBpbmtzY2FwZTpjb25uZWN0b3ItY3VydmF0dXJlPSIwIiBzdHlsZT0iZmlsbDojRkZGRkZGOyIgZD0iTTEyLjExLDM3LjM1QzUuNDMsMzcuMzUsMCwzMS45MiwwLDI1LjI0ICAgICAgIHM1LjQzLTEyLjEyLDEyLjExLTEyLjEyczEyLjEyLDUuNDQsMTIuMTIsMTIuMTJTMTguNzksMzcuMzUsMTIuMTEsMzcuMzV6Ii8+JiN4YTsJCQkJPC9nPiYjeGE7CQkJCTxnIGlkPSJzaGFwZTU5NDMtMTAiPiYjeGE7CQkJCQk8dGl0bGUgaWQ9InRpdGxlMTAxNjI1Ij5TaGVldC41OTQzPC90aXRsZT4mI3hhOwkJCQkJPHBhdGggaWQ9InBhdGgxMDE2MjciIGlua3NjYXBlOmNvbm5lY3Rvci1jdXJ2YXR1cmU9IjAiIHN0eWxlPSJmaWxsOiM4MDQ5OTg7IiBkPSJNMTIuNjgsMTMuMTJjNi4zNiwwLDExLjU1LDUuMTksMTEuNTUsMTEuNTUgICAgICAgYzAsNi4zNy01LjE5LDExLjU1LTExLjU1LDExLjU1Yy02LjM3LDAtMTEuNTUtNS4xOC0xMS41NS0xMS41NUMxLjEzLDE4LjMxLDYuMzEsMTMuMTIsMTIuNjgsMTMuMTJ6IE0xMi42OCwxMiAgICAgICBDNS42NywxMiwwLDE3LjY3LDAsMjQuNjdjMCw3LjAxLDUuNjcsMTIuNjgsMTIuNjgsMTIuNjhjNywwLDEyLjY3LTUuNjcsMTIuNjctMTIuNjhDMjUuMzUsMTcuNjcsMTkuNjgsMTIsMTIuNjgsMTJ6Ii8+JiN4YTsJCQkJPC9nPiYjeGE7CQkJPC9nPiYjeGE7CQkJPGcgaWQ9InNoYXBlNTk0NC0xMiIgdHJhbnNmb3JtPSJyb3RhdGUoLTcwLjAwMTIsLTUuNTYyMTk2NSwyMS40NjM2MzkpIj4mI3hhOwkJCQk8dGl0bGUgaWQ9InRpdGxlMTAxNjMxIj5TaGVldC41OTQ0PC90aXRsZT4mI3hhOwkJCQk8Y2lyY2xlIGlkPSJlbGxpcHNlMTAxNjMzIiBzdHlsZT0iZmlsbDojODA0OTk4OyIgY3g9IjIuMzkiIGN5PSIzNC45NiIgcj0iMi4zOSIvPiYjeGE7CQkJPC9nPiYjeGE7CQkJPGcgaWQ9InNoYXBlNTk0NS0xNCIgdHJhbnNmb3JtPSJyb3RhdGUoLTcwLjAwMTIsNC4zNTk2MzYsMTcuOTAyNjc0KSI+JiN4YTsJCQkJPHRpdGxlIGlkPSJ0aXRsZTEwMTYzNiI+U2hlZXQuNTk0NTwvdGl0bGU+JiN4YTsJCQkJPGNpcmNsZSBpZD0iZWxsaXBzZTEwMTYzOCIgc3R5bGU9ImZpbGw6IzgwNDk5ODsiIGN4PSIyLjM5IiBjeT0iMzQuOTYiIHI9IjIuMzkiLz4mI3hhOwkJCTwvZz4mI3hhOwkJCTxnIGlkPSJzaGFwZTU5NDYtMTYiIHRyYW5zZm9ybT0icm90YXRlKC03MC4wMDEyLDEuNTIwNzM0OCwyOC4zNTU1OTEpIj4mI3hhOwkJCQk8dGl0bGUgaWQ9InRpdGxlMTAxNjQxIj5TaGVldC41OTQ2PC90aXRsZT4mI3hhOwkJCQk8Y2lyY2xlIGlkPSJlbGxpcHNlMTAxNjQzIiBzdHlsZT0iZmlsbDojODA0OTk4OyIgY3g9IjIuMzkiIGN5PSIzNC45NiIgcj0iMi4zOSIvPiYjeGE7CQkJPC9nPiYjeGE7CQkJPGcgaWQ9InNoYXBlNTk0Ny0xOCIgdHJhbnNmb3JtPSJ0cmFuc2xhdGUoMC44MTk3NSwtMS43NjU1KSI+JiN4YTsJCQkJPHRpdGxlIGlkPSJ0aXRsZTEwMTY0NiI+U2hlZXQuNTk0NzwvdGl0bGU+JiN4YTsJCQkJPHBhdGggaWQ9InBhdGgxMDE2NDgiIGlua3NjYXBlOmNvbm5lY3Rvci1jdXJ2YXR1cmU9IjAiIHN0eWxlPSJmaWxsOiM4MDQ5OTg7IiBkPSJNNi40NSwxOS4wN2MtMS45NiwwLTMuODUsMC40LTUuNjQsMS4yMSAgICAgIEMwLjUsMjAuODQsMC4yMywyMS40MSwwLDIyLjAyYzEuOTUtMS4xNyw0LjE3LTEuNzksNi40NS0xLjc5YzYuOTYsMCwxMi42Miw1LjY3LDEyLjYyLDEyLjYzYzAsMS41Mi0wLjI3LDMuMDEtMC44MSw0LjQzICAgICAgbC0wLjAyLDAuMDZjMC41My0wLjMyLDEuMDQtMC42NywxLjUyLTEuMDZjMC4yOC0xLjEsMC40Ny0yLjI5LDAuNDctMy40M0MyMC4yMywyNS4yNSwxNC4wNSwxOS4wNyw2LjQ1LDE5LjA3eiIvPiYjeGE7CQkJPC9nPiYjeGE7CQkJPGcgaWQ9InNoYXBlNTk0OC0yMCIgdHJhbnNmb3JtPSJ0cmFuc2xhdGUoNi44NDE1LC0wLjAxNDI1KSI+JiN4YTsJCQkJPHRpdGxlIGlkPSJ0aXRsZTEwMTY1MSI+U2hlZXQuNTk0ODwvdGl0bGU+JiN4YTsJCQkJPHBhdGggaWQ9InBhdGgxMDE2NTMiIGlua3NjYXBlOmNvbm5lY3Rvci1jdXJ2YXR1cmU9IjAiIHN0eWxlPSJmaWxsOiM4MDQ5OTg7IiBkPSJNMTEuMjksMTMuMzhjLTAuNTktMC4yOC0xLjItMC41Mi0xLjg0LTAuNzIgICAgICBDMy43OSwxNC41NCwwLDE5Ljc2LDAsMjUuNzVjMCw0LjcyLDIuMzcsOS4wNSw2LjM0LDExLjZjMC42Ny0wLjAzLDEuMzItMC4xMSwxLjk2LTAuMjRsLTAuMDYtMC4wMyAgICAgIGMtNC4zNi0yLjE1LTcuMDctNi40OS03LjA3LTExLjMzQzEuMTcsMTkuNzUsNS40MiwxNC41NywxMS4yOSwxMy4zOHoiLz4mI3hhOwkJCTwvZz4mI3hhOwkJCTxnIGlkPSJzaGFwZTU5NDktMjIiIHRyYW5zZm9ybT0idHJhbnNsYXRlKDQuNTQ1LC0yLjE4NTUpIj4mI3hhOwkJCQk8dGl0bGUgaWQ9InRpdGxlMTAxNjU2Ij5TaGVldC41OTQ5PC90aXRsZT4mI3hhOwkJCQk8cGF0aCBpZD0icGF0aDEwMTY1OCIgaW5rc2NhcGU6Y29ubmVjdG9yLWN1cnZhdHVyZT0iMCIgc3R5bGU9ImZpbGw6IzgwNDk5ODsiIGQ9Ik0yMC4yNywzMC4xOGMwLjExLTAuNDEsMC4yLTAuODQsMC4yNy0xLjI4ICAgICAgYy0yLjE2LTEuMy00LjYyLTEuOTktNy4xNC0xLjk5Yy02LDAtMTEuMzgsMy44LTEzLjM5LDkuNjJMMCwzNi41NmwwLjAzLDAuMDNjMC4yNywwLjIzLDAuNTYsMC40NSwwLjg1LDAuNjcgICAgICBjMC4wNSwwLjAzLDAuMDksMC4wNiwwLjEzLDAuMDlsMC4wMi0wLjA3YzEuNzUtNS41Myw2LjcyLTkuMTQsMTIuMzctOS4xNEMxNS44NSwyOC4xNCwxOC4yLDI4Ljg1LDIwLjI3LDMwLjE4eiIvPiYjeGE7CQkJPC9nPiYjeGE7CQk8L2c+JiN4YTsJPC9nPiYjeGE7PC9nPiYjeGE7PC9zdmc+;" vertex="1" parent="1">
          <mxGeometry x="1020" y="27.25" width="36" height="36" as="geometry" />
        </mxCell>
        <mxCell id="6GieOjlcSy-mnPTfJjKJ-21" value="" style="shape=image;verticalLabelPosition=bottom;labelBackgroundColor=#ffffff;verticalAlign=top;aspect=fixed;imageAspect=0;image=data:image/svg+xml,PHN2ZyB4bWxuczpjYz0iaHR0cDovL2NyZWF0aXZlY29tbW9ucy5vcmcvbnMjIiB4bWxuczpkYz0iaHR0cDovL3B1cmwub3JnL2RjL2VsZW1lbnRzLzEuMS8iIHhtbG5zOmlua3NjYXBlPSJodHRwOi8vd3d3Lmlua3NjYXBlLm9yZy9uYW1lc3BhY2VzL2lua3NjYXBlIiB4bWxuczpyZGY9Imh0dHA6Ly93d3cudzMub3JnLzE5OTkvMDIvMjItcmRmLXN5bnRheC1ucyMiIHhtbG5zOnNvZGlwb2RpPSJodHRwOi8vc29kaXBvZGkuc291cmNlZm9yZ2UubmV0L0RURC9zb2RpcG9kaS0wLmR0ZCIgeG1sbnM6c3ZnPSJodHRwOi8vd3d3LnczLm9yZy8yMDAwL3N2ZyIgeG1sbnM9Imh0dHA6Ly93d3cudzMub3JnLzIwMDAvc3ZnIiB4bWxuczp4bGluaz0iaHR0cDovL3d3dy53My5vcmcvMTk5OS94bGluayIgdmVyc2lvbj0iMS4xIiBpZD0ic3ZnMTAxNjY1IiBpbmtzY2FwZTp2ZXJzaW9uPSIwLjkyLjMgKDI0MDU1NDYsIDIwMTgtMDMtMTEpIiBzb2RpcG9kaTpkb2NuYW1lPSJ2aXJ0dWFsX3dhbi5zdmciIHg9IjBweCIgeT0iMHB4IiB2aWV3Qm94PSIwIDAgMzUuODUgMzUuODYiIHN0eWxlPSJlbmFibGUtYmFja2dyb3VuZDpuZXcgMCAwIDM1Ljg1IDM1Ljg2OyIgeG1sOnNwYWNlPSJwcmVzZXJ2ZSI+JiN4YTs8c29kaXBvZGk6bmFtZWR2aWV3IGJvcmRlcmNvbG9yPSIjNjY2NjY2IiBib3JkZXJvcGFjaXR5PSIxIiBmaXQtbWFyZ2luLWJvdHRvbT0iMCIgZml0LW1hcmdpbi1sZWZ0PSIwIiBmaXQtbWFyZ2luLXJpZ2h0PSIwIiBmaXQtbWFyZ2luLXRvcD0iMCIgZ3JpZHRvbGVyYW5jZT0iMTAiIGd1aWRldG9sZXJhbmNlPSIxMCIgaWQ9Im5hbWVkdmlldzEwMTY2NyIgaW5rc2NhcGU6Y3VycmVudC1sYXllcj0ic3ZnMTAxNjY1IiBpbmtzY2FwZTpjeD0iNC44OTUzNjM0IiBpbmtzY2FwZTpjeT0iMTcuMTcwMDE4IiBpbmtzY2FwZTpwYWdlb3BhY2l0eT0iMCIgaW5rc2NhcGU6cGFnZXNoYWRvdz0iMiIgaW5rc2NhcGU6d2luZG93LWhlaWdodD0iMTAxNyIgaW5rc2NhcGU6d2luZG93LW1heGltaXplZD0iMSIgaW5rc2NhcGU6d2luZG93LXdpZHRoPSIxOTIwIiBpbmtzY2FwZTp3aW5kb3cteD0iLTgiIGlua3NjYXBlOndpbmRvdy15PSItOCIgaW5rc2NhcGU6em9vbT0iOC43MDQ4MTkxIiBvYmplY3R0b2xlcmFuY2U9IjEwIiBwYWdlY29sb3I9IiNmZmZmZmYiIHNob3dncmlkPSJmYWxzZSI+JiN4YTsJPC9zb2RpcG9kaTpuYW1lZHZpZXc+JiN4YTs8ZyBpZD0iZzEwMTY2MyIgdHJhbnNmb3JtPSJ0cmFuc2xhdGUoLTAuNzUsLTAuNzQ1KSI+JiN4YTsJPHRpdGxlIGlkPSJ0aXRsZTEwMTYwMiI+UGFnZS0xPC90aXRsZT4mI3hhOwk8ZyBpZD0iZ3JvdXA1OTM3LTEiIHRyYW5zZm9ybT0idHJhbnNsYXRlKDAuNzUsLTAuNzUpIj4mI3hhOwkJPHRpdGxlIGlkPSJ0aXRsZTEwMTYwNCI+VmlydHVhbCBXQU48L3RpdGxlPiYjeGE7CQk8ZyBpZD0ic2hhcGU1OTM4LTIiIHRyYW5zZm9ybT0idHJhbnNsYXRlKDAsLTEzLjQyNSkiPiYjeGE7CQkJPHRpdGxlIGlkPSJ0aXRsZTEwMTYwNiI+U2hlZXQuNTkzODwvdGl0bGU+JiN4YTsJCQk8cGF0aCBpZD0icGF0aDEwMTYwOCIgaW5rc2NhcGU6Y29ubmVjdG9yLWN1cnZhdHVyZT0iMCIgc3R5bGU9ImZpbGw6IzU5QjREOTsiIGQ9Ik0yOC44OCwyMy43Yy0wLjAxLDAtMC4wMiwwLTAuMDMsMCAgICAgYy0wLjI2LTQuODktNC4zNy04Ljc4LTkuNDMtOC43OGMtMy43LDAtNi44OSwyLjA4LTguNDUsNS4xMWMtMC42NC0wLjE1LTEuMzItMC4yMy0yLjAxLTAuMjNDNC4wMSwxOS44LDAsMjMuNzMsMCwyOC41NyAgICAgYzAsNC44NSw0LjAxLDguNzgsOC45Niw4Ljc4aDE5LjkyYzMuODUsMCw2Ljk3LTMuMDYsNi45Ny02LjgzQzM1Ljg1LDI2Ljc2LDMyLjczLDIzLjcsMjguODgsMjMuN3oiLz4mI3hhOwkJPC9nPiYjeGE7CQk8ZyBpZD0ic2hhcGU1OTM5LTQiIHRyYW5zZm9ybT0idHJhbnNsYXRlKDAsLTEzLjQyNSkiPiYjeGE7CQkJPHRpdGxlIGlkPSJ0aXRsZTEwMTYxMSI+U2hlZXQuNTkzOTwvdGl0bGU+JiN4YTsJCQk8cGF0aCBpZD0icGF0aDEwMTYxMyIgaW5rc2NhcGU6Y29ubmVjdG9yLWN1cnZhdHVyZT0iMCIgc3R5bGU9ImZpbGw6I0ZGRkZGRjtmaWxsLW9wYWNpdHk6MC4yOyIgZD0iTTI4Ljg4LDIzLjcgICAgIGMtMC4wMSwwLTAuMDIsMC0wLjAzLDBjLTAuMjYtNC44OS00LjM3LTguNzgtOS40My04Ljc4Yy0zLjcsMC02Ljg5LDIuMDgtOC40NSw1LjExYy0wLjY0LTAuMTUtMS4zMi0wLjIzLTIuMDEtMC4yMyAgICAgQzQuMDEsMTkuOCwwLDIzLjczLDAsMjguNTdjMCw0Ljg1LDQuMDEsOC43OCw4Ljk2LDguNzhoMTkuOTJjMy44NSwwLDYuOTctMy4wNiw2Ljk3LTYuODNDMzUuODUsMjYuNzYsMzIuNzMsMjMuNywyOC44OCwyMy43eiIvPiYjeGE7CQk8L2c+JiN4YTsJCTxnIGlkPSJncm91cDU5NDAtNiIgdHJhbnNmb3JtPSJ0cmFuc2xhdGUoNikiPiYjeGE7CQkJPHRpdGxlIGlkPSJ0aXRsZTEwMTYxNiI+U2hlZXQuNTk0MDwvdGl0bGU+JiN4YTsJCQk8ZyBpZD0iZ3JvdXA1OTQxLTciPiYjeGE7CQkJCTx0aXRsZSBpZD0idGl0bGUxMDE2MTgiPlNoZWV0LjU5NDE8L3RpdGxlPiYjeGE7CQkJCTxnIGlkPSJzaGFwZTU5NDItOCIgdHJhbnNmb3JtPSJ0cmFuc2xhdGUoMC41NjI1LC0wLjU2MjUpIj4mI3hhOwkJCQkJPHRpdGxlIGlkPSJ0aXRsZTEwMTYyMCI+U2hlZXQuNTk0MjwvdGl0bGU+JiN4YTsJCQkJCTxwYXRoIGlkPSJwYXRoMTAxNjIyIiBpbmtzY2FwZTpjb25uZWN0b3ItY3VydmF0dXJlPSIwIiBzdHlsZT0iZmlsbDojRkZGRkZGOyIgZD0iTTEyLjExLDM3LjM1QzUuNDMsMzcuMzUsMCwzMS45MiwwLDI1LjI0ICAgICAgIHM1LjQzLTEyLjEyLDEyLjExLTEyLjEyczEyLjEyLDUuNDQsMTIuMTIsMTIuMTJTMTguNzksMzcuMzUsMTIuMTEsMzcuMzV6Ii8+JiN4YTsJCQkJPC9nPiYjeGE7CQkJCTxnIGlkPSJzaGFwZTU5NDMtMTAiPiYjeGE7CQkJCQk8dGl0bGUgaWQ9InRpdGxlMTAxNjI1Ij5TaGVldC41OTQzPC90aXRsZT4mI3hhOwkJCQkJPHBhdGggaWQ9InBhdGgxMDE2MjciIGlua3NjYXBlOmNvbm5lY3Rvci1jdXJ2YXR1cmU9IjAiIHN0eWxlPSJmaWxsOiM4MDQ5OTg7IiBkPSJNMTIuNjgsMTMuMTJjNi4zNiwwLDExLjU1LDUuMTksMTEuNTUsMTEuNTUgICAgICAgYzAsNi4zNy01LjE5LDExLjU1LTExLjU1LDExLjU1Yy02LjM3LDAtMTEuNTUtNS4xOC0xMS41NS0xMS41NUMxLjEzLDE4LjMxLDYuMzEsMTMuMTIsMTIuNjgsMTMuMTJ6IE0xMi42OCwxMiAgICAgICBDNS42NywxMiwwLDE3LjY3LDAsMjQuNjdjMCw3LjAxLDUuNjcsMTIuNjgsMTIuNjgsMTIuNjhjNywwLDEyLjY3LTUuNjcsMTIuNjctMTIuNjhDMjUuMzUsMTcuNjcsMTkuNjgsMTIsMTIuNjgsMTJ6Ii8+JiN4YTsJCQkJPC9nPiYjeGE7CQkJPC9nPiYjeGE7CQkJPGcgaWQ9InNoYXBlNTk0NC0xMiIgdHJhbnNmb3JtPSJyb3RhdGUoLTcwLjAwMTIsLTUuNTYyMTk2NSwyMS40NjM2MzkpIj4mI3hhOwkJCQk8dGl0bGUgaWQ9InRpdGxlMTAxNjMxIj5TaGVldC41OTQ0PC90aXRsZT4mI3hhOwkJCQk8Y2lyY2xlIGlkPSJlbGxpcHNlMTAxNjMzIiBzdHlsZT0iZmlsbDojODA0OTk4OyIgY3g9IjIuMzkiIGN5PSIzNC45NiIgcj0iMi4zOSIvPiYjeGE7CQkJPC9nPiYjeGE7CQkJPGcgaWQ9InNoYXBlNTk0NS0xNCIgdHJhbnNmb3JtPSJyb3RhdGUoLTcwLjAwMTIsNC4zNTk2MzYsMTcuOTAyNjc0KSI+JiN4YTsJCQkJPHRpdGxlIGlkPSJ0aXRsZTEwMTYzNiI+U2hlZXQuNTk0NTwvdGl0bGU+JiN4YTsJCQkJPGNpcmNsZSBpZD0iZWxsaXBzZTEwMTYzOCIgc3R5bGU9ImZpbGw6IzgwNDk5ODsiIGN4PSIyLjM5IiBjeT0iMzQuOTYiIHI9IjIuMzkiLz4mI3hhOwkJCTwvZz4mI3hhOwkJCTxnIGlkPSJzaGFwZTU5NDYtMTYiIHRyYW5zZm9ybT0icm90YXRlKC03MC4wMDEyLDEuNTIwNzM0OCwyOC4zNTU1OTEpIj4mI3hhOwkJCQk8dGl0bGUgaWQ9InRpdGxlMTAxNjQxIj5TaGVldC41OTQ2PC90aXRsZT4mI3hhOwkJCQk8Y2lyY2xlIGlkPSJlbGxpcHNlMTAxNjQzIiBzdHlsZT0iZmlsbDojODA0OTk4OyIgY3g9IjIuMzkiIGN5PSIzNC45NiIgcj0iMi4zOSIvPiYjeGE7CQkJPC9nPiYjeGE7CQkJPGcgaWQ9InNoYXBlNTk0Ny0xOCIgdHJhbnNmb3JtPSJ0cmFuc2xhdGUoMC44MTk3NSwtMS43NjU1KSI+JiN4YTsJCQkJPHRpdGxlIGlkPSJ0aXRsZTEwMTY0NiI+U2hlZXQuNTk0NzwvdGl0bGU+JiN4YTsJCQkJPHBhdGggaWQ9InBhdGgxMDE2NDgiIGlua3NjYXBlOmNvbm5lY3Rvci1jdXJ2YXR1cmU9IjAiIHN0eWxlPSJmaWxsOiM4MDQ5OTg7IiBkPSJNNi40NSwxOS4wN2MtMS45NiwwLTMuODUsMC40LTUuNjQsMS4yMSAgICAgIEMwLjUsMjAuODQsMC4yMywyMS40MSwwLDIyLjAyYzEuOTUtMS4xNyw0LjE3LTEuNzksNi40NS0xLjc5YzYuOTYsMCwxMi42Miw1LjY3LDEyLjYyLDEyLjYzYzAsMS41Mi0wLjI3LDMuMDEtMC44MSw0LjQzICAgICAgbC0wLjAyLDAuMDZjMC41My0wLjMyLDEuMDQtMC42NywxLjUyLTEuMDZjMC4yOC0xLjEsMC40Ny0yLjI5LDAuNDctMy40M0MyMC4yMywyNS4yNSwxNC4wNSwxOS4wNyw2LjQ1LDE5LjA3eiIvPiYjeGE7CQkJPC9nPiYjeGE7CQkJPGcgaWQ9InNoYXBlNTk0OC0yMCIgdHJhbnNmb3JtPSJ0cmFuc2xhdGUoNi44NDE1LC0wLjAxNDI1KSI+JiN4YTsJCQkJPHRpdGxlIGlkPSJ0aXRsZTEwMTY1MSI+U2hlZXQuNTk0ODwvdGl0bGU+JiN4YTsJCQkJPHBhdGggaWQ9InBhdGgxMDE2NTMiIGlua3NjYXBlOmNvbm5lY3Rvci1jdXJ2YXR1cmU9IjAiIHN0eWxlPSJmaWxsOiM4MDQ5OTg7IiBkPSJNMTEuMjksMTMuMzhjLTAuNTktMC4yOC0xLjItMC41Mi0xLjg0LTAuNzIgICAgICBDMy43OSwxNC41NCwwLDE5Ljc2LDAsMjUuNzVjMCw0LjcyLDIuMzcsOS4wNSw2LjM0LDExLjZjMC42Ny0wLjAzLDEuMzItMC4xMSwxLjk2LTAuMjRsLTAuMDYtMC4wMyAgICAgIGMtNC4zNi0yLjE1LTcuMDctNi40OS03LjA3LTExLjMzQzEuMTcsMTkuNzUsNS40MiwxNC41NywxMS4yOSwxMy4zOHoiLz4mI3hhOwkJCTwvZz4mI3hhOwkJCTxnIGlkPSJzaGFwZTU5NDktMjIiIHRyYW5zZm9ybT0idHJhbnNsYXRlKDQuNTQ1LC0yLjE4NTUpIj4mI3hhOwkJCQk8dGl0bGUgaWQ9InRpdGxlMTAxNjU2Ij5TaGVldC41OTQ5PC90aXRsZT4mI3hhOwkJCQk8cGF0aCBpZD0icGF0aDEwMTY1OCIgaW5rc2NhcGU6Y29ubmVjdG9yLWN1cnZhdHVyZT0iMCIgc3R5bGU9ImZpbGw6IzgwNDk5ODsiIGQ9Ik0yMC4yNywzMC4xOGMwLjExLTAuNDEsMC4yLTAuODQsMC4yNy0xLjI4ICAgICAgYy0yLjE2LTEuMy00LjYyLTEuOTktNy4xNC0xLjk5Yy02LDAtMTEuMzgsMy44LTEzLjM5LDkuNjJMMCwzNi41NmwwLjAzLDAuMDNjMC4yNywwLjIzLDAuNTYsMC40NSwwLjg1LDAuNjcgICAgICBjMC4wNSwwLjAzLDAuMDksMC4wNiwwLjEzLDAuMDlsMC4wMi0wLjA3YzEuNzUtNS41Myw2LjcyLTkuMTQsMTIuMzctOS4xNEMxNS44NSwyOC4xNCwxOC4yLDI4Ljg1LDIwLjI3LDMwLjE4eiIvPiYjeGE7CQkJPC9nPiYjeGE7CQk8L2c+JiN4YTsJPC9nPiYjeGE7PC9nPiYjeGE7PC9zdmc+;" vertex="1" parent="1">
          <mxGeometry x="1020" y="67.25" width="36" height="36" as="geometry" />
        </mxCell>
        <mxCell id="6GieOjlcSy-mnPTfJjKJ-22" value="" style="shape=image;verticalLabelPosition=bottom;labelBackgroundColor=#ffffff;verticalAlign=top;aspect=fixed;imageAspect=0;image=data:image/svg+xml,PHN2ZyB4bWxuczpjYz0iaHR0cDovL2NyZWF0aXZlY29tbW9ucy5vcmcvbnMjIiB4bWxuczpkYz0iaHR0cDovL3B1cmwub3JnL2RjL2VsZW1lbnRzLzEuMS8iIHhtbG5zOmlua3NjYXBlPSJodHRwOi8vd3d3Lmlua3NjYXBlLm9yZy9uYW1lc3BhY2VzL2lua3NjYXBlIiB4bWxuczpyZGY9Imh0dHA6Ly93d3cudzMub3JnLzE5OTkvMDIvMjItcmRmLXN5bnRheC1ucyMiIHhtbG5zOnNvZGlwb2RpPSJodHRwOi8vc29kaXBvZGkuc291cmNlZm9yZ2UubmV0L0RURC9zb2RpcG9kaS0wLmR0ZCIgeG1sbnM6c3ZnPSJodHRwOi8vd3d3LnczLm9yZy8yMDAwL3N2ZyIgeG1sbnM9Imh0dHA6Ly93d3cudzMub3JnLzIwMDAvc3ZnIiB4bWxuczp4bGluaz0iaHR0cDovL3d3dy53My5vcmcvMTk5OS94bGluayIgdmVyc2lvbj0iMS4xIiBpZD0ic3ZnMTAxNjY1IiBpbmtzY2FwZTp2ZXJzaW9uPSIwLjkyLjMgKDI0MDU1NDYsIDIwMTgtMDMtMTEpIiBzb2RpcG9kaTpkb2NuYW1lPSJ2aXJ0dWFsX3dhbi5zdmciIHg9IjBweCIgeT0iMHB4IiB2aWV3Qm94PSIwIDAgMzUuODUgMzUuODYiIHN0eWxlPSJlbmFibGUtYmFja2dyb3VuZDpuZXcgMCAwIDM1Ljg1IDM1Ljg2OyIgeG1sOnNwYWNlPSJwcmVzZXJ2ZSI+JiN4YTs8c29kaXBvZGk6bmFtZWR2aWV3IGJvcmRlcmNvbG9yPSIjNjY2NjY2IiBib3JkZXJvcGFjaXR5PSIxIiBmaXQtbWFyZ2luLWJvdHRvbT0iMCIgZml0LW1hcmdpbi1sZWZ0PSIwIiBmaXQtbWFyZ2luLXJpZ2h0PSIwIiBmaXQtbWFyZ2luLXRvcD0iMCIgZ3JpZHRvbGVyYW5jZT0iMTAiIGd1aWRldG9sZXJhbmNlPSIxMCIgaWQ9Im5hbWVkdmlldzEwMTY2NyIgaW5rc2NhcGU6Y3VycmVudC1sYXllcj0ic3ZnMTAxNjY1IiBpbmtzY2FwZTpjeD0iNC44OTUzNjM0IiBpbmtzY2FwZTpjeT0iMTcuMTcwMDE4IiBpbmtzY2FwZTpwYWdlb3BhY2l0eT0iMCIgaW5rc2NhcGU6cGFnZXNoYWRvdz0iMiIgaW5rc2NhcGU6d2luZG93LWhlaWdodD0iMTAxNyIgaW5rc2NhcGU6d2luZG93LW1heGltaXplZD0iMSIgaW5rc2NhcGU6d2luZG93LXdpZHRoPSIxOTIwIiBpbmtzY2FwZTp3aW5kb3cteD0iLTgiIGlua3NjYXBlOndpbmRvdy15PSItOCIgaW5rc2NhcGU6em9vbT0iOC43MDQ4MTkxIiBvYmplY3R0b2xlcmFuY2U9IjEwIiBwYWdlY29sb3I9IiNmZmZmZmYiIHNob3dncmlkPSJmYWxzZSI+JiN4YTsJPC9zb2RpcG9kaTpuYW1lZHZpZXc+JiN4YTs8ZyBpZD0iZzEwMTY2MyIgdHJhbnNmb3JtPSJ0cmFuc2xhdGUoLTAuNzUsLTAuNzQ1KSI+JiN4YTsJPHRpdGxlIGlkPSJ0aXRsZTEwMTYwMiI+UGFnZS0xPC90aXRsZT4mI3hhOwk8ZyBpZD0iZ3JvdXA1OTM3LTEiIHRyYW5zZm9ybT0idHJhbnNsYXRlKDAuNzUsLTAuNzUpIj4mI3hhOwkJPHRpdGxlIGlkPSJ0aXRsZTEwMTYwNCI+VmlydHVhbCBXQU48L3RpdGxlPiYjeGE7CQk8ZyBpZD0ic2hhcGU1OTM4LTIiIHRyYW5zZm9ybT0idHJhbnNsYXRlKDAsLTEzLjQyNSkiPiYjeGE7CQkJPHRpdGxlIGlkPSJ0aXRsZTEwMTYwNiI+U2hlZXQuNTkzODwvdGl0bGU+JiN4YTsJCQk8cGF0aCBpZD0icGF0aDEwMTYwOCIgaW5rc2NhcGU6Y29ubmVjdG9yLWN1cnZhdHVyZT0iMCIgc3R5bGU9ImZpbGw6IzU5QjREOTsiIGQ9Ik0yOC44OCwyMy43Yy0wLjAxLDAtMC4wMiwwLTAuMDMsMCAgICAgYy0wLjI2LTQuODktNC4zNy04Ljc4LTkuNDMtOC43OGMtMy43LDAtNi44OSwyLjA4LTguNDUsNS4xMWMtMC42NC0wLjE1LTEuMzItMC4yMy0yLjAxLTAuMjNDNC4wMSwxOS44LDAsMjMuNzMsMCwyOC41NyAgICAgYzAsNC44NSw0LjAxLDguNzgsOC45Niw4Ljc4aDE5LjkyYzMuODUsMCw2Ljk3LTMuMDYsNi45Ny02LjgzQzM1Ljg1LDI2Ljc2LDMyLjczLDIzLjcsMjguODgsMjMuN3oiLz4mI3hhOwkJPC9nPiYjeGE7CQk8ZyBpZD0ic2hhcGU1OTM5LTQiIHRyYW5zZm9ybT0idHJhbnNsYXRlKDAsLTEzLjQyNSkiPiYjeGE7CQkJPHRpdGxlIGlkPSJ0aXRsZTEwMTYxMSI+U2hlZXQuNTkzOTwvdGl0bGU+JiN4YTsJCQk8cGF0aCBpZD0icGF0aDEwMTYxMyIgaW5rc2NhcGU6Y29ubmVjdG9yLWN1cnZhdHVyZT0iMCIgc3R5bGU9ImZpbGw6I0ZGRkZGRjtmaWxsLW9wYWNpdHk6MC4yOyIgZD0iTTI4Ljg4LDIzLjcgICAgIGMtMC4wMSwwLTAuMDIsMC0wLjAzLDBjLTAuMjYtNC44OS00LjM3LTguNzgtOS40My04Ljc4Yy0zLjcsMC02Ljg5LDIuMDgtOC40NSw1LjExYy0wLjY0LTAuMTUtMS4zMi0wLjIzLTIuMDEtMC4yMyAgICAgQzQuMDEsMTkuOCwwLDIzLjczLDAsMjguNTdjMCw0Ljg1LDQuMDEsOC43OCw4Ljk2LDguNzhoMTkuOTJjMy44NSwwLDYuOTctMy4wNiw2Ljk3LTYuODNDMzUuODUsMjYuNzYsMzIuNzMsMjMuNywyOC44OCwyMy43eiIvPiYjeGE7CQk8L2c+JiN4YTsJCTxnIGlkPSJncm91cDU5NDAtNiIgdHJhbnNmb3JtPSJ0cmFuc2xhdGUoNikiPiYjeGE7CQkJPHRpdGxlIGlkPSJ0aXRsZTEwMTYxNiI+U2hlZXQuNTk0MDwvdGl0bGU+JiN4YTsJCQk8ZyBpZD0iZ3JvdXA1OTQxLTciPiYjeGE7CQkJCTx0aXRsZSBpZD0idGl0bGUxMDE2MTgiPlNoZWV0LjU5NDE8L3RpdGxlPiYjeGE7CQkJCTxnIGlkPSJzaGFwZTU5NDItOCIgdHJhbnNmb3JtPSJ0cmFuc2xhdGUoMC41NjI1LC0wLjU2MjUpIj4mI3hhOwkJCQkJPHRpdGxlIGlkPSJ0aXRsZTEwMTYyMCI+U2hlZXQuNTk0MjwvdGl0bGU+JiN4YTsJCQkJCTxwYXRoIGlkPSJwYXRoMTAxNjIyIiBpbmtzY2FwZTpjb25uZWN0b3ItY3VydmF0dXJlPSIwIiBzdHlsZT0iZmlsbDojRkZGRkZGOyIgZD0iTTEyLjExLDM3LjM1QzUuNDMsMzcuMzUsMCwzMS45MiwwLDI1LjI0ICAgICAgIHM1LjQzLTEyLjEyLDEyLjExLTEyLjEyczEyLjEyLDUuNDQsMTIuMTIsMTIuMTJTMTguNzksMzcuMzUsMTIuMTEsMzcuMzV6Ii8+JiN4YTsJCQkJPC9nPiYjeGE7CQkJCTxnIGlkPSJzaGFwZTU5NDMtMTAiPiYjeGE7CQkJCQk8dGl0bGUgaWQ9InRpdGxlMTAxNjI1Ij5TaGVldC41OTQzPC90aXRsZT4mI3hhOwkJCQkJPHBhdGggaWQ9InBhdGgxMDE2MjciIGlua3NjYXBlOmNvbm5lY3Rvci1jdXJ2YXR1cmU9IjAiIHN0eWxlPSJmaWxsOiM4MDQ5OTg7IiBkPSJNMTIuNjgsMTMuMTJjNi4zNiwwLDExLjU1LDUuMTksMTEuNTUsMTEuNTUgICAgICAgYzAsNi4zNy01LjE5LDExLjU1LTExLjU1LDExLjU1Yy02LjM3LDAtMTEuNTUtNS4xOC0xMS41NS0xMS41NUMxLjEzLDE4LjMxLDYuMzEsMTMuMTIsMTIuNjgsMTMuMTJ6IE0xMi42OCwxMiAgICAgICBDNS42NywxMiwwLDE3LjY3LDAsMjQuNjdjMCw3LjAxLDUuNjcsMTIuNjgsMTIuNjgsMTIuNjhjNywwLDEyLjY3LTUuNjcsMTIuNjctMTIuNjhDMjUuMzUsMTcuNjcsMTkuNjgsMTIsMTIuNjgsMTJ6Ii8+JiN4YTsJCQkJPC9nPiYjeGE7CQkJPC9nPiYjeGE7CQkJPGcgaWQ9InNoYXBlNTk0NC0xMiIgdHJhbnNmb3JtPSJyb3RhdGUoLTcwLjAwMTIsLTUuNTYyMTk2NSwyMS40NjM2MzkpIj4mI3hhOwkJCQk8dGl0bGUgaWQ9InRpdGxlMTAxNjMxIj5TaGVldC41OTQ0PC90aXRsZT4mI3hhOwkJCQk8Y2lyY2xlIGlkPSJlbGxpcHNlMTAxNjMzIiBzdHlsZT0iZmlsbDojODA0OTk4OyIgY3g9IjIuMzkiIGN5PSIzNC45NiIgcj0iMi4zOSIvPiYjeGE7CQkJPC9nPiYjeGE7CQkJPGcgaWQ9InNoYXBlNTk0NS0xNCIgdHJhbnNmb3JtPSJyb3RhdGUoLTcwLjAwMTIsNC4zNTk2MzYsMTcuOTAyNjc0KSI+JiN4YTsJCQkJPHRpdGxlIGlkPSJ0aXRsZTEwMTYzNiI+U2hlZXQuNTk0NTwvdGl0bGU+JiN4YTsJCQkJPGNpcmNsZSBpZD0iZWxsaXBzZTEwMTYzOCIgc3R5bGU9ImZpbGw6IzgwNDk5ODsiIGN4PSIyLjM5IiBjeT0iMzQuOTYiIHI9IjIuMzkiLz4mI3hhOwkJCTwvZz4mI3hhOwkJCTxnIGlkPSJzaGFwZTU5NDYtMTYiIHRyYW5zZm9ybT0icm90YXRlKC03MC4wMDEyLDEuNTIwNzM0OCwyOC4zNTU1OTEpIj4mI3hhOwkJCQk8dGl0bGUgaWQ9InRpdGxlMTAxNjQxIj5TaGVldC41OTQ2PC90aXRsZT4mI3hhOwkJCQk8Y2lyY2xlIGlkPSJlbGxpcHNlMTAxNjQzIiBzdHlsZT0iZmlsbDojODA0OTk4OyIgY3g9IjIuMzkiIGN5PSIzNC45NiIgcj0iMi4zOSIvPiYjeGE7CQkJPC9nPiYjeGE7CQkJPGcgaWQ9InNoYXBlNTk0Ny0xOCIgdHJhbnNmb3JtPSJ0cmFuc2xhdGUoMC44MTk3NSwtMS43NjU1KSI+JiN4YTsJCQkJPHRpdGxlIGlkPSJ0aXRsZTEwMTY0NiI+U2hlZXQuNTk0NzwvdGl0bGU+JiN4YTsJCQkJPHBhdGggaWQ9InBhdGgxMDE2NDgiIGlua3NjYXBlOmNvbm5lY3Rvci1jdXJ2YXR1cmU9IjAiIHN0eWxlPSJmaWxsOiM4MDQ5OTg7IiBkPSJNNi40NSwxOS4wN2MtMS45NiwwLTMuODUsMC40LTUuNjQsMS4yMSAgICAgIEMwLjUsMjAuODQsMC4yMywyMS40MSwwLDIyLjAyYzEuOTUtMS4xNyw0LjE3LTEuNzksNi40NS0xLjc5YzYuOTYsMCwxMi42Miw1LjY3LDEyLjYyLDEyLjYzYzAsMS41Mi0wLjI3LDMuMDEtMC44MSw0LjQzICAgICAgbC0wLjAyLDAuMDZjMC41My0wLjMyLDEuMDQtMC42NywxLjUyLTEuMDZjMC4yOC0xLjEsMC40Ny0yLjI5LDAuNDctMy40M0MyMC4yMywyNS4yNSwxNC4wNSwxOS4wNyw2LjQ1LDE5LjA3eiIvPiYjeGE7CQkJPC9nPiYjeGE7CQkJPGcgaWQ9InNoYXBlNTk0OC0yMCIgdHJhbnNmb3JtPSJ0cmFuc2xhdGUoNi44NDE1LC0wLjAxNDI1KSI+JiN4YTsJCQkJPHRpdGxlIGlkPSJ0aXRsZTEwMTY1MSI+U2hlZXQuNTk0ODwvdGl0bGU+JiN4YTsJCQkJPHBhdGggaWQ9InBhdGgxMDE2NTMiIGlua3NjYXBlOmNvbm5lY3Rvci1jdXJ2YXR1cmU9IjAiIHN0eWxlPSJmaWxsOiM4MDQ5OTg7IiBkPSJNMTEuMjksMTMuMzhjLTAuNTktMC4yOC0xLjItMC41Mi0xLjg0LTAuNzIgICAgICBDMy43OSwxNC41NCwwLDE5Ljc2LDAsMjUuNzVjMCw0LjcyLDIuMzcsOS4wNSw2LjM0LDExLjZjMC42Ny0wLjAzLDEuMzItMC4xMSwxLjk2LTAuMjRsLTAuMDYtMC4wMyAgICAgIGMtNC4zNi0yLjE1LTcuMDctNi40OS03LjA3LTExLjMzQzEuMTcsMTkuNzUsNS40MiwxNC41NywxMS4yOSwxMy4zOHoiLz4mI3hhOwkJCTwvZz4mI3hhOwkJCTxnIGlkPSJzaGFwZTU5NDktMjIiIHRyYW5zZm9ybT0idHJhbnNsYXRlKDQuNTQ1LC0yLjE4NTUpIj4mI3hhOwkJCQk8dGl0bGUgaWQ9InRpdGxlMTAxNjU2Ij5TaGVldC41OTQ5PC90aXRsZT4mI3hhOwkJCQk8cGF0aCBpZD0icGF0aDEwMTY1OCIgaW5rc2NhcGU6Y29ubmVjdG9yLWN1cnZhdHVyZT0iMCIgc3R5bGU9ImZpbGw6IzgwNDk5ODsiIGQ9Ik0yMC4yNywzMC4xOGMwLjExLTAuNDEsMC4yLTAuODQsMC4yNy0xLjI4ICAgICAgYy0yLjE2LTEuMy00LjYyLTEuOTktNy4xNC0xLjk5Yy02LDAtMTEuMzgsMy44LTEzLjM5LDkuNjJMMCwzNi41NmwwLjAzLDAuMDNjMC4yNywwLjIzLDAuNTYsMC40NSwwLjg1LDAuNjcgICAgICBjMC4wNSwwLjAzLDAuMDksMC4wNiwwLjEzLDAuMDlsMC4wMi0wLjA3YzEuNzUtNS41Myw2LjcyLTkuMTQsMTIuMzctOS4xNEMxNS44NSwyOC4xNCwxOC4yLDI4Ljg1LDIwLjI3LDMwLjE4eiIvPiYjeGE7CQkJPC9nPiYjeGE7CQk8L2c+JiN4YTsJPC9nPiYjeGE7PC9nPiYjeGE7PC9zdmc+;" vertex="1" parent="1">
          <mxGeometry x="1020" y="139.25" width="36" height="36" as="geometry" />
        </mxCell>
        <mxCell id="6GieOjlcSy-mnPTfJjKJ-23" value="" style="edgeStyle=none;orthogonalLoop=1;jettySize=auto;html=1;rounded=0;entryX=0;entryY=0.5;entryDx=0;entryDy=0;" edge="1" parent="1" target="6GieOjlcSy-mnPTfJjKJ-14">
          <mxGeometry width="100" relative="1" as="geometry">
            <mxPoint x="700" y="160" as="sourcePoint" />
            <mxPoint x="800" y="160" as="targetPoint" />
            <Array as="points" />
          </mxGeometry>
        </mxCell>
        <mxCell id="6GieOjlcSy-mnPTfJjKJ-25" value="" style="edgeStyle=none;orthogonalLoop=1;jettySize=auto;html=1;rounded=0;entryX=0;entryY=0.75;entryDx=0;entryDy=0;" edge="1" parent="1" target="6GieOjlcSy-mnPTfJjKJ-21">
          <mxGeometry width="100" relative="1" as="geometry">
            <mxPoint x="720" y="180" as="sourcePoint" />
            <mxPoint x="1040" y="160" as="targetPoint" />
            <Array as="points" />
          </mxGeometry>
        </mxCell>
        <mxCell id="6GieOjlcSy-mnPTfJjKJ-26" value="" style="edgeStyle=none;orthogonalLoop=1;jettySize=auto;html=1;rounded=0;exitX=1;exitY=0.75;exitDx=0;exitDy=0;" edge="1" parent="1" source="6GieOjlcSy-mnPTfJjKJ-11">
          <mxGeometry width="100" relative="1" as="geometry">
            <mxPoint x="730" y="190" as="sourcePoint" />
            <mxPoint x="1010" y="160" as="targetPoint" />
            <Array as="points" />
          </mxGeometry>
        </mxCell>
        <mxCell id="6GieOjlcSy-mnPTfJjKJ-27" value="sitemap" style="text;html=1;align=center;verticalAlign=middle;resizable=0;points=[];autosize=1;strokeColor=none;fillColor=none;" vertex="1" parent="1">
          <mxGeometry x="815" y="108" width="70" height="30" as="geometry" />
        </mxCell>
        <mxCell id="6GieOjlcSy-mnPTfJjKJ-28" value="sitemap" style="text;html=1;align=center;verticalAlign=middle;resizable=0;points=[];autosize=1;strokeColor=none;fillColor=none;" vertex="1" parent="1">
          <mxGeometry x="900" y="92.5" width="70" height="30" as="geometry" />
        </mxCell>
        <mxCell id="6GieOjlcSy-mnPTfJjKJ-29" value="sitemap" style="text;html=1;align=center;verticalAlign=middle;resizable=0;points=[];autosize=1;strokeColor=none;fillColor=none;" vertex="1" parent="1">
          <mxGeometry x="905" y="138" width="70" height="30" as="geometry" />
        </mxCell>
        <mxCell id="6GieOjlcSy-mnPTfJjKJ-31" value="" style="shape=image;verticalLabelPosition=bottom;labelBackgroundColor=#ffffff;verticalAlign=top;aspect=fixed;imageAspect=0;image=data:image/svg+xml,PHN2ZyB4bWxuczpkYz0iaHR0cDovL3B1cmwub3JnL2RjL2VsZW1lbnRzLzEuMS8iIHhtbG5zOmNjPSJodHRwOi8vY3JlYXRpdmVjb21tb25zLm9yZy9ucyMiIHhtbG5zOnJkZj0iaHR0cDovL3d3dy53My5vcmcvMTk5OS8wMi8yMi1yZGYtc3ludGF4LW5zIyIgeG1sbnM6c3ZnPSJodHRwOi8vd3d3LnczLm9yZy8yMDAwL3N2ZyIgeG1sbnM9Imh0dHA6Ly93d3cudzMub3JnLzIwMDAvc3ZnIiB4bWxuczpzb2RpcG9kaT0iaHR0cDovL3NvZGlwb2RpLnNvdXJjZWZvcmdlLm5ldC9EVEQvc29kaXBvZGktMC5kdGQiIHhtbG5zOmlua3NjYXBlPSJodHRwOi8vd3d3Lmlua3NjYXBlLm9yZy9uYW1lc3BhY2VzL2lua3NjYXBlIiB2ZXJzaW9uPSIxLjEiIGlkPSJzdmc5ODUyMCIgaW5rc2NhcGU6dmVyc2lvbj0iMC45Mi4zICgyNDA1NTQ2LCAyMDE4LTAzLTExKSIgc29kaXBvZGk6ZG9jbmFtZT0ic3RyZWFtX2FuYWx5dGljcy5zdmciIHg9IjBweCIgeT0iMHB4IiB2aWV3Qm94PSIwIDAgMTIxLjYxIDk0LjM3MDA2OSIgeG1sOnNwYWNlPSJwcmVzZXJ2ZSIgd2lkdGg9IjEyMS42MSIgaGVpZ2h0PSI5NC4zNzAwNzEiPjxtZXRhZGF0YSBpZD0ibWV0YWRhdGEzMDk4Ij48cmRmOlJERj48Y2M6V29yayByZGY6YWJvdXQ9IiI+PGRjOmZvcm1hdD5pbWFnZS9zdmcreG1sPC9kYzpmb3JtYXQ+PGRjOnR5cGUgcmRmOnJlc291cmNlPSJodHRwOi8vcHVybC5vcmcvZGMvZGNtaXR5cGUvU3RpbGxJbWFnZSIvPjxkYzp0aXRsZS8+PC9jYzpXb3JrPjwvcmRmOlJERj48L21ldGFkYXRhPjxkZWZzIGlkPSJkZWZzMzA5NiI+JiN4YTsJJiN4YTsmI3hhOwkmI3hhOyYjeGE7CSYjeGE7JiN4YTsJJiN4YTsmI3hhOwkmI3hhOwkmI3hhOwkmI3hhOyYjeGE7CSYjeGE7CSYjeGE7CSYjeGE7JiN4YTsJCSYjeGE7CSYjeGE7CQkmI3hhOwkmI3hhOwkJJiN4YTsJJiN4YTsJCSYjeGE7CSYjeGE7CQkmI3hhOwkmI3hhOwkJJiN4YTsJJiN4YTsJCQkmI3hhOwkJJiN4YTsJCQkmI3hhOwkJPC9kZWZzPiYjeGE7PGZpbHRlciBpZD0iZmlsdGVyXzIiPiYjeGE7CTxmZUdhdXNzaWFuQmx1ciBpZD0iZmVHYXVzc2lhbkJsdXI5ODQ1OCIgc3RkRGV2aWF0aW9uPSIyIi8+JiN4YTs8L2ZpbHRlcj4mI3hhOzxzb2RpcG9kaTpuYW1lZHZpZXcgYm9yZGVyY29sb3I9IiM2NjY2NjYiIGJvcmRlcm9wYWNpdHk9IjEiIGZpdC1tYXJnaW4tYm90dG9tPSIwIiBmaXQtbWFyZ2luLWxlZnQ9IjAiIGZpdC1tYXJnaW4tcmlnaHQ9IjAiIGZpdC1tYXJnaW4tdG9wPSIwIiBncmlkdG9sZXJhbmNlPSIxMCIgZ3VpZGV0b2xlcmFuY2U9IjEwIiBpZD0ibmFtZWR2aWV3OTg1MjIiIGlua3NjYXBlOmN1cnJlbnQtbGF5ZXI9InN2Zzk4NTIwIiBpbmtzY2FwZTpjeD0iOC40ODMzMDc2IiBpbmtzY2FwZTpjeT0iMzkuNzI2NTgiIGlua3NjYXBlOnBhZ2VvcGFjaXR5PSIwIiBpbmtzY2FwZTpwYWdlc2hhZG93PSIyIiBpbmtzY2FwZTp3aW5kb3ctaGVpZ2h0PSIxMDE3IiBpbmtzY2FwZTp3aW5kb3ctbWF4aW1pemVkPSIxIiBpbmtzY2FwZTp3aW5kb3ctd2lkdGg9IjE5MjAiIGlua3NjYXBlOndpbmRvdy14PSItOCIgaW5rc2NhcGU6d2luZG93LXk9Ii04IiBpbmtzY2FwZTp6b29tPSIzLjg2ODgxNDEiIG9iamVjdHRvbGVyYW5jZT0iMTAiIHBhZ2Vjb2xvcj0iI2ZmZmZmZiIgc2hvd2dyaWQ9ImZhbHNlIj4mI3hhOwk8L3NvZGlwb2RpOm5hbWVkdmlldz4mI3hhOyYjeGE7PHBhdGggaWQ9InBhdGg5ODQ3MSIgaW5rc2NhcGU6Y29ubmVjdG9yLWN1cnZhdHVyZT0iMCIgc3R5bGU9ImZpbGw6IzdhN2E3YSIgZD0ibSAxMDUuMzEsNjMuOTYwMDc1IDIuOTIsLTcuNTMgMTMuMzgsLTQuNjMgdiAtMTAuNyBsIC0xLjQ2LC0wLjQ4IC0xMS45MiwtMy40MSAtMi45MiwtNy41NCA2LjA4LC0xMi40IC03LjU0LC03LjU0IC0xLjQ2LDAuNzMgLTEwLjk0LDUuNTkgLTcuNzgsLTMuMTYgLTQuODcsLTEyLjg5IEggNjcuODYgbCAtMC40OSwxLjQ2IC0zLjY1LDExLjQzIC03LjU0LDIuOTIgLTEyLjg5LC01LjYgLTcuNzgsNy41NCAwLjczLDEuNDYgMy40LDYuMzMgYyA2LjA4LC0zLjQxIDEyLjQxLC00Ljg3IDE5LjIyLC00Ljg3IDkuNDgsMC40OSAxOC4yNCwzLjg5IDI1LjA1LDEwLjIyIDEuNDYsMS4yMSAyLjkyLDIuMTkgNC42MiwzLjg5IDAuNzMsMC43MyAxLjQ2LDEuOTUgMS45NSwyLjY3IDQuNjIsOC4wMyAyLjY3LDE4LjI1IC00Ljg3LDI0LjMzIC01LjU5LDQuNjIgLTEzLjM3LDUuMzUgLTE5LjIxLDIuNjcgLTAuNzMsLTAuNDkgLTEuMjIsLTAuNDkgLTEuNDYsLTAuNzMgLTEuNDYsLTAuNzMgLTIuOTIsLTEuOTQgLTQuMTQsLTIuOTIgLTAuNDgsMCAtMC43MywtMC40OCAtMS40NiwtMC40OCAtMS40NSwwIC0yLjkxLDAuNzMgLTQuMTMsMS45NCBsIC0wLjQ5LDAuNDkgYyAtNC42Miw0LjYyIC05LjcyLDguMDIgLTE1LjU2LDkuNzMgbCAtMi4xOSw0LjYyIDcuMyw3LjI5IDAuNDgsMC40OSAxLjQ2LC0wLjczIDEwLjk1LC01LjU5IDcuNTQsMi45MiA0LjEzLDEyLjg5IGggMTAuOTQgbCAwLjQ5LC0xLjQ2IDMuODksLTExLjQzIDcuNTQsLTIuOTIgMTIuODksNS41OSA3LjMsLTguMDIgLTAuNzMsLTEuNDYgeiIvPiYjeGE7JiN4YTs8cGF0aCBpZD0icGF0aDk4NDc5IiBpbmtzY2FwZTpjb25uZWN0b3ItY3VydmF0dXJlPSIwIiBzdHlsZT0iZmlsbDojNDhjOGVmIiBkPSJtIDQwLjEzLDQ0Ljk5MDA3NSBjIC04LjI3LDguNzYgLTIxLjY0LDguNzYgLTI5LjQzLC0wLjQ4IC0wLjczLC0xLjIyIC0yLjY3LC0xLjIyIC0zLjQsMCAtMC40OSwwLjQ4IC0wLjczLDEuMjEgLTAuNzMsMS45NCAwLDAuNzMgMC40OSwxLjQ2IDAuNzMsMS45NSA5LjczLDEwLjk0IDI2LjAyLDExLjE5IDM2LjQ4LDAuNDkgOC4yNywtOC4yNyAyMS4xNiwtOC41MiAyOS4xOSwwLjcyIDEuMjEsMS4yMiAyLjY3LDEuMjIgMy40LDAgMC40OSwtMC40OCAwLjczLC0xLjIxIDAuNzMsLTEuOTQgMCwtMC43MyAtMC40OCwtMS40NiAtMC43MywtMS45NSAtOS43MywtMTAuOTQgLTI2LjAyLC0xMS4xOCAtMzYuMjQsLTAuNzMgeiIvPiYjeGE7JiN4YTs8cGF0aCBpZD0icGF0aDk4NDg3IiBpbmtzY2FwZTpjb25uZWN0b3ItY3VydmF0dXJlPSIwIiBzdHlsZT0iZmlsbDojMDBhYmVjIiBkPSJtIDU4LjM3LDQ5LjYyMDA3NSBjIC00LjYyLDAgLTguMjcsMS40NiAtMTEuNjcsNC44NiBsIC0wLjQ5LDAuNDkgLTAuNDksMC40OSBjIC01LjU5LDYuMDggLTEzLjM3LDkgLTIxLjE2LDguNzUgLTguMDIsMCAtMTUuMDcsLTMuODkgLTIwLjkxLC05LjczIC0xLjIyLC0xLjIxIC0yLjY4LC0xLjIxIC0zLjQxLDAgLTAuMjQsMCAtMC4yNCwwLjQ5IC0wLjI0LDEuMjIgMCwwLjczIDAuNzMsMS45NSAxLjIyLDIuMTkgNi4zMiw3LjMgMTUuMDgsMTEuNDMgMjQuMzIsMTEuNDMgOSwwLjQ5IDE3Ljc1LC0zLjQgMjQuNTYsLTEwLjcgbCAwLjQ5LC0wLjQ5IDAuNDgsLTAuNDggYyAyLjE5LC0yLjE5IDQuODcsLTMuNDEgOC4wMywtMy40MSAyLjkyLDAgNS41OSwxLjQ2IDguMDMsMy44OSAxLjIxLDEuMjIgMi42NywxLjIyIDMuNCwwIDAuNDksLTAuNDggMC43MywtMS4yMSAwLjczLC0xLjk0IDAsLTAuNzMgLTAuNDksLTEuNDYgLTAuNzMsLTEuOTUgLTMuNCwtMi42NyAtNy41NCwtNC42MiAtMTIuMTYsLTQuNjIgeiIvPiYjeGE7JiN4YTs8cGF0aCBpZD0icGF0aDk4NDk1IiBpbmtzY2FwZTpjb25uZWN0b3ItY3VydmF0dXJlPSIwIiBzdHlsZT0iZmlsbDojODRkNmVmIiBkPSJtIDM3Ljk0LDM5LjY0MDA3NSBjIDUuNTksLTYuMDggMTMuMzgsLTkgMjEuMTYsLTkgNy43OCwwIDE1LjA4LDMuODkgMjAuNDMsOS43MyAxLjIyLDEuMjIgMi42OCwxLjIyIDMuNDEsMCAwLjQ4LC0wLjQ5IDAuNzIsLTEuMjIgMC43MiwtMS45NSAwLC0wLjczIC0wLjQ4LC0xLjQ2IC0wLjcyLC0xLjk0IC02LjMzLC03LjMgLTE1LjA4LC0xMS40MyAtMjQuMzMsLTExLjQzIC05LjI0LDAgLTE3Ljc1LDMuNCAtMjQuNTYsMTAuNyBsIC0wLjQ5LDAuNDggLTAuNDgsMC40OSBjIC0yLjE5LDIuMTkgLTQuODcsMy40MSAtOC4wMywzLjQxIC0zLjE2LDAgLTUuNTksLTEuNDYgLTguMDMsLTMuOSAtMS4yMSwtMS4yMSAtMi42NywtMS4yMSAtMy40LDAgLTAuNDksMC40OSAtMC43MywxLjIyIC0wLjczLDEuOTUgMCwwLjczIDAuNDksMS40NiAwLjczLDEuOTUgMi45MiwzLjQgNy4zLDUuMzUgMTEuNDMsNS4zNSA0LjYyLDAgOC4yNywtMS40NiAxMS42NywtNC44NyBsIDAuNDksLTAuNDggeiIvPiYjeGE7JiN4YTs8cGF0aCBkPSJtIDM5Ljg4OTY2LDI1Ljc4IGMgNi4wOCwtMy40IDEyLjQsLTQuODYgMTkuMjEsLTQuODYgOS40OSwwLjQ4IDE4LjI0LDMuODkgMjUuMDUsMTAuMjEgMS4yMiwwLjk3IDIuMTksMS43IDMuNDEsMi42OCBsIDIwLjE4LC0yMC4xOSAtNC4xMywtNC4xMyAtMS40NiwwLjcyIC0xMC45NCw1LjYgLTcuNTQsLTIuOTIgLTQuODcsLTEyLjg5IGggLTEwLjk0IGwgLTAuNDksMS40NiAtMy42NSwxMS40MyAtNy41NCwyLjkyIC0xMi44OSwtNS42IC03Ljc4LDcuNTQgMC43MywxLjQ2IHoiIHN0eWxlPSJmaWxsOiNmMWYxZjE7ZmlsbC1vcGFjaXR5OjAuMiIgaW5rc2NhcGU6Y29ubmVjdG9yLWN1cnZhdHVyZT0iMCIgaWQ9InBhdGg5ODUxMyIvPiYjeGE7PC9zdmc+;" vertex="1" parent="1">
          <mxGeometry x="480" y="586" width="96.04" height="74" as="geometry" />
        </mxCell>
        <mxCell id="6GieOjlcSy-mnPTfJjKJ-37" value="" style="outlineConnect=0;dashed=0;verticalLabelPosition=bottom;verticalAlign=top;align=center;html=1;shape=mxgraph.aws3.dynamo_db;fillColor=#2E73B8;gradientColor=none;" vertex="1" parent="1">
          <mxGeometry x="610" y="308" width="50" height="42" as="geometry" />
        </mxCell>
        <mxCell id="6GieOjlcSy-mnPTfJjKJ-41" value="" style="outlineConnect=0;dashed=0;verticalLabelPosition=bottom;verticalAlign=top;align=center;html=1;shape=mxgraph.aws3.dynamo_db;fillColor=#2E73B8;gradientColor=none;" vertex="1" parent="1">
          <mxGeometry x="710" y="308" width="50" height="42" as="geometry" />
        </mxCell>
        <mxCell id="6GieOjlcSy-mnPTfJjKJ-42" value="" style="outlineConnect=0;dashed=0;verticalLabelPosition=bottom;verticalAlign=top;align=center;html=1;shape=mxgraph.aws3.dynamo_db;fillColor=#2E73B8;gradientColor=none;" vertex="1" parent="1">
          <mxGeometry x="810" y="308" width="50" height="42" as="geometry" />
        </mxCell>
        <mxCell id="6GieOjlcSy-mnPTfJjKJ-43" value="" style="outlineConnect=0;dashed=0;verticalLabelPosition=bottom;verticalAlign=top;align=center;html=1;shape=mxgraph.aws3.dynamo_db;fillColor=#2E73B8;gradientColor=none;" vertex="1" parent="1">
          <mxGeometry x="610" y="360" width="50" height="42" as="geometry" />
        </mxCell>
        <mxCell id="6GieOjlcSy-mnPTfJjKJ-44" value="" style="outlineConnect=0;dashed=0;verticalLabelPosition=bottom;verticalAlign=top;align=center;html=1;shape=mxgraph.aws3.dynamo_db;fillColor=#2E73B8;gradientColor=none;" vertex="1" parent="1">
          <mxGeometry x="610" y="413.5" width="50" height="42" as="geometry" />
        </mxCell>
        <mxCell id="6GieOjlcSy-mnPTfJjKJ-45" value="" style="outlineConnect=0;dashed=0;verticalLabelPosition=bottom;verticalAlign=top;align=center;html=1;shape=mxgraph.aws3.dynamo_db;fillColor=#2E73B8;gradientColor=none;" vertex="1" parent="1">
          <mxGeometry x="610" y="466" width="50" height="42" as="geometry" />
        </mxCell>
        <mxCell id="6GieOjlcSy-mnPTfJjKJ-46" value="" style="outlineConnect=0;dashed=0;verticalLabelPosition=bottom;verticalAlign=top;align=center;html=1;shape=mxgraph.aws3.dynamo_db;fillColor=#2E73B8;gradientColor=none;" vertex="1" parent="1">
          <mxGeometry x="710" y="368" width="50" height="42" as="geometry" />
        </mxCell>
        <mxCell id="6GieOjlcSy-mnPTfJjKJ-47" value="" style="outlineConnect=0;dashed=0;verticalLabelPosition=bottom;verticalAlign=top;align=center;html=1;shape=mxgraph.aws3.dynamo_db;fillColor=#2E73B8;gradientColor=none;" vertex="1" parent="1">
          <mxGeometry x="710" y="424" width="50" height="42" as="geometry" />
        </mxCell>
        <mxCell id="6GieOjlcSy-mnPTfJjKJ-48" value="" style="outlineConnect=0;dashed=0;verticalLabelPosition=bottom;verticalAlign=top;align=center;html=1;shape=mxgraph.aws3.dynamo_db;fillColor=#2E73B8;gradientColor=none;" vertex="1" parent="1">
          <mxGeometry x="815" y="368" width="50" height="42" as="geometry" />
        </mxCell>
        <mxCell id="6GieOjlcSy-mnPTfJjKJ-49" value="" style="outlineConnect=0;dashed=0;verticalLabelPosition=bottom;verticalAlign=top;align=center;html=1;shape=mxgraph.aws3.dynamo_db;fillColor=#2E73B8;gradientColor=none;" vertex="1" parent="1">
          <mxGeometry x="815" y="424" width="50" height="42" as="geometry" />
        </mxCell>
        <mxCell id="6GieOjlcSy-mnPTfJjKJ-50" value="" style="outlineConnect=0;dashed=0;verticalLabelPosition=bottom;verticalAlign=top;align=center;html=1;shape=mxgraph.aws3.dynamo_db;fillColor=#2E73B8;gradientColor=none;" vertex="1" parent="1">
          <mxGeometry x="815" y="480" width="50" height="42" as="geometry" />
        </mxCell>
        <mxCell id="6GieOjlcSy-mnPTfJjKJ-51" value="" style="outlineConnect=0;dashed=0;verticalLabelPosition=bottom;verticalAlign=top;align=center;html=1;shape=mxgraph.aws3.dynamo_db;fillColor=#2E73B8;gradientColor=none;" vertex="1" parent="1">
          <mxGeometry x="905" y="308" width="50" height="42" as="geometry" />
        </mxCell>
        <mxCell id="6GieOjlcSy-mnPTfJjKJ-52" value="" style="outlineConnect=0;dashed=0;verticalLabelPosition=bottom;verticalAlign=top;align=center;html=1;shape=mxgraph.aws3.dynamo_db;fillColor=#2E73B8;gradientColor=none;" vertex="1" parent="1">
          <mxGeometry x="905" y="368" width="50" height="42" as="geometry" />
        </mxCell>
        <mxCell id="6GieOjlcSy-mnPTfJjKJ-54" value="Tier0" style="text;html=1;align=center;verticalAlign=middle;resizable=0;points=[];autosize=1;strokeColor=none;fillColor=none;" vertex="1" parent="1">
          <mxGeometry x="605" y="508" width="50" height="30" as="geometry" />
        </mxCell>
        <mxCell id="6GieOjlcSy-mnPTfJjKJ-55" value="Tier1" style="text;html=1;align=center;verticalAlign=middle;resizable=0;points=[];autosize=1;strokeColor=none;fillColor=none;" vertex="1" parent="1">
          <mxGeometry x="715" y="468" width="50" height="30" as="geometry" />
        </mxCell>
        <mxCell id="6GieOjlcSy-mnPTfJjKJ-56" value="Tier2" style="text;html=1;align=center;verticalAlign=middle;resizable=0;points=[];autosize=1;strokeColor=none;fillColor=none;" vertex="1" parent="1">
          <mxGeometry x="815" y="518" width="50" height="30" as="geometry" />
        </mxCell>
        <mxCell id="6GieOjlcSy-mnPTfJjKJ-57" value="Fresh" style="text;html=1;align=center;verticalAlign=middle;resizable=0;points=[];autosize=1;strokeColor=none;fillColor=none;" vertex="1" parent="1">
          <mxGeometry x="905" y="408" width="50" height="30" as="geometry" />
        </mxCell>
        <mxCell id="6GieOjlcSy-mnPTfJjKJ-59" value="" style="edgeStyle=orthogonalEdgeStyle;rounded=0;orthogonalLoop=1;jettySize=auto;html=1;" edge="1" parent="1" source="6GieOjlcSy-mnPTfJjKJ-12" target="6GieOjlcSy-mnPTfJjKJ-42">
          <mxGeometry relative="1" as="geometry">
            <mxPoint x="681" y="250" as="sourcePoint" />
            <mxPoint x="745" y="318" as="targetPoint" />
          </mxGeometry>
        </mxCell>
        <mxCell id="6GieOjlcSy-mnPTfJjKJ-60" value="" style="edgeStyle=orthogonalEdgeStyle;rounded=0;orthogonalLoop=1;jettySize=auto;html=1;fontStyle=1" edge="1" parent="1" source="6GieOjlcSy-mnPTfJjKJ-12">
          <mxGeometry relative="1" as="geometry">
            <mxPoint x="691" y="260" as="sourcePoint" />
            <mxPoint x="630" y="300" as="targetPoint" />
          </mxGeometry>
        </mxCell>
        <mxCell id="6GieOjlcSy-mnPTfJjKJ-61" value="" style="edgeStyle=orthogonalEdgeStyle;rounded=0;orthogonalLoop=1;jettySize=auto;html=1;" edge="1" parent="1">
          <mxGeometry relative="1" as="geometry">
            <mxPoint x="730" y="225" as="sourcePoint" />
            <mxPoint x="920" y="300" as="targetPoint" />
          </mxGeometry>
        </mxCell>
        <mxCell id="6GieOjlcSy-mnPTfJjKJ-64" value="" style="shape=image;verticalLabelPosition=bottom;labelBackgroundColor=#ffffff;verticalAlign=top;aspect=fixed;imageAspect=0;image=data:image/svg+xml,PHN2ZyB4bWxuczpkYz0iaHR0cDovL3B1cmwub3JnL2RjL2VsZW1lbnRzLzEuMS8iIHhtbG5zOmNjPSJodHRwOi8vY3JlYXRpdmVjb21tb25zLm9yZy9ucyMiIHhtbG5zOnJkZj0iaHR0cDovL3d3dy53My5vcmcvMTk5OS8wMi8yMi1yZGYtc3ludGF4LW5zIyIgeG1sbnM6c3ZnPSJodHRwOi8vd3d3LnczLm9yZy8yMDAwL3N2ZyIgeG1sbnM9Imh0dHA6Ly93d3cudzMub3JnLzIwMDAvc3ZnIiB4bWxuczpzb2RpcG9kaT0iaHR0cDovL3NvZGlwb2RpLnNvdXJjZWZvcmdlLm5ldC9EVEQvc29kaXBvZGktMC5kdGQiIHhtbG5zOmlua3NjYXBlPSJodHRwOi8vd3d3Lmlua3NjYXBlLm9yZy9uYW1lc3BhY2VzL2lua3NjYXBlIiB2ZXJzaW9uPSIxLjEiIGlkPSJzdmc2NjA5NiIgaW5rc2NhcGU6dmVyc2lvbj0iMC45Mi4zICgyNDA1NTQ2LCAyMDE4LTAzLTExKSIgc29kaXBvZGk6ZG9jbmFtZT0iYXp1cmVfdm1fc2NhbGVfc2V0LnN2ZyIgeD0iMHB4IiB5PSIwcHgiIHZpZXdCb3g9IjAgMCAzNy41IDM3LjUiIHhtbDpzcGFjZT0icHJlc2VydmUiIHdpZHRoPSIzNy41IiBoZWlnaHQ9IjM3LjUiPjxtZXRhZGF0YSBpZD0ibWV0YWRhdGEyMDk1NyI+PHJkZjpSREY+PGNjOldvcmsgcmRmOmFib3V0PSIiPjxkYzpmb3JtYXQ+aW1hZ2Uvc3ZnK3htbDwvZGM6Zm9ybWF0PjxkYzp0eXBlIHJkZjpyZXNvdXJjZT0iaHR0cDovL3B1cmwub3JnL2RjL2RjbWl0eXBlL1N0aWxsSW1hZ2UiLz48ZGM6dGl0bGUvPjwvY2M6V29yaz48L3JkZjpSREY+PC9tZXRhZGF0YT48ZGVmcyBpZD0iZGVmczIwOTU1Ii8+JiN4YTs8ZmlsdGVyIGlkPSJmaWx0ZXJfMiI+JiN4YTsJPGZlR2F1c3NpYW5CbHVyIGlkPSJmZUdhdXNzaWFuQmx1cjY1OTMzIiBzdGREZXZpYXRpb249IjIiLz4mI3hhOzwvZmlsdGVyPiYjeGE7PHNvZGlwb2RpOm5hbWVkdmlldyBib3JkZXJjb2xvcj0iIzY2NjY2NiIgYm9yZGVyb3BhY2l0eT0iMSIgZml0LW1hcmdpbi1ib3R0b209IjAiIGZpdC1tYXJnaW4tbGVmdD0iMCIgZml0LW1hcmdpbi1yaWdodD0iMCIgZml0LW1hcmdpbi10b3A9IjAiIGdyaWR0b2xlcmFuY2U9IjEwIiBndWlkZXRvbGVyYW5jZT0iMTAiIGlkPSJuYW1lZHZpZXc2NjA5OCIgaW5rc2NhcGU6Y3VycmVudC1sYXllcj0ic3ZnNjYwOTYiIGlua3NjYXBlOmN4PSItNS43MTM2Mjk5IiBpbmtzY2FwZTpjeT0iOC42NTU1MTUzIiBpbmtzY2FwZTpwYWdlb3BhY2l0eT0iMCIgaW5rc2NhcGU6cGFnZXNoYWRvdz0iMiIgaW5rc2NhcGU6d2luZG93LWhlaWdodD0iMTAxNyIgaW5rc2NhcGU6d2luZG93LW1heGltaXplZD0iMSIgaW5rc2NhcGU6d2luZG93LXdpZHRoPSIxOTIwIiBpbmtzY2FwZTp3aW5kb3cteD0iLTgiIGlua3NjYXBlOndpbmRvdy15PSItOCIgaW5rc2NhcGU6em9vbT0iMTAuNTcwMDIyIiBvYmplY3R0b2xlcmFuY2U9IjEwIiBwYWdlY29sb3I9IiNmZmZmZmYiIHNob3dncmlkPSJmYWxzZSI+JiN4YTsJPC9zb2RpcG9kaTpuYW1lZHZpZXc+JiN4YTsmI3hhOzxwYXRoIGlkPSJwYXRoNjU5NDYiIGlua3NjYXBlOmNvbm5lY3Rvci1jdXJ2YXR1cmU9IjAiIHN0eWxlPSJmaWxsOiNhMGExYTIiIGQ9Ik0gMjYuNzksMCBIIDEuNTUgQyAwLjY5LDAgMCwwLjc3IDAsMS42MiBWIDE5LjIgYyAwLDAuODUgMC42OSwxLjYxIDEuNTUsMS42MSBoIDI1LjI0IGMgMC44NiwwIDEuNzIsLTAuNzYgMS43MiwtMS42MSBWIDEuNjIgQyAyOC41MSwwLjc2IDI3LjY1LDAgMjYuNzksMCBaIi8+JiN4YTsmI3hhOzxwYXRoIGlkPSJwYXRoNjU5NTQiIGlua3NjYXBlOmNvbm5lY3Rvci1jdXJ2YXR1cmU9IjAiIHN0eWxlPSJmaWxsOiNmZmZmZmY7ZmlsbC1vcGFjaXR5OjAuMiIgZD0iTSAyNi44MSwwIEMgMjYuOCwwIDI2LjgsMCAyNi43OSwwIEggMS41NSBDIDAuNjksMCAwLDAuNzcgMCwxLjYyIFYgMTkuMiBjIDAsMC44NSAwLjY5LDEuNjEgMS41NSwxLjYxIGggMC42IHoiLz4mI3hhOyYjeGE7PHBhdGggaWQ9InBhdGg2NTk2MiIgaW5rc2NhcGU6Y29ubmVjdG9yLWN1cnZhdHVyZT0iMCIgc3R5bGU9ImZpbGw6IzU5YjRkOSIgZD0iTSAyNi4zNSwxOC42MiBIIDIuMTYgViAyLjE5IEwgMjYuMzUsMi4xNiBaIi8+JiN4YTsmI3hhOzxwYXRoIGlkPSJwYXRoNjU5NzAiIGlua3NjYXBlOmNvbm5lY3Rvci1jdXJ2YXR1cmU9IjAiIHN0eWxlPSJmaWxsOiNiOGQ0MzIiIGQ9Im0gMTQuNTUsMS4yIGMgMCwwLjIyIC0wLjE4LDAuNCAtMC40MSwwLjQgLTAuMjIsMCAtMC40LC0wLjE4IC0wLjQsLTAuNCAwLC0wLjIzIDAuMTgsLTAuNDEgMC40LC0wLjQxIDAuMjMsMCAwLjQxLDAuMTggMC40MSwwLjQxIHoiLz4mI3hhOyYjeGE7PHBhdGggaWQ9InBhdGg2NTk3OCIgaW5rc2NhcGU6Y29ubmVjdG9yLWN1cnZhdHVyZT0iMCIgc3R5bGU9ImZpbGw6I2ZmZmZmZiIgZD0iTSAxNC41Nyw5LjkxIEMgMTQuNTUsOS45MSAxNC41Miw5LjkgMTQuNSw5Ljg5IEwgOS40Nyw2Ljk5IEMgOS40Myw2Ljk3IDkuNCw2LjkyIDkuNCw2Ljg2IDkuNCw2LjgxIDkuNDMsNi43NiA5LjQ3LDYuNzMgbCA1LC0yLjg3IGMgMC4wNCwtMC4wMyAwLjEsLTAuMDMgMC4xNSwwIGwgNS4wMiwyLjg5IGMgMC4wNCwwLjAzIDAuMDcsMC4wOCAwLjA3LDAuMTMgMCwwLjA2IC0wLjAyLDAuMTEgLTAuMDcsMC4xMyBMIDE0LjY1LDkuODkgQyAxNC42Myw5LjkgMTQuNiw5LjkxIDE0LjU3LDkuOTEgWiIvPiYjeGE7JiN4YTs8cGF0aCBpZD0icGF0aDY1OTg2IiBpbmtzY2FwZTpjb25uZWN0b3ItY3VydmF0dXJlPSIwIiBzdHlsZT0iZmlsbDojYTBhMWEyIiBkPSJNIDMxLjI1LDUuNTkgSCA2LjAxIGMgLTAuODYsMCAtMS41NSwwLjc3IC0xLjU1LDEuNjIgdiAxNy41OCBjIDAsMC44NSAwLjY5LDEuNjEgMS41NSwxLjYxIGggMjUuMjQgYyAwLjg2LDAgMS43MiwtMC43NiAxLjcyLC0xLjYxIFYgNy4yMSBjIDAsLTAuODYgLTAuODYsLTEuNjIgLTEuNzIsLTEuNjIgeiIvPiYjeGE7JiN4YTs8cGF0aCBpZD0icGF0aDY1OTk0IiBpbmtzY2FwZTpjb25uZWN0b3ItY3VydmF0dXJlPSIwIiBzdHlsZT0iZmlsbDojZmZmZmZmO2ZpbGwtb3BhY2l0eTowLjIiIGQ9Im0gMzEuMjcsNS41OSBjIC0wLjAxLDAgLTAuMDEsMCAtMC4wMiwwIEggNi4wMSBjIC0wLjg2LDAgLTEuNTUsMC43NyAtMS41NSwxLjYyIHYgMTcuNTggYyAwLDAuODUgMC42OSwxLjYxIDEuNTUsMS42MSBoIDAuNiB6Ii8+JiN4YTsmI3hhOzxwYXRoIGlkPSJwYXRoNjYwMDIiIGlua3NjYXBlOmNvbm5lY3Rvci1jdXJ2YXR1cmU9IjAiIHN0eWxlPSJmaWxsOiM1OWI0ZDkiIGQ9Ik0gMzAuODEsMjQuMjEgSCA2LjYyIFYgNy43OCBMIDMwLjgxLDcuNzUgYyAwLDAgMCwxNi40NiAwLDE2LjQ2IHoiLz4mI3hhOyYjeGE7PHBhdGggaWQ9InBhdGg2NjAxMCIgaW5rc2NhcGU6Y29ubmVjdG9yLWN1cnZhdHVyZT0iMCIgc3R5bGU9ImZpbGw6I2I4ZDQzMiIgZD0ibSAxOS4wMSw2Ljc5IGMgMCwwLjIyIC0wLjE4LDAuNCAtMC40MSwwLjQgLTAuMjIsMCAtMC40LC0wLjE4IC0wLjQsLTAuNCAwLC0wLjIzIDAuMTgsLTAuNDEgMC40LC0wLjQxIDAuMjMsMCAwLjQxLDAuMTggMC40MSwwLjQxIHoiLz4mI3hhOyYjeGE7PHBhdGggaWQ9InBhdGg2NjAxOCIgaW5rc2NhcGU6Y29ubmVjdG9yLWN1cnZhdHVyZT0iMCIgc3R5bGU9ImZpbGw6I2ZmZmZmZiIgZD0ibSAxOS4wMywxNS41IGMgLTAuMDIsMCAtMC4wNSwtMC4wMSAtMC4wNywtMC4wMiBsIC01LjAzLC0yLjkgYyAtMC4wNCwtMC4wMiAtMC4wNywtMC4wNyAtMC4wNywtMC4xMyAwLC0wLjA1IDAuMDMsLTAuMSAwLjA3LC0wLjEzIGwgNSwtMi44NyBjIDAuMDQsLTAuMDMgMC4xLC0wLjAzIDAuMTUsMCBsIDUuMDIsMi44OSBjIDAuMDQsMC4wMyAwLjA3LDAuMDggMC4wNywwLjEzIDAsMC4wNiAtMC4wMiwwLjExIC0wLjA3LDAuMTMgbCAtNC45OSwyLjg4IGMgLTAuMDMsMC4wMSAtMC4wNSwwLjAyIC0wLjA4LDAuMDIgeiIvPiYjeGE7JiN4YTs8cGF0aCBpZD0icGF0aDY2MDI2IiBpbmtzY2FwZTpjb25uZWN0b3ItY3VydmF0dXJlPSIwIiBzdHlsZT0iZmlsbDojN2E3YTdhIiBkPSJNIDI3LjQ4LDMyLjAyIEggMjYuOCAyMC4wNyAxOS43MiBjIDAuOTMsMy4yOSAtMC4zMiwzLjc2IC01LjgsMy43NiB2IDEuNzIgaCA2Ljk3IDUuMDkgNi41OCB2IC0xLjcyIGMgLTUuNDgsMCAtNi4wMiwtMC40NyAtNS4wOCwtMy43NiB6Ii8+JiN4YTsmI3hhOzxwYXRoIGlkPSJwYXRoNjYwMzQiIGlua3NjYXBlOmNvbm5lY3Rvci1jdXJ2YXR1cmU9IjAiIHN0eWxlPSJmaWxsOiNhMGExYTIiIGQ9Ik0gMzUuNzgsMTEuMjIgSCAxMC41NCBjIC0wLjg2LDAgLTEuNTUsMC43NyAtMS41NSwxLjYyIHYgMTcuNTggYyAwLDAuODUgMC42OSwxLjYxIDEuNTUsMS42MSBoIDI1LjI0IGMgMC44NiwwIDEuNzIsLTAuNzYgMS43MiwtMS42MSBWIDEyLjg0IGMgMCwtMC44NSAtMC44NiwtMS42MiAtMS43MiwtMS42MiB6Ii8+JiN4YTsmI3hhOzxwYXRoIGlkPSJwYXRoNjYwNDIiIGlua3NjYXBlOmNvbm5lY3Rvci1jdXJ2YXR1cmU9IjAiIHN0eWxlPSJmaWxsOiNmZmZmZmY7ZmlsbC1vcGFjaXR5OjAuMiIgZD0ibSAzNS43OSwxMS4yMiBjIC0wLjAxLDAgLTAuMDEsMCAtMC4wMiwwIEggMTAuNTMgYyAtMC44NiwwIC0xLjU1LDAuNzcgLTEuNTUsMS42MiB2IDE3LjU4IGMgMCwwLjg1IDAuNjksMS42MSAxLjU1LDEuNjEgaCAwLjYgeiIvPiYjeGE7JiN4YTs8cGF0aCBpZD0icGF0aDY2MDUwIiBpbmtzY2FwZTpjb25uZWN0b3ItY3VydmF0dXJlPSIwIiBzdHlsZT0iZmlsbDojNTliNGQ5IiBkPSJNIDM1LjM0LDI5Ljg0IEggMTEuMTUgViAxMy40MSBsIDI0LjE5LC0wLjAzIHoiLz4mI3hhOyYjeGE7PHJlY3QgaWQ9InJlY3Q2NjA1OCIgeD0iMTMuOTE5OTk4IiB5PSIzNS43Nzk5OTkiIHN0eWxlPSJmaWxsOiNhMGExYTIiIHdpZHRoPSIxOC42Mzk5OTkiIGhlaWdodD0iMS43MiIvPiYjeGE7JiN4YTs8cGF0aCBpZD0icGF0aDY2MDY2IiBpbmtzY2FwZTpjb25uZWN0b3ItY3VydmF0dXJlPSIwIiBzdHlsZT0iZmlsbDojYjhkNDMyIiBkPSJtIDIzLjU0LDEyLjQxIGMgMCwwLjIyIC0wLjE4LDAuNCAtMC40MSwwLjQgLTAuMjIsMCAtMC40LC0wLjE4IC0wLjQsLTAuNCAwLC0wLjIzIDAuMTgsLTAuNDEgMC40LC0wLjQxIDAuMjMsMCAwLjQxLDAuMTggMC40MSwwLjQxIHoiLz4mI3hhOyYjeGE7PHBhdGggaWQ9InBhdGg2NjA3NCIgaW5rc2NhcGU6Y29ubmVjdG9yLWN1cnZhdHVyZT0iMCIgc3R5bGU9ImZpbGw6I2ZmZmZmZiIgZD0ibSAyMy41NSwyMS4xMiBjIC0wLjAyLDAgLTAuMDUsLTAuMDEgLTAuMDcsLTAuMDIgbCAtNS4wMywtMi45IGMgLTAuMDQsLTAuMDIgLTAuMDcsLTAuMDcgLTAuMDcsLTAuMTMgMCwtMC4wNSAwLjAzLC0wLjEgMC4wNywtMC4xMyBsIDUsLTIuODcgYyAwLjA0LC0wLjAzIDAuMSwtMC4wMyAwLjE1LDAgbCA1LjAyLDIuODkgYyAwLjA0LDAuMDMgMC4wNywwLjA4IDAuMDcsMC4xMyAwLDAuMDYgLTAuMDIsMC4xMSAtMC4wNywwLjEzIGwgLTQuOTksMi44OCBjIC0wLjAyLDAuMDEgLTAuMDUsMC4wMiAtMC4wOCwwLjAyIHoiLz4mI3hhOyYjeGE7PHBhdGggaWQ9InBhdGg2NjA4MiIgaW5rc2NhcGU6Y29ubmVjdG9yLWN1cnZhdHVyZT0iMCIgc3R5bGU9ImZpbGw6I2ZmZmZmZjtmaWxsLW9wYWNpdHk6MC43IiBkPSJtIDIyLjgzLDI4LjE2IGMgLTAuMDMsMCAtMC4wNSwtMC4wMSAtMC4wOCwtMC4wMiBsIC01LC0yLjg5IEMgMTcuNywyNS4yMyAxNy42NywyNS4xOCAxNy42NywyNS4xMiB2IC01Ljc5IGMgMCwtMC4wNSAwLjAzLC0wLjEgMC4wOCwtMC4xMyAwLjA0LC0wLjAzIDAuMSwtMC4wMyAwLjE1LDAgbCA1LjAxLDIuODkgYyAwLjA0LDAuMDMgMC4wNywwLjA3IDAuMDcsMC4xMyB2IDUuNzkgYyAwLDAuMDUgLTAuMDMsMC4xIC0wLjA3LDAuMTMgLTAuMDMsMC4wMSAtMC4wNSwwLjAyIC0wLjA4LDAuMDIgeiIvPiYjeGE7JiN4YTs8cGF0aCBpZD0icGF0aDY2MDkwIiBpbmtzY2FwZTpjb25uZWN0b3ItY3VydmF0dXJlPSIwIiBzdHlsZT0iZmlsbDojZmZmZmZmO2ZpbGwtb3BhY2l0eTowLjQiIGQ9Im0gMjQuMjUsMjguMTYgYyAtMC4wMywwIC0wLjA1LC0wLjAxIC0wLjA4LC0wLjAyIC0wLjA0LC0wLjAzIC0wLjA3LC0wLjA4IC0wLjA3LC0wLjEzIHYgLTUuNzYgYyAwLC0wLjA1IDAuMDMsLTAuMSAwLjA3LC0wLjEzIGwgNS4wMSwtMi44OCBjIDAuMDUsLTAuMDMgMC4xLC0wLjAzIDAuMTUsMCAwLjA1LDAuMDMgMC4wOCwwLjA4IDAuMDgsMC4xMyB2IDUuNzUgYyAwLDAuMDYgLTAuMDMsMC4xMSAtMC4wOCwwLjE0IGwgLTUsMi44OCBjIC0wLjAzLDAuMDEgLTAuMDUsMC4wMiAtMC4wOCwwLjAyIHoiLz4mI3hhOzwvc3ZnPg==;" vertex="1" parent="1">
          <mxGeometry x="1030" y="1050" width="99" height="99" as="geometry" />
        </mxCell>
        <mxCell id="6GieOjlcSy-mnPTfJjKJ-65" value="" style="shape=image;verticalLabelPosition=bottom;labelBackgroundColor=#ffffff;verticalAlign=top;aspect=fixed;imageAspect=0;image=data:image/svg+xml,PHN2ZyB4bWxuczpkYz0iaHR0cDovL3B1cmwub3JnL2RjL2VsZW1lbnRzLzEuMS8iIHhtbG5zOmNjPSJodHRwOi8vY3JlYXRpdmVjb21tb25zLm9yZy9ucyMiIHhtbG5zOnJkZj0iaHR0cDovL3d3dy53My5vcmcvMTk5OS8wMi8yMi1yZGYtc3ludGF4LW5zIyIgeG1sbnM6c3ZnPSJodHRwOi8vd3d3LnczLm9yZy8yMDAwL3N2ZyIgeG1sbnM9Imh0dHA6Ly93d3cudzMub3JnLzIwMDAvc3ZnIiB4bWxuczpzb2RpcG9kaT0iaHR0cDovL3NvZGlwb2RpLnNvdXJjZWZvcmdlLm5ldC9EVEQvc29kaXBvZGktMC5kdGQiIHhtbG5zOmlua3NjYXBlPSJodHRwOi8vd3d3Lmlua3NjYXBlLm9yZy9uYW1lc3BhY2VzL2lua3NjYXBlIiB2ZXJzaW9uPSIxLjEiIGlkPSJzdmc2MDYwNyIgaW5rc2NhcGU6dmVyc2lvbj0iMC45Mi4zICgyNDA1NTQ2LCAyMDE4LTAzLTExKSIgc29kaXBvZGk6ZG9jbmFtZT0iYXp1cmVfcG9ydGFsX2xvZ2ljX2FwcHMuc3ZnIiB4PSIwcHgiIHk9IjBweCIgdmlld0JveD0iMCAwIDgyLjQ5IDY0LjA1OTg2OCIgeG1sOnNwYWNlPSJwcmVzZXJ2ZSIgd2lkdGg9IjgyLjQ4OTk5OCIgaGVpZ2h0PSI2NC4wNTk4NjgiPjxtZXRhZGF0YSBpZD0ibWV0YWRhdGE5NTI0Ij48cmRmOlJERj48Y2M6V29yayByZGY6YWJvdXQ9IiI+PGRjOmZvcm1hdD5pbWFnZS9zdmcreG1sPC9kYzpmb3JtYXQ+PGRjOnR5cGUgcmRmOnJlc291cmNlPSJodHRwOi8vcHVybC5vcmcvZGMvZGNtaXR5cGUvU3RpbGxJbWFnZSIvPjxkYzp0aXRsZS8+PC9jYzpXb3JrPjwvcmRmOlJERj48L21ldGFkYXRhPjxkZWZzIGlkPSJkZWZzOTUyMiI+JiN4YTsJJiN4YTsmI3hhOwkmI3hhOyYjeGE7CSYjeGE7JiN4YTsJJiN4YTsmI3hhOwkmI3hhOyYjeGE7CSYjeGE7JiN4YTsJJiN4YTsmI3hhOwkmI3hhOyYjeGE7CQkmI3hhOwkmI3hhOwkJJiN4YTsJJiN4YTsJCSYjeGE7CSYjeGE7CQkmI3hhOwkmI3hhOwkJJiN4YTsJJiN4YTsJCSYjeGE7CSYjeGE7CQkmI3hhOwk8L2RlZnM+JiN4YTs8ZmlsdGVyIGlkPSJmaWx0ZXJfMiI+JiN4YTsJPGZlR2F1c3NpYW5CbHVyIGlkPSJmZUdhdXNzaWFuQmx1cjYwNTMyIiBzdGREZXZpYXRpb249IjIiLz4mI3hhOzwvZmlsdGVyPiYjeGE7PHNvZGlwb2RpOm5hbWVkdmlldyBib3JkZXJjb2xvcj0iIzY2NjY2NiIgYm9yZGVyb3BhY2l0eT0iMSIgZml0LW1hcmdpbi1ib3R0b209IjAiIGZpdC1tYXJnaW4tbGVmdD0iMCIgZml0LW1hcmdpbi1yaWdodD0iMCIgZml0LW1hcmdpbi10b3A9IjAiIGdyaWR0b2xlcmFuY2U9IjEwIiBndWlkZXRvbGVyYW5jZT0iMTAiIGlkPSJuYW1lZHZpZXc2MDYwOSIgaW5rc2NhcGU6Y3VycmVudC1sYXllcj0ic3ZnNjA2MDciIGlua3NjYXBlOmN4PSItMTcuNTIzODc3IiBpbmtzY2FwZTpjeT0iMjUuOTk4MTIzIiBpbmtzY2FwZTpwYWdlb3BhY2l0eT0iMCIgaW5rc2NhcGU6cGFnZXNoYWRvdz0iMiIgaW5rc2NhcGU6d2luZG93LWhlaWdodD0iMTAxNyIgaW5rc2NhcGU6d2luZG93LW1heGltaXplZD0iMSIgaW5rc2NhcGU6d2luZG93LXdpZHRoPSIxOTIwIiBpbmtzY2FwZTp3aW5kb3cteD0iLTgiIGlua3NjYXBlOndpbmRvdy15PSItOCIgaW5rc2NhcGU6em9vbT0iNS4xOTI4MDM5IiBvYmplY3R0b2xlcmFuY2U9IjEwIiBwYWdlY29sb3I9IiNmZmZmZmYiIHNob3dncmlkPSJmYWxzZSI+JiN4YTsJPC9zb2RpcG9kaTpuYW1lZHZpZXc+JiN4YTsmI3hhOzxwYXRoIGlkPSJwYXRoNjA1NDUiIGlua3NjYXBlOmNvbm5lY3Rvci1jdXJ2YXR1cmU9IjAiIHN0eWxlPSJmaWxsOiM1OWI0ZDkiIGQ9Im0gNDIuODksMjUuOTI2MyB2IC04LjI1IGggLTQuMTIgdiA4LjI1IGMgMCwxLjQ4IC0xLjMyLDIuOCAtMy40NywzLjQ2IGwgLTUuNjEsMS4xNiBjIC0zLjc5LDEuMTUgLTYuNDMsNC4xMiAtNi40Myw3LjQyIHYgOS40IGggNC4xMiB2IC05LjQgYyAwLC0xLjQ4IDEuMzIsLTIuOCAzLjQ3LC0zLjQ2IGwgNS42MSwtMS4zMiBjIDMuNDYsLTAuNjYgNi4xLC0zLjYzIDYuNDMsLTcuMjYgeiIvPiYjeGE7JiN4YTs8cGF0aCBpZD0icGF0aDYwNTUzIiBpbmtzY2FwZTpjb25uZWN0b3ItY3VydmF0dXJlPSIwIiBzdHlsZT0iZmlsbDojN2ZiYTAwIiBkPSJtIDMyLjM0LDUxLjY1NjMgdiAtNy41OCBjIDAsLTEuODIgLTEuNDksLTMuMyAtMy4zLC0zLjMgaCAtNy41OSBjIC0xLjgyLDAgLTMuMywxLjQ4IC0zLjMsMy4zIHYgNy41OCBjIDAsMS44MiAxLjQ4LDMuMyAzLjMsMy4zIGggNy41OSBjIDEuODEsMCAzLjMsLTEuNDggMy4zLC0zLjMgeiIvPiYjeGE7JiN4YTs8cGF0aCBpZD0icGF0aDYwNTYxIiBpbmtzY2FwZTpjb25uZWN0b3ItY3VydmF0dXJlPSIwIiBzdHlsZT0iZmlsbDojNTliNGQ5IiBkPSJtIDM4LjI4LDI1LjkyNjMgdiAtOC4yNSBoIDQuMTIgdiA4LjI1IGMgMCwxLjQ4IDEuMzIsMi44IDMuNDcsMy40NiBsIDYuOTMsMS40OSBjIDMuNzksMS4xNSA2LjQzLDQuMTIgNi40Myw3LjQyIHYgOS40IGggLTQuMTIgdiAtOS40IGMgMCwtMS40OCAtMS4zMiwtMi44IC0zLjQ3LC0zLjQ2IGwgLTYuOTMsLTEuNDkgYyAtMy43OSwtMS4xNSAtNi40MywtNC4xMiAtNi40MywtNy40MiB6Ii8+JiN4YTsmI3hhOzxwYXRoIGlkPSJwYXRoNjA1NjkiIGlua3NjYXBlOmNvbm5lY3Rvci1jdXJ2YXR1cmU9IjAiIHN0eWxlPSJmaWxsOiM3ZmJhMDAiIGQ9Im0gNTAuMTYsNTEuOTg2MyB2IC03LjU4IGMgMCwtMS44MiAxLjQ4LC0zLjMgMy4zLC0zLjMgaCA3LjU5IGMgMS44MSwwIDMuMywxLjQ4IDMuMywzLjMgdiA3LjU4IGMgMCwxLjgyIC0xLjQ5LDMuMyAtMy4zLDMuMyBoIC03LjU5IGMgLTEuODIsMCAtMy4zLC0xLjQ4IC0zLjMsLTMuMyB6Ii8+JiN4YTsmI3hhOyYjeGE7JiN4YTs8cGF0aCBpZD0icGF0aDYwNTg1IiBpbmtzY2FwZTpjb25uZWN0b3ItY3VydmF0dXJlPSIwIiBzdHlsZT0iZmlsbDojMDA3MmM2IiBkPSJtIDQzLjcyLDEwLjA4NjMgdiA2LjExIGggLTYuMSB2IC02LjExIHogbSAxLjMyLC00LjYyIEggMzYuMyBjIC0xLjgyLDAgLTMuMywxLjQ5IC0zLjMsMy4zIHYgOC43NCBjIDAsMS44MiAxLjQ4LDMuMyAzLjMsMy4zIGggOC43NCBjIDEuODIsMCAzLjMsLTEuNDggMy4zLC0zLjMgdiAtOC43NCBjIDAsLTEuODEgLTEuNDgsLTMuMyAtMy4zLC0zLjMgeiIvPiYjeGE7JiN4YTs8cGF0aCBpZD0icGF0aDYwNTkzIiBpbmtzY2FwZTpjb25uZWN0b3ItY3VydmF0dXJlPSIwIiBzdHlsZT0iZmlsbDojNTliNGQ5IiBkPSJtIDEzLjAzLDY0LjAzNjMgYyAtMi42NCwwLjE2IC01LjI4LC0wLjUgLTcuNDIsLTEuODIgLTEuNDksLTEuMzIgLTIuMTUsLTMuNDYgLTIuMTUsLTYuNTkgdiAtMTcuMTYgYyAwLC0yLjgxIC0xLjE1LC00LjI5IC0zLjQ2LC00LjI5IHYgLTQuMjkgYyAyLjMxLDAgMy40NiwtMS40OSAzLjQ2LC00LjQ2IHYgLTE2LjgzIGMgMCwtMy4xMyAwLjY2LC01LjQ0IDIuMTUsLTYuNzYgQyA3LjA5LDAuNTE2Mjk5OTggOS41NywwLjAxNjI5OTk4IDEzLjAzLDAuMDE2Mjk5OTggViA0LjMwNjMgYyAtMi40NywwIC0zLjc5LDEuMzIgLTMuNzksNC4xMyB2IDE2LjUgYyAwLDMuNzkgLTEuMTYsNi4xIC0zLjYzLDcuMDkgMi4zMSwwLjk5IDMuNjMsMy4zIDMuNjMsNy4xIHYgMTYuMzMgYyAwLDEuMTYgMC4xNiwyLjMxIDAuODIsMy4zIDAuODMsMC42NiAxLjgyLDEuMTYgMi44MSwwLjk5IDAsMCAwLjE2LDQuMjkgMC4xNiw0LjI5IHoiLz4mI3hhOyYjeGE7PHBhdGggaWQ9InBhdGg2MDYwMSIgaW5rc2NhcGU6Y29ubmVjdG9yLWN1cnZhdHVyZT0iMCIgc3R5bGU9ImZpbGw6IzU5YjRkOSIgZD0ibSA2OS40NiwwLjAyNjI5OTk4IGMgMi42NCwtMC4xNyA1LjI4LDAuNDkgNy40MiwxLjgxMDAwMDAyIDEuNDksMS4zMiAyLjE1LDMuNDcgMi4xNSw2LjYgdiAxNy4xNiBjIDAsMi44MSAxLjE1LDQuMjkgMy40Niw0LjI5IHYgNC4yOSBjIC0yLjMxLDAgLTMuNDYsMS40OSAtMy40Niw0LjQ2IHYgMTYuNjYgYyAwLDMuMTQgLTAuNjYsNS40NCAtMi4xNSw2Ljc2IC0xLjQ4LDEuMzIgLTMuOTYsMS45OCAtNy40MiwxLjk4IHYgLTQuMjggYyAyLjQ3LDAgMy43OSwtMS4zMiAzLjc5LC00LjEzIHYgLTE2LjUgYyAwLC0zLjc5IDEuMTYsLTYuMSAzLjYzLC03LjA5IC0yLjMxLC0wLjk5IC0zLjYzLC0zLjMgLTMuNjMsLTcuMSB2IC0xNi4zMyBjIDAsLTEuMTYgLTAuMTYsLTIuMzEgLTAuODIsLTMuMyAtMC44MywtMC42NiAtMS44MiwtMS4xNiAtMi44MSwtMC45OSB6Ii8+JiN4YTs8L3N2Zz4=;" vertex="1" parent="1">
          <mxGeometry x="840" y="660.0000000000009" width="82" height="64" as="geometry" />
        </mxCell>
        <mxCell id="6GieOjlcSy-mnPTfJjKJ-66" value="" style="shape=image;verticalLabelPosition=bottom;labelBackgroundColor=#ffffff;verticalAlign=top;aspect=fixed;imageAspect=0;image=data:image/svg+xml,PHN2ZyB4bWxuczpjYz0iaHR0cDovL2NyZWF0aXZlY29tbW9ucy5vcmcvbnMjIiB4bWxuczpkYz0iaHR0cDovL3B1cmwub3JnL2RjL2VsZW1lbnRzLzEuMS8iIHhtbG5zOmlua3NjYXBlPSJodHRwOi8vd3d3Lmlua3NjYXBlLm9yZy9uYW1lc3BhY2VzL2lua3NjYXBlIiB4bWxuczpyZGY9Imh0dHA6Ly93d3cudzMub3JnLzE5OTkvMDIvMjItcmRmLXN5bnRheC1ucyMiIHhtbG5zOnNvZGlwb2RpPSJodHRwOi8vc29kaXBvZGkuc291cmNlZm9yZ2UubmV0L0RURC9zb2RpcG9kaS0wLmR0ZCIgeG1sbnM6c3ZnPSJodHRwOi8vd3d3LnczLm9yZy8yMDAwL3N2ZyIgeG1sbnM9Imh0dHA6Ly93d3cudzMub3JnLzIwMDAvc3ZnIiB4bWxuczp4bGluaz0iaHR0cDovL3d3dy53My5vcmcvMTk5OS94bGluayIgdmVyc2lvbj0iMS4xIiBpZD0ic3ZnNzc5MjQiIGlua3NjYXBlOnZlcnNpb249IjAuOTIuMyAoMjQwNTU0NiwgMjAxOC0wMy0xMSkiIHNvZGlwb2RpOmRvY25hbWU9ImRhdGFfcGlwZWxpbmVzLnN2ZyIgeD0iMHB4IiB5PSIwcHgiIHZpZXdCb3g9IjAgMCA2Mi4zNyA0MC40MiIgc3R5bGU9ImVuYWJsZS1iYWNrZ3JvdW5kOm5ldyAwIDAgNjIuMzcgNDAuNDI7IiB4bWw6c3BhY2U9InByZXNlcnZlIj4mI3hhOzxzb2RpcG9kaTpuYW1lZHZpZXcgYm9yZGVyY29sb3I9IiM2NjY2NjYiIGJvcmRlcm9wYWNpdHk9IjEiIGZpdC1tYXJnaW4tYm90dG9tPSIwIiBmaXQtbWFyZ2luLWxlZnQ9IjAiIGZpdC1tYXJnaW4tcmlnaHQ9IjAiIGZpdC1tYXJnaW4tdG9wPSIwIiBncmlkdG9sZXJhbmNlPSIxMCIgZ3VpZGV0b2xlcmFuY2U9IjEwIiBpZD0ibmFtZWR2aWV3Nzc5MjYiIGlua3NjYXBlOmN1cnJlbnQtbGF5ZXI9InN2Zzc3OTI0IiBpbmtzY2FwZTpjeD0iNDUuMjI3NTg0IiBpbmtzY2FwZTpjeT0iMjAuMzQ0ODU2IiBpbmtzY2FwZTpwYWdlb3BhY2l0eT0iMCIgaW5rc2NhcGU6cGFnZXNoYWRvdz0iMiIgaW5rc2NhcGU6d2luZG93LWhlaWdodD0iMTAxNyIgaW5rc2NhcGU6d2luZG93LW1heGltaXplZD0iMSIgaW5rc2NhcGU6d2luZG93LXdpZHRoPSIxOTIwIiBpbmtzY2FwZTp3aW5kb3cteD0iLTgiIGlua3NjYXBlOndpbmRvdy15PSItOCIgaW5rc2NhcGU6em9vbT0iMTEuMzc2MzExIiBvYmplY3R0b2xlcmFuY2U9IjEwIiBwYWdlY29sb3I9IiNmZmZmZmYiIHNob3dncmlkPSJmYWxzZSI+JiN4YTsJPC9zb2RpcG9kaTpuYW1lZHZpZXc+JiN4YTs8ZyBpZD0iZzc3OTIyIj4mI3hhOwk8dGl0bGUgaWQ9InRpdGxlNzc5MDIiPlBhZ2UtMTwvdGl0bGU+JiN4YTsJPGcgaWQ9Imdyb3VwNTAwMS0xIj4mI3hhOwkJPHRpdGxlIGlkPSJ0aXRsZTc3OTA0Ij5EYXRhIFBpcGVsaW5lcy40OTQ8L3RpdGxlPiYjeGE7CQk8ZyBpZD0ic2hhcGU1MDAyLTIiIHRyYW5zZm9ybT0idHJhbnNsYXRlKDkuMjAwOTgsLTQuNTg4MDYpIj4mI3hhOwkJCTx0aXRsZSBpZD0idGl0bGU3NzkwNiI+U2hlZXQuNTAwMjwvdGl0bGU+JiN4YTsJCQk8cGF0aCBpZD0icGF0aDc3OTA4IiBpbmtzY2FwZTpjb25uZWN0b3ItY3VydmF0dXJlPSIwIiBzdHlsZT0iZmlsbDojMDA3MDhFOyIgZD0iTTAsOS4yMXYzMS4yMWg0Ny41NFY5LjIxSDB6Ii8+JiN4YTsJCTwvZz4mI3hhOwkJPGcgaWQ9InNoYXBlNTAwMy00Ij4mI3hhOwkJCTx0aXRsZSBpZD0idGl0bGU3NzkxMSI+U2hlZXQuNTAwMzwvdGl0bGU+JiN4YTsJCQk8cGF0aCBpZD0icGF0aDc3OTEzIiBpbmtzY2FwZTpjb25uZWN0b3ItY3VydmF0dXJlPSIwIiBzdHlsZT0iZmlsbDojMDA5MEI3OyIgZD0iTTAsNS44NUMwLDM0LjYsMCwzNC42LDAsMzQuNiAgICAgYzAsMy41MSwyLjM2LDUuODIsNS44OCw1LjgyYzMuMTYsMCw1Ljg4LTIuMzEsNS44OC01LjgyYzAtMjguNzUsMC0yOC43NSwwLTI4Ljc1QzExLjc2LDIuNzUsOS4wNCwwLDUuODgsMEMyLjM2LDAsMCwyLjc1LDAsNS44NSAgICAgeiIvPiYjeGE7CQk8L2c+JiN4YTsJCTxnIGlkPSJzaGFwZTUwMDQtNiIgdHJhbnNmb3JtPSJ0cmFuc2xhdGUoNTEuMTE2NikiPiYjeGE7CQkJPHRpdGxlIGlkPSJ0aXRsZTc3OTE2Ij5TaGVldC41MDA0PC90aXRsZT4mI3hhOwkJCTxwYXRoIGlkPSJwYXRoNzc5MTgiIGlua3NjYXBlOmNvbm5lY3Rvci1jdXJ2YXR1cmU9IjAiIHN0eWxlPSJmaWxsOiMwMDkwQjc7IiBkPSJNMCw1Ljg1QzAsMzQuNiwwLDM0LjYsMCwzNC42ICAgICBjMCwzLjUxLDIuNjUsNS44Miw1LjYyLDUuODJjMy4wMSwwLDUuNjMtMi4zMSw1LjYzLTUuODJjMC0yOC43NSwwLTI4Ljc1LDAtMjguNzVDMTEuMjUsMi43NSw4LjYzLDAsNS42MiwwQzIuNjUsMCwwLDIuNzUsMCw1Ljg1ICAgICB6Ii8+JiN4YTsJCTwvZz4mI3hhOwk8L2c+JiN4YTs8L2c+JiN4YTs8L3N2Zz4=;" vertex="1" parent="1">
          <mxGeometry x="1010" y="890" width="77.5" height="50" as="geometry" />
        </mxCell>
        <mxCell id="6GieOjlcSy-mnPTfJjKJ-68" value="" style="edgeStyle=none;orthogonalLoop=1;jettySize=auto;html=1;rounded=0;" edge="1" parent="1">
          <mxGeometry width="100" relative="1" as="geometry">
            <mxPoint x="580" y="630" as="sourcePoint" />
            <mxPoint x="830" y="690" as="targetPoint" />
            <Array as="points" />
          </mxGeometry>
        </mxCell>
        <mxCell id="6GieOjlcSy-mnPTfJjKJ-69" value="" style="edgeStyle=none;orthogonalLoop=1;jettySize=auto;html=1;rounded=0;" edge="1" parent="1" source="6GieOjlcSy-mnPTfJjKJ-54">
          <mxGeometry width="100" relative="1" as="geometry">
            <mxPoint x="610" y="550" as="sourcePoint" />
            <mxPoint x="860" y="640" as="targetPoint" />
            <Array as="points" />
          </mxGeometry>
        </mxCell>
        <mxCell id="6GieOjlcSy-mnPTfJjKJ-70" value="" style="edgeStyle=none;orthogonalLoop=1;jettySize=auto;html=1;rounded=0;exitX=0.234;exitY=1.171;exitDx=0;exitDy=0;exitPerimeter=0;" edge="1" parent="1" source="6GieOjlcSy-mnPTfJjKJ-55">
          <mxGeometry width="100" relative="1" as="geometry">
            <mxPoint x="720" y="550" as="sourcePoint" />
            <mxPoint x="850" y="630" as="targetPoint" />
            <Array as="points" />
          </mxGeometry>
        </mxCell>
        <mxCell id="6GieOjlcSy-mnPTfJjKJ-71" value="" style="edgeStyle=none;orthogonalLoop=1;jettySize=auto;html=1;rounded=0;" edge="1" parent="1" source="6GieOjlcSy-mnPTfJjKJ-56">
          <mxGeometry width="100" relative="1" as="geometry">
            <mxPoint x="810" y="560" as="sourcePoint" />
            <mxPoint x="870" y="630" as="targetPoint" />
            <Array as="points" />
          </mxGeometry>
        </mxCell>
        <mxCell id="6GieOjlcSy-mnPTfJjKJ-72" value="" style="edgeStyle=none;orthogonalLoop=1;jettySize=auto;html=1;rounded=0;" edge="1" parent="1">
          <mxGeometry width="100" relative="1" as="geometry">
            <mxPoint x="930" y="450" as="sourcePoint" />
            <mxPoint x="890" y="640" as="targetPoint" />
            <Array as="points" />
          </mxGeometry>
        </mxCell>
        <mxCell id="6GieOjlcSy-mnPTfJjKJ-73" value="URL Prioritizer" style="text;html=1;align=center;verticalAlign=middle;resizable=0;points=[];autosize=1;strokeColor=none;fillColor=none;" vertex="1" parent="1">
          <mxGeometry x="930" y="677" width="100" height="30" as="geometry" />
        </mxCell>
        <mxCell id="6GieOjlcSy-mnPTfJjKJ-74" value="" style="edgeStyle=none;orthogonalLoop=1;jettySize=auto;html=1;rounded=0;entryX=0.25;entryY=0;entryDx=0;entryDy=0;" edge="1" parent="1" target="6GieOjlcSy-mnPTfJjKJ-66">
          <mxGeometry width="100" relative="1" as="geometry">
            <mxPoint x="870" y="740" as="sourcePoint" />
            <mxPoint x="920" y="740" as="targetPoint" />
            <Array as="points" />
          </mxGeometry>
        </mxCell>
        <mxCell id="6GieOjlcSy-mnPTfJjKJ-75" value="" style="edgeStyle=none;orthogonalLoop=1;jettySize=auto;html=1;rounded=0;exitX=0.5;exitY=1;exitDx=0;exitDy=0;entryX=0.404;entryY=0;entryDx=0;entryDy=0;entryPerimeter=0;" edge="1" parent="1" source="6GieOjlcSy-mnPTfJjKJ-66" target="6GieOjlcSy-mnPTfJjKJ-64">
          <mxGeometry width="100" relative="1" as="geometry">
            <mxPoint x="1000" y="990" as="sourcePoint" />
            <mxPoint x="1100" y="990" as="targetPoint" />
            <Array as="points" />
          </mxGeometry>
        </mxCell>
        <mxCell id="6GieOjlcSy-mnPTfJjKJ-76" value="" style="edgeStyle=none;orthogonalLoop=1;jettySize=auto;html=1;endArrow=classic;startArrow=classic;endSize=8;startSize=8;rounded=0;" edge="1" parent="1">
          <mxGeometry width="100" relative="1" as="geometry">
            <mxPoint x="840" y="730" as="sourcePoint" />
            <mxPoint x="1020" y="1080" as="targetPoint" />
            <Array as="points" />
          </mxGeometry>
        </mxCell>
        <mxCell id="6GieOjlcSy-mnPTfJjKJ-77" value="Control / Status Messages" style="text;html=1;align=center;verticalAlign=middle;resizable=0;points=[];autosize=1;strokeColor=none;fillColor=none;" vertex="1" parent="1">
          <mxGeometry x="790" y="890" width="160" height="30" as="geometry" />
        </mxCell>
        <mxCell id="6GieOjlcSy-mnPTfJjKJ-78" value="External Analytics" style="text;html=1;align=center;verticalAlign=middle;resizable=0;points=[];autosize=1;strokeColor=none;fillColor=none;" vertex="1" parent="1">
          <mxGeometry x="450" y="668" width="120" height="30" as="geometry" />
        </mxCell>
        <mxCell id="6GieOjlcSy-mnPTfJjKJ-79" value="" style="shape=image;verticalLabelPosition=bottom;labelBackgroundColor=#ffffff;verticalAlign=top;aspect=fixed;imageAspect=0;image=data:image/svg+xml,PHN2ZyB4bWxuczpkYz0iaHR0cDovL3B1cmwub3JnL2RjL2VsZW1lbnRzLzEuMS8iIHhtbG5zOmNjPSJodHRwOi8vY3JlYXRpdmVjb21tb25zLm9yZy9ucyMiIHhtbG5zOnJkZj0iaHR0cDovL3d3dy53My5vcmcvMTk5OS8wMi8yMi1yZGYtc3ludGF4LW5zIyIgeG1sbnM6c3ZnPSJodHRwOi8vd3d3LnczLm9yZy8yMDAwL3N2ZyIgeG1sbnM9Imh0dHA6Ly93d3cudzMub3JnLzIwMDAvc3ZnIiB4bWxuczpzb2RpcG9kaT0iaHR0cDovL3NvZGlwb2RpLnNvdXJjZWZvcmdlLm5ldC9EVEQvc29kaXBvZGktMC5kdGQiIHhtbG5zOmlua3NjYXBlPSJodHRwOi8vd3d3Lmlua3NjYXBlLm9yZy9uYW1lc3BhY2VzL2lua3NjYXBlIiB2ZXJzaW9uPSIxLjEiIGlkPSJzdmc2MDYwNyIgaW5rc2NhcGU6dmVyc2lvbj0iMC45Mi4zICgyNDA1NTQ2LCAyMDE4LTAzLTExKSIgc29kaXBvZGk6ZG9jbmFtZT0iYXp1cmVfcG9ydGFsX2xvZ2ljX2FwcHMuc3ZnIiB4PSIwcHgiIHk9IjBweCIgdmlld0JveD0iMCAwIDgyLjQ5IDY0LjA1OTg2OCIgeG1sOnNwYWNlPSJwcmVzZXJ2ZSIgd2lkdGg9IjgyLjQ4OTk5OCIgaGVpZ2h0PSI2NC4wNTk4NjgiPjxtZXRhZGF0YSBpZD0ibWV0YWRhdGE5NTI0Ij48cmRmOlJERj48Y2M6V29yayByZGY6YWJvdXQ9IiI+PGRjOmZvcm1hdD5pbWFnZS9zdmcreG1sPC9kYzpmb3JtYXQ+PGRjOnR5cGUgcmRmOnJlc291cmNlPSJodHRwOi8vcHVybC5vcmcvZGMvZGNtaXR5cGUvU3RpbGxJbWFnZSIvPjxkYzp0aXRsZS8+PC9jYzpXb3JrPjwvcmRmOlJERj48L21ldGFkYXRhPjxkZWZzIGlkPSJkZWZzOTUyMiI+JiN4YTsJJiN4YTsmI3hhOwkmI3hhOyYjeGE7CSYjeGE7JiN4YTsJJiN4YTsmI3hhOwkmI3hhOyYjeGE7CSYjeGE7JiN4YTsJJiN4YTsmI3hhOwkmI3hhOyYjeGE7CQkmI3hhOwkmI3hhOwkJJiN4YTsJJiN4YTsJCSYjeGE7CSYjeGE7CQkmI3hhOwkmI3hhOwkJJiN4YTsJJiN4YTsJCSYjeGE7CSYjeGE7CQkmI3hhOwk8L2RlZnM+JiN4YTs8ZmlsdGVyIGlkPSJmaWx0ZXJfMiI+JiN4YTsJPGZlR2F1c3NpYW5CbHVyIGlkPSJmZUdhdXNzaWFuQmx1cjYwNTMyIiBzdGREZXZpYXRpb249IjIiLz4mI3hhOzwvZmlsdGVyPiYjeGE7PHNvZGlwb2RpOm5hbWVkdmlldyBib3JkZXJjb2xvcj0iIzY2NjY2NiIgYm9yZGVyb3BhY2l0eT0iMSIgZml0LW1hcmdpbi1ib3R0b209IjAiIGZpdC1tYXJnaW4tbGVmdD0iMCIgZml0LW1hcmdpbi1yaWdodD0iMCIgZml0LW1hcmdpbi10b3A9IjAiIGdyaWR0b2xlcmFuY2U9IjEwIiBndWlkZXRvbGVyYW5jZT0iMTAiIGlkPSJuYW1lZHZpZXc2MDYwOSIgaW5rc2NhcGU6Y3VycmVudC1sYXllcj0ic3ZnNjA2MDciIGlua3NjYXBlOmN4PSItMTcuNTIzODc3IiBpbmtzY2FwZTpjeT0iMjUuOTk4MTIzIiBpbmtzY2FwZTpwYWdlb3BhY2l0eT0iMCIgaW5rc2NhcGU6cGFnZXNoYWRvdz0iMiIgaW5rc2NhcGU6d2luZG93LWhlaWdodD0iMTAxNyIgaW5rc2NhcGU6d2luZG93LW1heGltaXplZD0iMSIgaW5rc2NhcGU6d2luZG93LXdpZHRoPSIxOTIwIiBpbmtzY2FwZTp3aW5kb3cteD0iLTgiIGlua3NjYXBlOndpbmRvdy15PSItOCIgaW5rc2NhcGU6em9vbT0iNS4xOTI4MDM5IiBvYmplY3R0b2xlcmFuY2U9IjEwIiBwYWdlY29sb3I9IiNmZmZmZmYiIHNob3dncmlkPSJmYWxzZSI+JiN4YTsJPC9zb2RpcG9kaTpuYW1lZHZpZXc+JiN4YTsmI3hhOzxwYXRoIGlkPSJwYXRoNjA1NDUiIGlua3NjYXBlOmNvbm5lY3Rvci1jdXJ2YXR1cmU9IjAiIHN0eWxlPSJmaWxsOiM1OWI0ZDkiIGQ9Im0gNDIuODksMjUuOTI2MyB2IC04LjI1IGggLTQuMTIgdiA4LjI1IGMgMCwxLjQ4IC0xLjMyLDIuOCAtMy40NywzLjQ2IGwgLTUuNjEsMS4xNiBjIC0zLjc5LDEuMTUgLTYuNDMsNC4xMiAtNi40Myw3LjQyIHYgOS40IGggNC4xMiB2IC05LjQgYyAwLC0xLjQ4IDEuMzIsLTIuOCAzLjQ3LC0zLjQ2IGwgNS42MSwtMS4zMiBjIDMuNDYsLTAuNjYgNi4xLC0zLjYzIDYuNDMsLTcuMjYgeiIvPiYjeGE7JiN4YTs8cGF0aCBpZD0icGF0aDYwNTUzIiBpbmtzY2FwZTpjb25uZWN0b3ItY3VydmF0dXJlPSIwIiBzdHlsZT0iZmlsbDojN2ZiYTAwIiBkPSJtIDMyLjM0LDUxLjY1NjMgdiAtNy41OCBjIDAsLTEuODIgLTEuNDksLTMuMyAtMy4zLC0zLjMgaCAtNy41OSBjIC0xLjgyLDAgLTMuMywxLjQ4IC0zLjMsMy4zIHYgNy41OCBjIDAsMS44MiAxLjQ4LDMuMyAzLjMsMy4zIGggNy41OSBjIDEuODEsMCAzLjMsLTEuNDggMy4zLC0zLjMgeiIvPiYjeGE7JiN4YTs8cGF0aCBpZD0icGF0aDYwNTYxIiBpbmtzY2FwZTpjb25uZWN0b3ItY3VydmF0dXJlPSIwIiBzdHlsZT0iZmlsbDojNTliNGQ5IiBkPSJtIDM4LjI4LDI1LjkyNjMgdiAtOC4yNSBoIDQuMTIgdiA4LjI1IGMgMCwxLjQ4IDEuMzIsMi44IDMuNDcsMy40NiBsIDYuOTMsMS40OSBjIDMuNzksMS4xNSA2LjQzLDQuMTIgNi40Myw3LjQyIHYgOS40IGggLTQuMTIgdiAtOS40IGMgMCwtMS40OCAtMS4zMiwtMi44IC0zLjQ3LC0zLjQ2IGwgLTYuOTMsLTEuNDkgYyAtMy43OSwtMS4xNSAtNi40MywtNC4xMiAtNi40MywtNy40MiB6Ii8+JiN4YTsmI3hhOzxwYXRoIGlkPSJwYXRoNjA1NjkiIGlua3NjYXBlOmNvbm5lY3Rvci1jdXJ2YXR1cmU9IjAiIHN0eWxlPSJmaWxsOiM3ZmJhMDAiIGQ9Im0gNTAuMTYsNTEuOTg2MyB2IC03LjU4IGMgMCwtMS44MiAxLjQ4LC0zLjMgMy4zLC0zLjMgaCA3LjU5IGMgMS44MSwwIDMuMywxLjQ4IDMuMywzLjMgdiA3LjU4IGMgMCwxLjgyIC0xLjQ5LDMuMyAtMy4zLDMuMyBoIC03LjU5IGMgLTEuODIsMCAtMy4zLC0xLjQ4IC0zLjMsLTMuMyB6Ii8+JiN4YTsmI3hhOyYjeGE7JiN4YTs8cGF0aCBpZD0icGF0aDYwNTg1IiBpbmtzY2FwZTpjb25uZWN0b3ItY3VydmF0dXJlPSIwIiBzdHlsZT0iZmlsbDojMDA3MmM2IiBkPSJtIDQzLjcyLDEwLjA4NjMgdiA2LjExIGggLTYuMSB2IC02LjExIHogbSAxLjMyLC00LjYyIEggMzYuMyBjIC0xLjgyLDAgLTMuMywxLjQ5IC0zLjMsMy4zIHYgOC43NCBjIDAsMS44MiAxLjQ4LDMuMyAzLjMsMy4zIGggOC43NCBjIDEuODIsMCAzLjMsLTEuNDggMy4zLC0zLjMgdiAtOC43NCBjIDAsLTEuODEgLTEuNDgsLTMuMyAtMy4zLC0zLjMgeiIvPiYjeGE7JiN4YTs8cGF0aCBpZD0icGF0aDYwNTkzIiBpbmtzY2FwZTpjb25uZWN0b3ItY3VydmF0dXJlPSIwIiBzdHlsZT0iZmlsbDojNTliNGQ5IiBkPSJtIDEzLjAzLDY0LjAzNjMgYyAtMi42NCwwLjE2IC01LjI4LC0wLjUgLTcuNDIsLTEuODIgLTEuNDksLTEuMzIgLTIuMTUsLTMuNDYgLTIuMTUsLTYuNTkgdiAtMTcuMTYgYyAwLC0yLjgxIC0xLjE1LC00LjI5IC0zLjQ2LC00LjI5IHYgLTQuMjkgYyAyLjMxLDAgMy40NiwtMS40OSAzLjQ2LC00LjQ2IHYgLTE2LjgzIGMgMCwtMy4xMyAwLjY2LC01LjQ0IDIuMTUsLTYuNzYgQyA3LjA5LDAuNTE2Mjk5OTggOS41NywwLjAxNjI5OTk4IDEzLjAzLDAuMDE2Mjk5OTggViA0LjMwNjMgYyAtMi40NywwIC0zLjc5LDEuMzIgLTMuNzksNC4xMyB2IDE2LjUgYyAwLDMuNzkgLTEuMTYsNi4xIC0zLjYzLDcuMDkgMi4zMSwwLjk5IDMuNjMsMy4zIDMuNjMsNy4xIHYgMTYuMzMgYyAwLDEuMTYgMC4xNiwyLjMxIDAuODIsMy4zIDAuODMsMC42NiAxLjgyLDEuMTYgMi44MSwwLjk5IDAsMCAwLjE2LDQuMjkgMC4xNiw0LjI5IHoiLz4mI3hhOyYjeGE7PHBhdGggaWQ9InBhdGg2MDYwMSIgaW5rc2NhcGU6Y29ubmVjdG9yLWN1cnZhdHVyZT0iMCIgc3R5bGU9ImZpbGw6IzU5YjRkOSIgZD0ibSA2OS40NiwwLjAyNjI5OTk4IGMgMi42NCwtMC4xNyA1LjI4LDAuNDkgNy40MiwxLjgxMDAwMDAyIDEuNDksMS4zMiAyLjE1LDMuNDcgMi4xNSw2LjYgdiAxNy4xNiBjIDAsMi44MSAxLjE1LDQuMjkgMy40Niw0LjI5IHYgNC4yOSBjIC0yLjMxLDAgLTMuNDYsMS40OSAtMy40Niw0LjQ2IHYgMTYuNjYgYyAwLDMuMTQgLTAuNjYsNS40NCAtMi4xNSw2Ljc2IC0xLjQ4LDEuMzIgLTMuOTYsMS45OCAtNy40MiwxLjk4IHYgLTQuMjggYyAyLjQ3LDAgMy43OSwtMS4zMiAzLjc5LC00LjEzIHYgLTE2LjUgYyAwLC0zLjc5IDEuMTYsLTYuMSAzLjYzLC03LjA5IC0yLjMxLC0wLjk5IC0zLjYzLC0zLjMgLTMuNjMsLTcuMSB2IC0xNi4zMyBjIDAsLTEuMTYgLTAuMTYsLTIuMzEgLTAuODIsLTMuMyAtMC44MywtMC42NiAtMS44MiwtMS4xNiAtMi44MSwtMC45OSB6Ii8+JiN4YTs8L3N2Zz4=;" vertex="1" parent="1">
          <mxGeometry x="1039" y="1270.000000000001" width="82" height="64" as="geometry" />
        </mxCell>
        <mxCell id="6GieOjlcSy-mnPTfJjKJ-80" value="" style="edgeStyle=none;orthogonalLoop=1;jettySize=auto;html=1;rounded=0;" edge="1" parent="1">
          <mxGeometry width="100" relative="1" as="geometry">
            <mxPoint x="1090" y="1160" as="sourcePoint" />
            <mxPoint x="1080" y="1260" as="targetPoint" />
            <Array as="points" />
          </mxGeometry>
        </mxCell>
        <mxCell id="6GieOjlcSy-mnPTfJjKJ-81" value="" style="shape=image;verticalLabelPosition=bottom;labelBackgroundColor=#ffffff;verticalAlign=top;aspect=fixed;imageAspect=0;image=data:image/svg+xml,PHN2ZyB4bWxuczpkYz0iaHR0cDovL3B1cmwub3JnL2RjL2VsZW1lbnRzLzEuMS8iIHhtbG5zOmNjPSJodHRwOi8vY3JlYXRpdmVjb21tb25zLm9yZy9ucyMiIHhtbG5zOnJkZj0iaHR0cDovL3d3dy53My5vcmcvMTk5OS8wMi8yMi1yZGYtc3ludGF4LW5zIyIgeG1sbnM6c3ZnPSJodHRwOi8vd3d3LnczLm9yZy8yMDAwL3N2ZyIgeG1sbnM9Imh0dHA6Ly93d3cudzMub3JnLzIwMDAvc3ZnIiB4bWxuczpzb2RpcG9kaT0iaHR0cDovL3NvZGlwb2RpLnNvdXJjZWZvcmdlLm5ldC9EVEQvc29kaXBvZGktMC5kdGQiIHhtbG5zOmlua3NjYXBlPSJodHRwOi8vd3d3Lmlua3NjYXBlLm9yZy9uYW1lc3BhY2VzL2lua3NjYXBlIiB2ZXJzaW9uPSIxLjEiIGlkPSJzdmc2MDYwNyIgaW5rc2NhcGU6dmVyc2lvbj0iMC45Mi4zICgyNDA1NTQ2LCAyMDE4LTAzLTExKSIgc29kaXBvZGk6ZG9jbmFtZT0iYXp1cmVfcG9ydGFsX2xvZ2ljX2FwcHMuc3ZnIiB4PSIwcHgiIHk9IjBweCIgdmlld0JveD0iMCAwIDgyLjQ5IDY0LjA1OTg2OCIgeG1sOnNwYWNlPSJwcmVzZXJ2ZSIgd2lkdGg9IjgyLjQ4OTk5OCIgaGVpZ2h0PSI2NC4wNTk4NjgiPjxtZXRhZGF0YSBpZD0ibWV0YWRhdGE5NTI0Ij48cmRmOlJERj48Y2M6V29yayByZGY6YWJvdXQ9IiI+PGRjOmZvcm1hdD5pbWFnZS9zdmcreG1sPC9kYzpmb3JtYXQ+PGRjOnR5cGUgcmRmOnJlc291cmNlPSJodHRwOi8vcHVybC5vcmcvZGMvZGNtaXR5cGUvU3RpbGxJbWFnZSIvPjxkYzp0aXRsZS8+PC9jYzpXb3JrPjwvcmRmOlJERj48L21ldGFkYXRhPjxkZWZzIGlkPSJkZWZzOTUyMiI+JiN4YTsJJiN4YTsmI3hhOwkmI3hhOyYjeGE7CSYjeGE7JiN4YTsJJiN4YTsmI3hhOwkmI3hhOyYjeGE7CSYjeGE7JiN4YTsJJiN4YTsmI3hhOwkmI3hhOyYjeGE7CQkmI3hhOwkmI3hhOwkJJiN4YTsJJiN4YTsJCSYjeGE7CSYjeGE7CQkmI3hhOwkmI3hhOwkJJiN4YTsJJiN4YTsJCSYjeGE7CSYjeGE7CQkmI3hhOwk8L2RlZnM+JiN4YTs8ZmlsdGVyIGlkPSJmaWx0ZXJfMiI+JiN4YTsJPGZlR2F1c3NpYW5CbHVyIGlkPSJmZUdhdXNzaWFuQmx1cjYwNTMyIiBzdGREZXZpYXRpb249IjIiLz4mI3hhOzwvZmlsdGVyPiYjeGE7PHNvZGlwb2RpOm5hbWVkdmlldyBib3JkZXJjb2xvcj0iIzY2NjY2NiIgYm9yZGVyb3BhY2l0eT0iMSIgZml0LW1hcmdpbi1ib3R0b209IjAiIGZpdC1tYXJnaW4tbGVmdD0iMCIgZml0LW1hcmdpbi1yaWdodD0iMCIgZml0LW1hcmdpbi10b3A9IjAiIGdyaWR0b2xlcmFuY2U9IjEwIiBndWlkZXRvbGVyYW5jZT0iMTAiIGlkPSJuYW1lZHZpZXc2MDYwOSIgaW5rc2NhcGU6Y3VycmVudC1sYXllcj0ic3ZnNjA2MDciIGlua3NjYXBlOmN4PSItMTcuNTIzODc3IiBpbmtzY2FwZTpjeT0iMjUuOTk4MTIzIiBpbmtzY2FwZTpwYWdlb3BhY2l0eT0iMCIgaW5rc2NhcGU6cGFnZXNoYWRvdz0iMiIgaW5rc2NhcGU6d2luZG93LWhlaWdodD0iMTAxNyIgaW5rc2NhcGU6d2luZG93LW1heGltaXplZD0iMSIgaW5rc2NhcGU6d2luZG93LXdpZHRoPSIxOTIwIiBpbmtzY2FwZTp3aW5kb3cteD0iLTgiIGlua3NjYXBlOndpbmRvdy15PSItOCIgaW5rc2NhcGU6em9vbT0iNS4xOTI4MDM5IiBvYmplY3R0b2xlcmFuY2U9IjEwIiBwYWdlY29sb3I9IiNmZmZmZmYiIHNob3dncmlkPSJmYWxzZSI+JiN4YTsJPC9zb2RpcG9kaTpuYW1lZHZpZXc+JiN4YTsmI3hhOzxwYXRoIGlkPSJwYXRoNjA1NDUiIGlua3NjYXBlOmNvbm5lY3Rvci1jdXJ2YXR1cmU9IjAiIHN0eWxlPSJmaWxsOiM1OWI0ZDkiIGQ9Im0gNDIuODksMjUuOTI2MyB2IC04LjI1IGggLTQuMTIgdiA4LjI1IGMgMCwxLjQ4IC0xLjMyLDIuOCAtMy40NywzLjQ2IGwgLTUuNjEsMS4xNiBjIC0zLjc5LDEuMTUgLTYuNDMsNC4xMiAtNi40Myw3LjQyIHYgOS40IGggNC4xMiB2IC05LjQgYyAwLC0xLjQ4IDEuMzIsLTIuOCAzLjQ3LC0zLjQ2IGwgNS42MSwtMS4zMiBjIDMuNDYsLTAuNjYgNi4xLC0zLjYzIDYuNDMsLTcuMjYgeiIvPiYjeGE7JiN4YTs8cGF0aCBpZD0icGF0aDYwNTUzIiBpbmtzY2FwZTpjb25uZWN0b3ItY3VydmF0dXJlPSIwIiBzdHlsZT0iZmlsbDojN2ZiYTAwIiBkPSJtIDMyLjM0LDUxLjY1NjMgdiAtNy41OCBjIDAsLTEuODIgLTEuNDksLTMuMyAtMy4zLC0zLjMgaCAtNy41OSBjIC0xLjgyLDAgLTMuMywxLjQ4IC0zLjMsMy4zIHYgNy41OCBjIDAsMS44MiAxLjQ4LDMuMyAzLjMsMy4zIGggNy41OSBjIDEuODEsMCAzLjMsLTEuNDggMy4zLC0zLjMgeiIvPiYjeGE7JiN4YTs8cGF0aCBpZD0icGF0aDYwNTYxIiBpbmtzY2FwZTpjb25uZWN0b3ItY3VydmF0dXJlPSIwIiBzdHlsZT0iZmlsbDojNTliNGQ5IiBkPSJtIDM4LjI4LDI1LjkyNjMgdiAtOC4yNSBoIDQuMTIgdiA4LjI1IGMgMCwxLjQ4IDEuMzIsMi44IDMuNDcsMy40NiBsIDYuOTMsMS40OSBjIDMuNzksMS4xNSA2LjQzLDQuMTIgNi40Myw3LjQyIHYgOS40IGggLTQuMTIgdiAtOS40IGMgMCwtMS40OCAtMS4zMiwtMi44IC0zLjQ3LC0zLjQ2IGwgLTYuOTMsLTEuNDkgYyAtMy43OSwtMS4xNSAtNi40MywtNC4xMiAtNi40MywtNy40MiB6Ii8+JiN4YTsmI3hhOzxwYXRoIGlkPSJwYXRoNjA1NjkiIGlua3NjYXBlOmNvbm5lY3Rvci1jdXJ2YXR1cmU9IjAiIHN0eWxlPSJmaWxsOiM3ZmJhMDAiIGQ9Im0gNTAuMTYsNTEuOTg2MyB2IC03LjU4IGMgMCwtMS44MiAxLjQ4LC0zLjMgMy4zLC0zLjMgaCA3LjU5IGMgMS44MSwwIDMuMywxLjQ4IDMuMywzLjMgdiA3LjU4IGMgMCwxLjgyIC0xLjQ5LDMuMyAtMy4zLDMuMyBoIC03LjU5IGMgLTEuODIsMCAtMy4zLC0xLjQ4IC0zLjMsLTMuMyB6Ii8+JiN4YTsmI3hhOyYjeGE7JiN4YTs8cGF0aCBpZD0icGF0aDYwNTg1IiBpbmtzY2FwZTpjb25uZWN0b3ItY3VydmF0dXJlPSIwIiBzdHlsZT0iZmlsbDojMDA3MmM2IiBkPSJtIDQzLjcyLDEwLjA4NjMgdiA2LjExIGggLTYuMSB2IC02LjExIHogbSAxLjMyLC00LjYyIEggMzYuMyBjIC0xLjgyLDAgLTMuMywxLjQ5IC0zLjMsMy4zIHYgOC43NCBjIDAsMS44MiAxLjQ4LDMuMyAzLjMsMy4zIGggOC43NCBjIDEuODIsMCAzLjMsLTEuNDggMy4zLC0zLjMgdiAtOC43NCBjIDAsLTEuODEgLTEuNDgsLTMuMyAtMy4zLC0zLjMgeiIvPiYjeGE7JiN4YTs8cGF0aCBpZD0icGF0aDYwNTkzIiBpbmtzY2FwZTpjb25uZWN0b3ItY3VydmF0dXJlPSIwIiBzdHlsZT0iZmlsbDojNTliNGQ5IiBkPSJtIDEzLjAzLDY0LjAzNjMgYyAtMi42NCwwLjE2IC01LjI4LC0wLjUgLTcuNDIsLTEuODIgLTEuNDksLTEuMzIgLTIuMTUsLTMuNDYgLTIuMTUsLTYuNTkgdiAtMTcuMTYgYyAwLC0yLjgxIC0xLjE1LC00LjI5IC0zLjQ2LC00LjI5IHYgLTQuMjkgYyAyLjMxLDAgMy40NiwtMS40OSAzLjQ2LC00LjQ2IHYgLTE2LjgzIGMgMCwtMy4xMyAwLjY2LC01LjQ0IDIuMTUsLTYuNzYgQyA3LjA5LDAuNTE2Mjk5OTggOS41NywwLjAxNjI5OTk4IDEzLjAzLDAuMDE2Mjk5OTggViA0LjMwNjMgYyAtMi40NywwIC0zLjc5LDEuMzIgLTMuNzksNC4xMyB2IDE2LjUgYyAwLDMuNzkgLTEuMTYsNi4xIC0zLjYzLDcuMDkgMi4zMSwwLjk5IDMuNjMsMy4zIDMuNjMsNy4xIHYgMTYuMzMgYyAwLDEuMTYgMC4xNiwyLjMxIDAuODIsMy4zIDAuODMsMC42NiAxLjgyLDEuMTYgMi44MSwwLjk5IDAsMCAwLjE2LDQuMjkgMC4xNiw0LjI5IHoiLz4mI3hhOyYjeGE7PHBhdGggaWQ9InBhdGg2MDYwMSIgaW5rc2NhcGU6Y29ubmVjdG9yLWN1cnZhdHVyZT0iMCIgc3R5bGU9ImZpbGw6IzU5YjRkOSIgZD0ibSA2OS40NiwwLjAyNjI5OTk4IGMgMi42NCwtMC4xNyA1LjI4LDAuNDkgNy40MiwxLjgxMDAwMDAyIDEuNDksMS4zMiAyLjE1LDMuNDcgMi4xNSw2LjYgdiAxNy4xNiBjIDAsMi44MSAxLjE1LDQuMjkgMy40Niw0LjI5IHYgNC4yOSBjIC0yLjMxLDAgLTMuNDYsMS40OSAtMy40Niw0LjQ2IHYgMTYuNjYgYyAwLDMuMTQgLTAuNjYsNS40NCAtMi4xNSw2Ljc2IC0xLjQ4LDEuMzIgLTMuOTYsMS45OCAtNy40MiwxLjk4IHYgLTQuMjggYyAyLjQ3LDAgMy43OSwtMS4zMiAzLjc5LC00LjEzIHYgLTE2LjUgYyAwLC0zLjc5IDEuMTYsLTYuMSAzLjYzLC03LjA5IC0yLjMxLC0wLjk5IC0zLjYzLC0zLjMgLTMuNjMsLTcuMSB2IC0xNi4zMyBjIDAsLTEuMTYgLTAuMTYsLTIuMzEgLTAuODIsLTMuMyAtMC44MywtMC42NiAtMS44MiwtMS4xNiAtMi44MSwtMC45OSB6Ii8+JiN4YTs8L3N2Zz4=;" vertex="1" parent="1">
          <mxGeometry x="1048" y="1450.000000000001" width="82" height="64" as="geometry" />
        </mxCell>
        <mxCell id="6GieOjlcSy-mnPTfJjKJ-82" value="Document DB" style="text;html=1;align=center;verticalAlign=middle;resizable=0;points=[];autosize=1;strokeColor=none;fillColor=none;" vertex="1" parent="1">
          <mxGeometry x="1518" y="1110" width="100" height="30" as="geometry" />
        </mxCell>
        <mxCell id="6GieOjlcSy-mnPTfJjKJ-83" value="Contect Cleaner / Parser" style="text;html=1;align=center;verticalAlign=middle;resizable=0;points=[];autosize=1;strokeColor=none;fillColor=none;" vertex="1" parent="1">
          <mxGeometry x="870" y="1308" width="160" height="30" as="geometry" />
        </mxCell>
        <mxCell id="6GieOjlcSy-mnPTfJjKJ-84" value="URL Filter" style="text;html=1;align=center;verticalAlign=middle;resizable=0;points=[];autosize=1;strokeColor=none;fillColor=none;" vertex="1" parent="1">
          <mxGeometry x="880" y="1468" width="80" height="30" as="geometry" />
        </mxCell>
        <mxCell id="6GieOjlcSy-mnPTfJjKJ-85" value="" style="edgeStyle=none;orthogonalLoop=1;jettySize=auto;html=1;rounded=0;exitX=0;exitY=0.5;exitDx=0;exitDy=0;entryX=0.103;entryY=1.12;entryDx=0;entryDy=0;entryPerimeter=0;" edge="1" parent="1" source="6GieOjlcSy-mnPTfJjKJ-81" target="RLjyjs_sm2IHfBNOWAbh-23">
          <mxGeometry width="100" relative="1" as="geometry">
            <mxPoint x="500" y="1120" as="sourcePoint" />
            <mxPoint x="210" y="560" as="targetPoint" />
            <Array as="points">
              <mxPoint x="230" y="990" />
            </Array>
          </mxGeometry>
        </mxCell>
        <mxCell id="6GieOjlcSy-mnPTfJjKJ-86" value="New Domains" style="text;html=1;align=center;verticalAlign=middle;resizable=0;points=[];autosize=1;strokeColor=none;fillColor=none;" vertex="1" parent="1">
          <mxGeometry x="380" y="1148" width="100" height="30" as="geometry" />
        </mxCell>
        <mxCell id="6GieOjlcSy-mnPTfJjKJ-87" value="" style="shape=singleArrow;whiteSpace=wrap;html=1;arrowWidth=0.4;arrowSize=0.4;" vertex="1" parent="1">
          <mxGeometry x="1130" y="1272" width="390" height="60" as="geometry" />
        </mxCell>
        <mxCell id="6GieOjlcSy-mnPTfJjKJ-88" value="Web Content" style="text;html=1;align=center;verticalAlign=middle;resizable=0;points=[];autosize=1;strokeColor=none;fillColor=none;" vertex="1" parent="1">
          <mxGeometry x="1155" y="1248" width="90" height="30" as="geometry" />
        </mxCell>
        <mxCell id="6GieOjlcSy-mnPTfJjKJ-89" value="Text" style="text;strokeColor=none;align=center;fillColor=none;html=1;verticalAlign=middle;whiteSpace=wrap;rounded=0;" vertex="1" parent="1">
          <mxGeometry x="1000" y="340" width="60" height="30" as="geometry" />
        </mxCell>
        <mxCell id="6GieOjlcSy-mnPTfJjKJ-90" value="&lt;div style=&quot;font-size: 16px;&quot; align=&quot;left&quot;&gt;&lt;font style=&quot;font-size: 16px;&quot;&gt;Priority&lt;/font&gt;&lt;/div&gt;&lt;div style=&quot;font-size: 16px;&quot; align=&quot;left&quot;&gt;&lt;font style=&quot;font-size: 16px;&quot;&gt;Rate LImit Rules&lt;/font&gt;&lt;/div&gt;&lt;div style=&quot;font-size: 16px;&quot; align=&quot;left&quot;&gt;&lt;font style=&quot;font-size: 16px;&quot;&gt;Traffice Patterns&lt;/font&gt;&lt;/div&gt;&lt;div style=&quot;font-size: 16px;&quot; align=&quot;left&quot;&gt;&lt;font style=&quot;font-size: 16px;&quot;&gt;Legal Rules&lt;/font&gt;&lt;/div&gt;" style="shape=note;whiteSpace=wrap;html=1;backgroundOutline=1;fontColor=#000000;darkOpacity=0.05;fillColor=#FFF9B2;strokeColor=none;fillStyle=solid;direction=west;gradientDirection=north;gradientColor=#FFF2A1;shadow=1;size=20;pointerEvents=1;align=left;" vertex="1" parent="1">
          <mxGeometry x="465" y="690" width="140" height="160" as="geometry" />
        </mxCell>
        <mxCell id="6GieOjlcSy-mnPTfJjKJ-91" value="" style="edgeStyle=none;orthogonalLoop=1;jettySize=auto;html=1;rounded=0;exitX=0.5;exitY=1;exitDx=0;exitDy=0;" edge="1" parent="1" source="6GieOjlcSy-mnPTfJjKJ-79">
          <mxGeometry width="100" relative="1" as="geometry">
            <mxPoint x="1040" y="1390" as="sourcePoint" />
            <mxPoint x="1080" y="1440" as="targetPoint" />
            <Array as="points" />
          </mxGeometry>
        </mxCell>
      </root>
    </mxGraphModel>
  </diagram>
</mxfile>
